<svg width="69" height="47" viewBox="0 0 69 47" fill="none" xmlns="http://www.w3.org/2000/svg">
<rect x="0.978041" y="0.978041" width="66.5068" height="44.9899" rx="6.84628" fill="#1F72CD" stroke="#D9D9D9" stroke-width="1.95608"/>
<path fill-rule="evenodd" clip-rule="evenodd" d="M13.0687 16.6267L6.84619 30.8019H14.2954L15.2189 28.5418H17.3298L18.2533 30.8019H26.4528V29.0769L27.1834 30.8019H31.4248L32.1554 29.0405V30.8019H49.2082L51.2817 28.6005L53.2233 30.8019L61.9819 30.8202L55.7397 23.7539L61.9819 16.6267H53.3591L51.3406 18.7875L49.4602 16.6267H30.9091L29.3161 20.2855L27.6857 16.6267H20.2521V18.293L19.4251 16.6267H13.0687ZM38.5333 18.6396H48.3258L51.3208 21.97L54.4124 18.6396H57.4075L52.8568 23.7519L57.4075 28.8052H54.2766L51.2815 25.4362L48.1741 28.8052H38.5333V18.6396ZM40.9516 22.6023V20.7455V20.7437H47.0618L49.728 23.7133L46.9437 26.699H40.9516V24.6719H46.2938V22.6023H40.9516ZM14.5099 18.6396H18.141L22.2684 28.2519V18.6396H26.2461L29.434 25.5316L32.3721 18.6396H36.3299V28.8113H33.9216L33.902 20.8408L30.391 28.8113H28.2367L24.706 20.8408V28.8113H19.7517L18.8124 26.5309H13.738L12.8007 28.8093H10.1462L14.5099 18.6396ZM14.6047 24.423L16.2765 20.3607L17.9464 24.423H14.6047Z" fill="white"/>
</svg>
