<svg width="70" height="48" viewBox="0 0 70 48" fill="none" xmlns="http://www.w3.org/2000/svg">
<rect x="0.5" y="0.5" width="69" height="47" rx="5.5" fill="white" stroke="#D9D9D9"/>
<path d="M54.9941 28.6379H55.0293L57.9482 21.3118H60L53.6934 36.0002H51.7471L54.0918 30.8616L49.9531 21.3118H52.0049L54.9941 28.6379ZM45.123 20.9788C46.5181 20.9788 47.6208 21.3594 48.4297 22.1086C49.2384 22.8579 49.6367 23.9048 49.6367 25.2249V31.5159H47.8311V30.1008H47.749C46.9636 31.2663 45.9321 31.8489 44.6309 31.8489C43.529 31.8488 42.5911 31.5159 41.8525 30.8499C41.1259 30.2314 40.7159 29.316 40.7393 28.3528C40.7393 27.2943 41.1375 26.4616 41.9229 25.8313C42.7082 25.201 43.7633 24.8919 45.0762 24.8918C46.2014 24.8918 47.116 25.1057 47.8428 25.51V25.0696C47.8427 24.4156 47.5616 23.7975 47.0693 23.3694C46.5652 22.9174 45.9202 22.6672 45.252 22.6672C44.1971 22.6674 43.3644 23.1199 42.7549 24.0237L41.0908 22.9651C41.9817 21.645 43.3296 20.9788 45.123 20.9788ZM36.1787 16.6018C37.386 16.578 38.5583 17.0416 39.4141 17.8977C41.1256 19.5152 41.2311 22.2392 39.625 23.9875L39.4141 24.2014C38.5348 25.0458 37.4565 25.4739 36.1787 25.4739H33.0605V31.5159H31.1729V16.6018H36.1787ZM45.3701 26.4377C44.6081 26.4378 43.9631 26.6277 43.4473 26.9963C42.9432 27.365 42.6856 27.8291 42.6855 28.3879C42.6855 28.8875 42.9197 29.3515 43.3066 29.637C43.7287 29.97 44.2448 30.1489 44.7725 30.137C45.5697 30.1369 46.3318 29.8152 46.8945 29.2444C47.5159 28.6497 47.832 27.9476 47.832 27.1389C47.2458 26.6634 46.4251 26.4259 45.3701 26.4377ZM33.0605 23.6428H36.2266C36.9299 23.6665 37.6102 23.3807 38.0908 22.8694C39.0753 21.8348 39.0518 20.1702 38.0322 19.1711C37.5516 18.6955 36.9065 18.4329 36.2266 18.4329H33.0605V23.6428Z" fill="#3C4043"/>
<path d="M26.544 24.1659C26.544 23.5831 26.4971 23.0003 26.4034 22.4294H18.4434V25.7239H23.0037C22.8161 26.7825 22.2065 27.734 21.3155 28.3286V30.4695H24.0353C25.6296 28.9828 26.544 26.7825 26.544 24.1659Z" fill="#4285F4"/>
<path d="M18.4437 32.539C20.718 32.539 22.6406 31.7778 24.0357 30.4695L21.3159 28.3287C20.5539 28.852 19.5809 29.1493 18.4437 29.1493C16.2398 29.1493 14.3758 27.6388 13.7076 25.6169H10.9058V27.8291C12.336 30.7193 15.255 32.539 18.4437 32.539Z" fill="#34A853"/>
<path d="M13.708 25.6169C13.3563 24.5584 13.3563 23.4048 13.708 22.3343V20.134H10.9058C9.69808 22.5484 9.69808 25.4029 10.9058 27.8172L13.708 25.6169Z" fill="#FBBC04"/>
<path d="M18.4437 18.802C19.6512 18.7782 20.8118 19.2421 21.6793 20.0865L24.0943 17.6365C22.5585 16.1855 20.5422 15.3886 18.4437 15.4124C15.255 15.4124 12.336 17.244 10.9058 20.1341L13.7076 22.3463C14.3758 20.3125 16.2398 18.802 18.4437 18.802Z" fill="#EA4335"/>
</svg>
