<svg width="69" height="47" viewBox="0 0 69 47" fill="none" xmlns="http://www.w3.org/2000/svg">
<rect x="0.978041" y="0.978041" width="66.5068" height="44.9899" rx="6.84628" fill="white" stroke="#D9D9D9" stroke-width="1.95608"/>
<path d="M43.3784 9.78052C50.7502 9.78052 56.7261 15.8261 56.7261 23.2834C56.7259 30.7407 50.7502 36.7864 43.3784 36.7864C40.0743 36.7863 37.0511 35.5707 34.7202 33.5588C32.3893 35.5706 29.3662 36.7864 26.062 36.7864C18.6903 36.7863 12.7144 30.7407 12.7144 23.2834C12.7144 15.8261 18.6903 9.78062 26.062 9.78052C29.366 9.78052 32.3893 10.9955 34.7202 13.0071C37.0511 10.9954 40.0744 9.78058 43.3784 9.78052Z" fill="#ED0006"/>
<path d="M43.3784 9.78052C50.7502 9.78052 56.7261 15.8261 56.7261 23.2834C56.7259 30.7407 50.7502 36.7864 43.3784 36.7864C40.0743 36.7863 37.0511 35.5707 34.7202 33.5588C37.5898 31.0822 39.4106 27.3983 39.4106 23.2834C39.4106 19.1684 37.59 15.4837 34.7202 13.0071C37.0511 10.9954 40.0744 9.78058 43.3784 9.78052Z" fill="#F9A000"/>
<path d="M34.7202 13.0073C37.5899 15.484 39.4106 19.1687 39.4106 23.2837C39.4105 27.3985 37.5898 31.0825 34.7202 33.5591C31.8509 31.0825 30.0309 27.3983 30.0308 23.2837C30.0308 19.1689 31.8507 15.484 34.7202 13.0073Z" fill="#FF5E00"/>
</svg>
