<svg width="69" height="47" viewBox="0 0 69 47" fill="none" xmlns="http://www.w3.org/2000/svg">
<rect x="0.978041" y="0.978041" width="66.5068" height="44.9899" rx="6.84628" fill="white" stroke="#D9D9D9" stroke-width="1.95608"/>
<path fill-rule="evenodd" clip-rule="evenodd" d="M20.7839 31.8023H16.6363L13.5262 19.9369C13.3786 19.3911 13.0652 18.9086 12.6041 18.6812C11.4535 18.1097 10.1855 17.6548 8.80236 17.4254V16.9686H15.4837C16.4058 16.9686 17.0974 17.6548 17.2127 18.4518L18.8264 27.0107L22.9719 16.9686H27.0041L20.7839 31.8023ZM29.3097 31.8023H25.3928L28.6182 16.9686H32.5352L29.3097 31.8023ZM37.6028 21.0782C37.7181 20.2792 38.4097 19.8224 39.2165 19.8224C40.4845 19.7077 41.8656 19.9371 43.0183 20.5067L43.7099 17.3129C42.5572 16.8561 41.2893 16.6267 40.1387 16.6267C36.3369 16.6267 33.5706 18.6814 33.5706 21.533C33.5706 23.7024 35.5301 24.8415 36.9133 25.5277C38.4097 26.2119 38.986 26.6687 38.8707 27.353C38.8707 28.3793 37.7181 28.8361 36.5675 28.8361C35.1843 28.8361 33.8011 28.494 32.5352 27.9225L31.8436 31.1182C33.2268 31.6878 34.7232 31.9172 36.1064 31.9172C40.3692 32.0299 43.0183 29.9772 43.0183 26.8961C43.0183 23.0162 37.6028 22.7888 37.6028 21.0782V21.0782ZM56.7267 31.8023L53.6165 16.9686H50.2759C49.5843 16.9686 48.8927 17.4254 48.6621 18.1097L42.9029 31.8023H46.9352L47.74 29.6349H52.6944L53.1555 31.8023H56.7267ZM50.8517 20.9634L52.0023 26.554H48.7769L50.8517 20.9634Z" fill="#172B85"/>
</svg>
