<svg width="116" height="80" viewBox="0 0 116 80" fill="none" xmlns="http://www.w3.org/2000/svg">
<path d="M65.6018 79.3218C69.1988 79.1919 80.4476 76.5933 90.6501 69.6421H66.3866C65.6018 74.0597 65.471 77.5678 65.6018 79.3218Z" fill="white"/>
<path d="M100.591 60.7422H14.8516C16.225 62.3663 18.3832 64.2503 19.822 65.1598H95.6861C97.1249 64.2503 99.2177 62.3663 100.591 60.7422Z" fill="white"/>
<path d="M57.6886 79.9061C59.1928 78.4768 62.2012 74.7089 65.0788 69.5117H50.2983C53.2413 74.8388 56.119 78.4768 57.6886 79.9061Z" fill="white"/>
<path d="M115.306 22.4126C100.918 23.2571 84.6334 33.4566 75.1504 47.489C75.1504 47.489 75.1504 47.5539 75.085 47.5539H109.616C113.802 39.2384 115.96 30.3383 115.306 22.4126Z" fill="white"/>
<path d="M72.4035 47.5541C74.4963 29.7538 68.5449 10.5243 57.6885 0C46.8321 10.5892 40.9461 29.8188 43.0389 47.5541H72.4035Z" fill="white"/>
<path d="M40.3575 47.5539C40.3575 47.489 40.3575 47.489 40.3575 47.5539C30.7437 33.4566 14.5245 23.2571 0.136461 22.4126C-0.58294 30.3383 1.57526 39.3034 5.82627 47.489H40.2921V47.5539H40.3575Z" fill="white"/>
<path d="M49.8407 79.3218C49.9715 77.6327 49.9061 74.0597 49.0559 69.6421H24.7271C34.9295 76.5933 46.2437 79.1269 49.8407 79.3218Z" fill="white"/>
<path d="M107.262 51.9067H8.24609C8.9655 53.271 10.4043 55.155 11.5161 56.3243H104.057C105.169 55.2199 106.608 53.271 107.262 51.9067Z" fill="white"/>
</svg>
