<svg width="237" height="81" viewBox="0 0 237 81" fill="none" xmlns="http://www.w3.org/2000/svg">
<path d="M80.0436 40.024C80.0436 18.0831 62.3581 0.266873 40.5512 0.000976562H196.119C218.19 0.000976562 236.139 17.9524 236.139 40.024C236.139 62.0957 218.189 80.0448 196.119 80.0448H40.0205C62.0933 80.0448 80.0436 62.0957 80.0436 40.024Z" fill="#D9D9D9"/>
<path d="M40.0208 0C40.1549 0 40.2867 0 40.5526 0C62.4925 0.265897 80.045 18.0832 80.045 40.0231C80.045 62.0947 62.0936 80.0439 40.156 80.0439C17.9503 80.0439 5.30356e-08 62.0936 5.30356e-08 40.0231C-0.00112663 17.9514 17.9491 0 40.0208 0Z" fill="black"/>
<path d="M39.0898 16.4889C39.0898 16.0901 39.3545 15.823 39.6227 15.6901C40.0215 15.956 40.1556 16.223 40.1556 16.4889C40.1556 16.7537 39.8886 17.1536 39.6227 17.2855C39.3545 17.0207 39.0898 16.7548 39.0898 16.4889ZM40.1545 18.2172C39.8875 18.0832 39.7545 17.6843 39.7545 17.2855C40.1545 17.1536 40.4192 17.0207 40.8192 17.2855C41.0829 17.4184 41.2181 17.8184 41.2181 18.2172C40.8192 18.3502 40.4181 18.3502 40.1545 18.2172ZM39.2227 18.2172C39.4886 18.0832 39.6227 17.6843 39.6227 17.2855C39.2238 17.1536 38.9568 17.0207 38.558 17.2855C38.2909 17.4184 38.1591 17.8184 38.1591 18.2172C38.558 18.3502 38.9568 18.3502 39.2227 18.2172ZM43.0782 16.7548C43.2112 16.356 43.4782 16.223 43.743 16.0901C44.0089 16.356 44.1429 16.7548 44.1429 17.0207C44.0088 17.2855 43.743 17.5525 43.4782 17.6854C43.0782 17.4184 42.9453 17.0207 43.0782 16.7548ZM43.61 18.6161C43.3441 18.3502 43.3441 18.0832 43.3441 17.6854C43.743 17.5525 44.1429 17.5525 44.4066 17.8184C44.6736 18.0832 44.6736 18.3502 44.6736 18.749C44.2747 18.882 43.8759 18.882 43.61 18.6161ZM42.6782 18.4831C42.9453 18.3502 43.2112 18.0843 43.3441 17.6854C43.0782 17.4195 42.6782 17.2866 42.4135 17.4195C42.0146 17.5525 41.8817 17.8184 41.7476 18.2184C42.0135 18.4831 42.4135 18.6161 42.6782 18.4831ZM46.8008 17.8184C46.9337 17.5525 47.1996 17.2855 47.5985 17.2855C47.8643 17.5514 47.8643 17.9513 47.7314 18.3491C47.5984 18.6149 47.3326 18.882 46.9337 18.882C46.6678 18.4831 46.6678 18.0832 46.8008 17.8184ZM46.136 19.4138C46.5349 19.4138 46.8008 19.149 46.9337 18.749C46.6678 18.4831 46.4008 18.2172 46.0031 18.3502C45.7361 18.3502 45.3383 18.6161 45.2065 19.016C45.4724 19.2808 45.8713 19.5467 46.136 19.4138ZM36.2967 16.7548C36.2967 16.356 36.032 16.223 35.632 16.0901C35.3661 16.356 35.2331 16.7548 35.2331 17.0207C35.365 17.2855 35.632 17.5525 35.8979 17.6854C36.1649 17.4184 36.2967 17.0207 36.2967 16.7548ZM35.632 18.6161C35.8979 18.3502 36.0308 18.0832 35.8979 17.6854C35.499 17.5525 35.0991 17.5525 34.9672 17.8184C34.7013 18.0832 34.7013 18.3502 34.7013 18.749C34.9672 18.882 35.3661 18.882 35.632 18.6161ZM36.5637 18.4831C36.2967 18.3502 36.0308 18.0843 35.8979 17.6854C36.1638 17.4195 36.5637 17.2866 36.8285 17.4195C37.0922 17.5525 37.3603 17.8184 37.4933 18.2184C37.2285 18.4831 36.8296 18.6161 36.5637 18.4831ZM32.5742 17.8184C32.4401 17.5525 32.1753 17.2855 31.7754 17.2855C31.5117 17.5514 31.5117 17.9513 31.6435 18.3491C31.7754 18.6149 32.0424 18.882 32.4401 18.882C32.5742 18.4831 32.7071 18.0832 32.5742 17.8184ZM33.1048 19.4138C32.7071 19.4138 32.4401 19.149 32.3083 18.749C32.5742 18.4831 32.8412 18.2172 33.2389 18.3502C33.6378 18.3502 33.9037 18.6161 34.0366 19.016C33.7707 19.2808 33.5048 19.5467 33.1048 19.4138ZM38.8227 9.30744C38.8227 8.77565 39.2216 8.37793 39.7534 8.37793C40.2863 8.37793 40.684 8.77677 40.684 9.30744C40.684 9.84036 40.2852 10.2392 39.7534 10.2392C39.2227 10.2392 38.8227 9.84036 38.8227 9.30744ZM33.1048 20.6092L33.9037 21.6739C35.632 20.8751 37.6262 20.3433 39.6216 20.3433C41.7476 20.3433 43.7418 20.8751 45.4713 21.6739L46.2678 20.6092C44.4066 19.6797 42.1476 19.1479 39.7534 19.1479C37.3603 19.1479 35.0991 19.6797 33.1048 20.6092ZM34.3025 13.5629C34.0366 13.43 33.7696 13.43 33.5048 13.43C32.3083 13.43 31.3754 14.0947 31.3754 15.0253C31.3754 15.4242 31.6424 15.823 31.9083 16.0889L30.9788 17.0196C30.4459 16.4878 30.047 15.823 30.047 15.0242C30.047 13.4288 31.6435 12.0982 33.5048 12.0982C34.0366 12.0982 34.4343 12.2312 34.9672 12.3641C35.632 11.6994 36.5637 11.1676 37.7603 11.1676C38.425 11.1676 39.0898 11.2994 39.6216 11.6994C40.1545 11.4335 40.8181 11.1676 41.4828 11.1676C42.6782 11.1676 43.61 11.6994 44.2747 12.3641C44.6736 12.2312 45.2065 12.0982 45.7361 12.0982C47.5985 12.0982 49.195 13.4288 49.195 15.0242C49.195 15.8219 48.7961 16.4878 48.2632 17.0196L47.3326 16.0889C47.7314 15.823 47.8655 15.4242 47.8655 15.0253C47.8655 14.0947 46.9348 13.43 45.7361 13.43C45.4724 13.43 45.2065 13.43 44.9395 13.5629C44.9395 13.6959 44.9395 13.9618 44.9395 14.0947C44.9395 14.6265 44.8077 15.1583 44.4066 15.6901L43.4782 14.7594C43.61 14.6265 43.61 14.3606 43.61 14.0947C43.61 13.1641 42.6782 12.4993 41.4828 12.4993C41.0829 12.4993 40.5511 12.6323 40.2863 12.7652V14.7594H38.9568V12.8982C38.558 12.6334 38.158 12.6334 37.6251 12.6334C36.4285 12.6334 35.499 13.2981 35.499 14.2288C35.499 14.4947 35.499 14.6276 35.6309 14.8935L34.7002 15.8242C34.3014 15.4253 34.1684 14.7606 34.1684 14.2288C34.3025 13.8288 34.3025 13.697 34.3025 13.5629ZM38.8227 67.2819C38.8227 66.749 39.2216 66.482 39.7534 66.482C40.2863 66.482 40.5511 66.8808 40.5511 67.2819C40.5511 67.8126 40.1534 68.2103 39.7534 68.2103C39.2227 68.0785 38.8227 67.6796 38.8227 67.2819ZM15.5557 44.0126C15.5557 43.4797 15.9534 43.2149 16.4852 43.2149C17.0181 43.2149 17.4169 43.6126 17.4169 44.0126C17.4169 44.5444 17.0181 44.9432 16.4852 44.9432C15.9534 44.9432 15.5557 44.5444 15.5557 44.0126ZM61.958 44.0126C61.958 43.4797 62.3568 43.2149 62.7568 43.2149C63.2886 43.2149 63.6863 43.6126 63.6863 44.0126C63.6863 44.5444 63.2875 44.9432 62.7568 44.9432C62.358 44.9432 61.958 44.5444 61.958 44.0126ZM39.3545 43.7478H35.1002V38.4276H39.3545V43.7478ZM35.0991 28.9872L39.3534 24.7328V36.3016H35.0991V28.9872ZM44.2747 59.0369L40.0204 63.2923V51.7247H44.2747V59.0369ZM40.0204 44.2773H44.2747V49.5964H40.0204V44.2773ZM37.2285 61.164V44.2773H39.3545V63.1583L37.2285 61.164ZM32.973 56.9086V44.4114H35.1002V59.0357L32.973 56.9086ZM28.7175 52.6553V44.4125H30.847V54.7825L28.7175 52.6553ZM24.4621 48.3999V44.4114H26.5915V50.527L24.4621 48.3999ZM20.4736 44.2773H22.469V46.2727L20.4736 44.2773ZM42.1476 26.8589V43.6115H40.0193V24.7328L42.1476 26.8589ZM46.4019 31.1155V43.6126H44.2747V28.9883L46.4019 31.1155ZM50.6563 35.3698V43.6115H48.5291V33.2415L50.6563 35.3698ZM54.7788 39.623V43.6115H52.6516V37.4959L54.7788 39.623ZM58.9013 43.7478H57.0389V41.7525L58.9013 43.7478ZM60.8955 44.0126C60.8955 44.0126 58.5025 48.2658 51.321 55.4473C44.0089 62.7594 39.6216 65.2854 39.6216 65.2854C39.6216 65.2854 35.3661 62.8912 28.1869 55.712C20.8736 48.3999 18.3476 44.0114 18.3476 44.0114C18.3476 44.0114 20.7407 39.7571 27.921 32.5768C35.2343 25.2635 39.6227 22.7375 39.6227 22.7375C39.6227 22.7375 43.8759 25.1317 51.0562 32.3109C58.5025 39.623 60.8955 44.0126 60.8955 44.0126ZM39.6216 65.0207L60.6296 44.0126L39.6216 23.0045L18.6135 44.0126L39.6216 65.0207ZM60.8955 44.0126C60.8955 44.0126 58.5025 48.2658 51.321 55.4473C44.0089 62.7594 39.6216 65.2854 39.6216 65.2854C39.6216 65.2854 35.3661 62.8912 28.1869 55.712C20.8736 48.3999 18.3476 44.0114 18.3476 44.0114C18.3476 44.0114 20.7407 39.7571 27.921 32.5768C35.2343 25.2635 39.6227 22.7375 39.6227 22.7375C39.6227 22.7375 43.8759 25.1317 51.0562 32.3109C58.5025 39.623 60.8955 44.0126 60.8955 44.0126ZM39.6216 65.0207L60.6296 44.0126L39.6216 23.0045L18.6135 44.0126L39.6216 65.0207Z" fill="white"/>
<path d="M46.4023 56.9085V51.7246H51.4566L46.4023 56.9085Z" fill="white"/>
<path d="M27.7871 36.3002L32.9732 31.1152V36.3002H27.7871Z" fill="white"/>
<path d="M46.4023 44.2773V46.9374V49.5964H49.9919H53.5827L58.9017 44.2773H46.4023Z" fill="white"/>
<path d="M25.7927 38.4277L20.4736 43.7479H32.973V38.4277H25.7927Z" fill="white"/>
<path d="M110.359 50.261C110.359 48.6667 109.56 47.2032 107.965 46.4055C109.428 45.7407 110.093 44.2772 110.093 42.8147C110.093 41.3523 109.428 40.0228 108.099 39.0922C106.901 38.2934 105.571 38.1616 104.241 38.1616H97.5938V55.0471H104.241C105.838 55.0471 107.432 54.9142 108.764 53.8506C109.827 53.054 110.359 51.7245 110.359 50.261ZM106.901 43.0818C106.901 44.6771 105.705 45.2089 104.376 45.2089H100.519V40.9546H104.242C105.706 40.9535 106.901 41.4864 106.901 43.0818ZM107.301 50.1292C107.301 51.8575 105.706 52.3904 104.376 52.3904H100.654V47.735H104.508C105.972 47.735 107.301 48.3997 107.301 50.1292ZM123.921 55.0482V52.787C123.921 52.787 123.788 52.787 123.521 52.787C122.99 52.787 122.856 52.5222 122.856 51.9904V47.4691C122.856 46.6725 122.856 45.7407 122.458 44.943C121.794 43.0818 119.932 42.417 117.803 42.417C115.012 42.417 112.884 43.6124 112.619 46.4055H115.543C115.677 45.2089 116.474 44.6771 117.803 44.6771C119.532 44.6771 119.932 45.476 119.932 46.6725V47.4691L116.342 47.7338C113.949 47.8668 112.219 49.1963 112.219 51.5893C112.219 53.5847 113.682 55.4471 116.741 55.4471C118.469 55.4471 119.932 54.6494 120.463 53.5858C120.598 54.5153 121.263 55.3141 122.593 55.3141C123.123 55.3141 123.389 55.1801 123.921 55.0482ZM119.932 50.261C119.932 52.1222 118.602 53.054 116.741 53.054C115.81 53.054 115.013 52.5211 115.013 51.4575C115.013 50.3939 115.943 49.8621 116.741 49.8621L119.932 49.5962V50.261ZM133.76 45.476V42.6829C133.494 42.6829 133.095 42.5488 132.83 42.5488C131.367 42.5488 129.906 43.0818 129.374 44.5442L129.107 42.684H126.582V55.0494H129.64V48.7997C129.64 46.8054 130.703 45.343 132.831 45.343C132.962 45.476 133.361 45.476 133.76 45.476ZM145.461 50.7928H142.537C142.537 51.1916 142.404 51.5893 142.137 51.9893C141.738 52.5211 141.073 52.9188 140.277 52.9188C139.478 52.9188 138.813 52.52 138.416 52.1211C137.75 51.3246 137.618 50.1269 137.618 49.0633C137.618 47.8668 137.75 46.6714 138.416 45.8714C138.814 45.4737 139.346 45.0749 140.277 45.0749C141.208 45.0749 141.873 45.4737 142.137 46.0055C142.27 46.2703 142.404 46.6714 142.537 47.202H145.461C145.461 46.2714 145.062 45.2067 144.531 44.5431C143.734 43.4795 142.137 42.5477 140.277 42.5477C138.416 42.5477 136.82 43.4784 136.021 44.5431C135.092 45.7396 134.692 47.202 134.692 49.0644C134.692 50.9246 135.091 52.3893 136.021 53.5858C136.82 54.6494 138.416 55.58 140.277 55.58C142.137 55.58 143.602 54.6505 144.531 53.5858C145.062 52.6552 145.461 51.7245 145.461 50.7928ZM158.492 49.0644C158.492 47.4691 158.358 46.1396 157.428 44.809C156.365 43.2147 154.768 42.5488 152.907 42.5488C151.18 42.5488 149.85 43.2147 148.919 44.1442C147.722 45.3408 147.19 47.0702 147.19 49.0644C147.19 51.0587 147.855 52.787 149.05 53.9835C149.982 54.9142 151.312 55.4471 152.907 55.4471C154.503 55.4471 155.965 54.9142 157.028 53.7188C157.561 53.1858 157.96 52.1222 158.092 51.4575H155.299C155.167 51.8564 155.034 52.2541 154.766 52.5211C154.367 52.9199 153.838 53.054 152.906 53.054C152.108 53.054 151.442 52.6552 151.045 52.2541C150.514 51.7234 150.114 50.7928 150.114 49.8621H158.357C158.492 49.5962 158.492 49.0644 158.492 49.0644ZM155.567 47.735H150.247C150.247 46.9373 150.514 46.4055 150.912 45.7407C151.31 45.2078 152.108 44.809 153.04 44.809C153.839 44.809 154.503 45.076 154.901 45.476C155.3 46.1407 155.567 46.8043 155.567 47.735ZM165.937 55.0482V52.5222C165.804 52.5222 165.671 52.5222 165.405 52.5222C164.342 52.5222 164.209 51.9904 164.209 51.3257V37.8945H161.15V51.8575C161.15 54.2506 162.48 55.1801 164.473 55.1801C165.273 55.3141 165.406 55.1801 165.937 55.0482ZM179.102 48.9315C179.102 46.8043 178.569 45.476 177.638 44.4113C176.841 43.3477 175.245 42.5488 173.25 42.5488C171.388 42.5488 169.795 43.4795 168.862 44.4113C167.931 45.6078 167.398 46.9361 167.398 48.9315C167.398 51.0587 167.931 52.3893 168.862 53.4517C169.658 54.5153 171.255 55.3141 173.25 55.3141C175.112 55.3141 176.707 54.3835 177.638 53.4517C178.569 52.3893 179.102 51.0587 179.102 48.9315ZM176.042 48.9315C176.042 50.128 175.909 51.3257 175.113 51.9904C174.713 52.3893 174.048 52.787 173.251 52.787C172.454 52.787 171.789 52.3893 171.389 51.9904C170.724 51.1916 170.461 49.9951 170.461 48.9315C170.461 47.735 170.592 46.5373 171.389 45.8726C171.789 45.4748 172.454 45.076 173.251 45.076C174.048 45.076 174.713 45.4748 175.113 45.8726C175.909 46.6725 176.042 47.735 176.042 48.9315ZM192.53 55.1801V46.9373C192.53 44.4124 190.934 42.5488 188.409 42.5488C186.945 42.5488 185.484 43.0818 184.819 44.4113L184.552 42.8147H182.026V55.1801H184.952V50.1292C184.952 49.0656 184.952 47.735 185.351 46.8054C185.75 45.8737 186.414 45.2089 187.478 45.2089C189.073 45.2089 189.473 46.1407 189.473 47.602V55.1812L192.53 55.1801ZM206.758 55.0482V52.787C206.758 52.787 206.625 52.787 206.359 52.787C205.827 52.787 205.694 52.5222 205.694 51.9904V47.4691C205.694 46.6725 205.694 45.7407 205.294 44.943C204.63 43.0818 202.77 42.417 200.641 42.417C197.85 42.417 195.723 43.6124 195.456 46.4055H198.381C198.515 45.2089 199.312 44.6771 200.641 44.6771C202.372 44.6771 202.77 45.476 202.77 46.6725V47.4691L199.18 47.7338C196.787 47.8668 195.058 49.1963 195.058 51.5893C195.058 53.5847 196.52 55.4471 199.577 55.4471C201.307 55.4471 202.77 54.6494 203.301 53.5858C203.435 54.5153 204.1 55.3141 205.431 55.3141C205.96 55.3141 206.225 55.1801 206.758 55.0482ZM202.769 50.261C202.769 52.1222 201.439 53.054 199.576 53.054C198.647 53.054 197.85 52.5211 197.85 51.4575C197.85 50.3939 198.78 49.8621 199.576 49.8621L202.769 49.5962V50.261Z" fill="black"/>
<path d="M107.964 31.7789L103.711 19.6795H101.318L97.0625 31.7789H99.3226L100.121 29.5176H104.906L105.705 31.7789H107.964ZM104.242 27.3916H100.786L102.515 22.3396L104.242 27.3916ZM111.155 19.4136H108.895V21.6748H111.155V19.4136ZM111.155 32.9754V22.8702H109.028V32.5766C109.028 33.1084 108.629 33.5072 107.964 33.5072C107.699 33.5072 107.565 33.5072 106.901 33.3743V35.2344C107.3 35.3685 107.567 35.3685 107.831 35.3685C108.098 35.3685 108.364 35.3685 108.63 35.3685C110.224 35.3696 111.155 34.439 111.155 32.9754ZM120.463 31.7789V22.8702H118.336V27.5234C118.336 28.1893 118.202 28.987 117.671 29.5188C117.405 29.7847 117.006 29.9176 116.607 29.9176C115.543 29.9176 115.013 29.2517 115.013 28.1893V22.7373H113.017V28.7211C113.017 30.5824 114.214 31.913 116.076 31.913C117.139 31.913 118.204 31.38 118.602 30.5824L118.735 31.7789H120.463ZM130.037 31.7789V25.7951C130.037 23.9338 128.973 22.6032 126.979 22.6032C125.916 22.6032 124.85 23.0021 124.32 23.9338L124.186 22.7373H122.459V31.6459H124.586V28.0552C124.586 27.2575 124.586 26.3269 124.851 25.6621C125.117 24.9963 125.65 24.5986 126.447 24.5986C127.511 24.5986 127.91 25.2633 127.91 26.3269V31.7789H130.037ZM136.951 31.6459V29.9176C136.419 30.0506 136.02 30.0506 135.622 30.0506C134.957 30.0506 134.69 29.7847 134.69 29.1199V24.8656H136.951V23.1373H134.69V20.3442L132.563 20.876V23.1373H130.968V24.8656H132.563V29.3858C132.563 31.1153 133.493 32.1789 135.222 32.1789C135.754 31.913 136.287 31.7789 136.951 31.6459ZM145.726 31.6459V30.0506C145.726 30.0506 145.594 30.0506 145.46 30.0506C145.061 30.0506 144.93 29.9176 144.93 29.5176V26.1939C144.93 25.6621 144.93 24.9974 144.662 24.4667C144.131 23.1361 142.801 22.6043 141.34 22.6043C139.345 22.6043 137.748 23.535 137.616 25.5303H139.743C139.743 24.7326 140.408 24.2008 141.34 24.2008C142.536 24.2008 142.801 24.7326 142.801 25.6633V26.1951L140.143 26.328C138.415 26.461 137.084 27.3916 137.084 29.1211C137.084 30.5835 138.148 31.9141 140.276 31.9141C141.473 31.9141 142.538 31.2482 142.936 30.5835C143.068 31.2482 143.466 31.78 144.398 31.78C145.195 31.913 145.46 31.7789 145.726 31.6459ZM142.935 28.1893C142.935 29.5188 142.004 30.1846 140.674 30.1846C140.008 30.1846 139.476 29.7858 139.476 29.1211C139.476 28.4563 140.142 28.0575 140.807 27.9245L143.068 27.7916V28.1904L142.935 28.1893ZM159.555 31.7789V25.7951C159.555 23.9338 158.624 22.7362 156.628 22.7362C155.431 22.7362 154.502 23.2679 153.97 24.1997C153.571 23.2679 152.639 22.7362 151.443 22.7362C150.246 22.7362 149.449 23.2679 148.918 24.0656L148.785 22.8691H147.057V31.7778H149.184V26.9905C149.184 25.9269 149.716 24.5974 150.912 24.5974C151.976 24.5974 152.243 25.2622 152.243 26.3258V31.7778H154.37V26.9905C154.37 25.9269 154.903 24.5974 156.098 24.5974C157.162 24.5974 157.429 25.2622 157.429 26.3258V31.7778L159.555 31.7789ZM168.862 27.3916C168.862 26.328 168.73 25.2633 168.064 24.3327C167.267 23.2691 166.204 22.7373 164.874 22.7373C163.677 22.7373 162.745 23.1361 162.081 23.8009C161.284 24.7315 160.751 25.928 160.751 27.3916C160.751 28.854 161.284 30.0506 162.081 30.9823C162.746 31.6471 163.677 32.0448 164.874 32.0448C165.936 32.0448 167.134 31.6459 167.799 30.8483C168.198 30.4494 168.464 29.7847 168.597 29.2517H166.601C166.469 29.5176 166.335 29.7847 166.202 30.0506C165.936 30.3153 165.538 30.4494 164.873 30.4494C164.34 30.4494 163.809 30.1835 163.543 29.9165C163.145 29.5176 162.876 28.8529 162.876 28.1882H168.861C168.862 27.7893 168.862 27.3916 168.862 27.3916ZM166.734 26.461H162.878C162.878 25.928 163.012 25.5303 163.276 25.1315C163.543 24.7326 164.073 24.4667 164.739 24.4667C165.405 24.4667 165.802 24.7315 166.069 24.9974C166.469 25.2633 166.734 25.7962 166.734 26.461ZM177.77 31.7789V25.7951C177.77 23.9338 176.708 22.6032 174.711 22.6032C173.649 22.6032 172.584 23.0021 172.052 23.9338L171.92 22.7373H170.192V31.6459H172.32V28.0552C172.32 27.2575 172.32 26.3269 172.585 25.6621C172.852 24.9963 173.383 24.5986 174.182 24.5986C175.244 24.5986 175.644 25.2633 175.644 26.3269V31.7789H177.77ZM184.551 31.6459V29.9176C184.019 30.0506 183.622 30.0506 183.222 30.0506C182.557 30.0506 182.291 29.7847 182.291 29.1199V24.8656H184.551V23.1373H182.291V20.3442L180.164 20.876V23.1373H178.569V24.8656H180.164V29.3858C180.164 31.1153 181.095 32.1789 182.822 32.1789C183.354 31.913 184.019 31.7789 184.551 31.6459ZM197.317 31.7789V19.4136H195.188V23.535C194.79 23.1361 193.992 22.7373 192.928 22.7373C191.997 22.7373 191.332 23.0032 190.8 23.402C189.738 24.3327 189.205 25.6633 189.205 27.3916C189.205 29.1199 189.738 30.4505 190.8 31.2471C191.332 31.6459 192.131 32.0448 192.928 32.0448C193.859 32.0448 194.923 31.6459 195.454 30.8483L195.587 31.7789H197.317ZM195.188 27.2587C195.188 28.5881 194.79 30.1846 193.193 30.1846C192.528 30.1846 192.131 29.9187 191.732 29.5188C191.332 28.987 191.199 28.0563 191.199 27.3916C191.199 26.5928 191.331 25.7962 191.732 25.2633C191.995 24.8645 192.528 24.5986 193.193 24.5986C194.923 24.4667 195.188 26.061 195.188 27.2587ZM206.624 27.3916C206.624 26.328 206.492 25.2633 205.827 24.3327C205.029 23.2691 203.831 22.7373 202.635 22.7373C201.438 22.7373 200.508 23.1361 199.843 23.8009C199.046 24.7315 198.513 25.928 198.513 27.3916C198.513 28.854 199.046 30.0506 199.843 30.9823C200.508 31.6471 201.438 32.0448 202.635 32.0448C203.699 32.0448 204.896 31.6459 205.561 30.8483C205.96 30.4494 206.225 29.7847 206.358 29.2517H204.364C204.231 29.5176 204.098 29.7847 203.964 30.0506C203.701 30.3153 203.299 30.4494 202.635 30.4494C202.103 30.4494 201.572 30.1835 201.305 29.9165C200.906 29.5176 200.639 28.8529 200.639 28.1882H206.624C206.624 27.7893 206.624 27.3916 206.624 27.3916ZM204.496 26.461H200.639C200.639 25.928 200.773 25.5303 201.039 25.1315C201.304 24.7326 201.836 24.4667 202.502 24.4667C203.166 24.4667 203.565 24.7315 203.831 24.9974C204.231 25.2633 204.496 25.7962 204.496 26.461Z" fill="black"/>
</svg>
