<svg width="81" height="80" viewBox="0 0 81 80" fill="none" xmlns="http://www.w3.org/2000/svg">
<path d="M77.284 54.0098C78.1749 54.0098 79.1772 53.8984 80.0681 53.787V34.1876H73.3864V48.219C73.3864 52.7848 74.166 54.0098 77.284 54.0098ZM57.4619 45.2123V44.7668C47.6622 44.7668 45.5464 47.8849 45.5464 50.3349C45.5464 52.6734 47.2168 54.2325 49.7781 54.2325C54.4552 54.2325 57.4619 49.7781 57.4619 45.2123ZM61.5823 57.0165H57.6846C57.6846 55.012 57.6846 53.0075 57.9074 51.5598H57.796C56.571 54.9006 53.2302 57.5733 48.7758 57.5733C44.6555 57.5733 41.6487 55.3461 41.6487 51.2257C41.6487 45.7691 47.3281 41.9828 57.4619 41.9828V39.867C57.4619 35.9694 56.0142 33.7422 51.5598 33.7422C48.9985 33.7422 45.8804 34.5217 43.6532 35.9694L43.2078 32.5172C45.6577 31.4036 48.6645 30.5127 52.1166 30.5127C59.2437 30.5127 61.3595 34.0763 61.3595 38.9761V49.2213C61.4709 51.7825 61.4709 54.6779 61.5823 57.0165ZM37.7511 55.5688C35.0785 56.6824 31.7377 57.4619 27.9514 57.4619C17.0381 57.4619 12.0269 50.6689 12.0269 40.2011C12.0269 29.6218 17.1495 21.4925 29.1764 21.4925C31.9604 21.4925 34.6331 21.938 37.3057 22.4948L36.8603 26.1697C33.9649 25.2788 31.2922 24.8334 28.3969 24.8334C19.8221 24.8334 16.2586 31.515 16.2586 39.5329C16.2586 48.5531 20.2676 53.787 28.9537 53.787C31.7377 53.787 35.0785 53.0075 37.3057 51.8939L37.7511 55.5688ZM80.0681 79.9567V57.1278C78.8431 57.3506 77.5068 57.4619 76.1704 57.4619C70.9365 57.4619 69.3775 55.2347 69.3775 49.7781V34.1876H63.6981V31.0695H69.3775V22.3834L73.2751 21.2698V31.0695H79.9567V0H0V22.7175C0.890883 21.938 2.00449 21.4925 3.34081 21.4925C6.12482 21.4925 8.24066 23.497 8.24066 26.1697C8.24066 28.731 6.01346 30.8468 3.34081 30.8468C2.11585 30.8468 0.890883 30.4014 0 29.6218V33.2967H8.01794V57.0165H0V79.9567H80.0681Z" fill="white"/>
</svg>
