<svg version="1.1" id="Слой_1" xmlns="http://www.w3.org/2000/svg" xmlns:xlink="http://www.w3.org/1999/xlink" x="0" y="0" width="66.387" height="33.994" viewBox="0 0 66.387 33.994" xml:space="preserve"><g><defs><path id="SVGID_1_" d="M0 0h66.387v33.994H0z"/></defs><clipPath id="SVGID_2_"><use xlink:href="#SVGID_1_" overflow="visible"/></clipPath><path clip-path="url(#SVGID_2_)" d="M12.601 25.376c.693.648 1.906.91 3.941.91h14.766v-5.674H16.412c-1.905 0-3.031.26-3.681.822-.519.52-.736 1.17-.736 2.035 0 .825.172 1.474.606 1.907M13.9 10.479c0 .823.26 1.517.693 1.992.607.563 1.732.78 3.205.78h13.51V7.709H18.101c-1.646 0-2.772.216-3.378.778-.563.478-.823 1.169-.823 1.992M1.949 30.529C.65 29.013 0 26.718 0 24.38c0-1.992.52-3.898 1.602-5.154 1.3-1.688 3.595-2.901 6.02-3.204-1.646-.217-3.205-1.083-4.114-2.209-1.126-1.342-1.646-3.161-1.646-5.369 0-2.209.65-4.156 2.122-5.629C5.63 1.127 8.617.001 13.294.001h29.36v33.993H12.471c-4.806 0-8.53-1.039-10.522-3.465m54.955-2.772c-5.24 0-9.483-4.113-9.483-9.354 0-5.326 4.243-9.396 9.483-9.396 5.195 0 9.482 4.07 9.482 9.396.001 5.241-4.286 9.354-9.482 9.354"/></g></svg>