<svg width="282" height="80" viewBox="0 0 282 80" fill="none" xmlns="http://www.w3.org/2000/svg">
<path d="M23.4921 9.57916V0.0286193C12.5145 -0.410486 6.9159 4.20012 6.9159 14.08V15.9462V33.8397H0V42.512H7.02568V78.0796H15.698V42.512H22.7237V33.8397H15.698V21.3252C15.5882 14.08 14.9296 9.57916 23.4921 9.57916ZM42.3736 42.512V33.8397C42.3736 33.8397 36.7751 33.5104 33.372 36.8037V33.8397H24.6997V78.0796H33.372V51.2941C33.372 48.6595 33.8111 43.1707 42.3736 42.512ZM44.4594 31.8637H53.1317V2.33392H44.4594V31.8637ZM44.4594 78.1893H53.1317V33.9495H44.4594V78.1893ZM70.8057 42.512H77.8314V33.8397H70.8057V2.33392H62.1334V33.8397H55.1077V42.512H62.1334V78.0796H70.8057V42.512ZM88.9188 69.517L108.02 42.0729V33.8397H79.8074V42.512H97.2618L77.7216 70.7245V78.1893H109.118V69.517H88.9188ZM109.118 59.6371H130.414V50.9648H109.118V59.6371ZM149.515 54.1483L165.104 33.8397H154.126L143.258 48.5497V2.33392H134.586V78.0796H143.258V60.5154L157.529 78.1893H168.177L149.515 54.1483ZM197.597 56.0145C197.597 64.138 191.45 70.7245 183.875 70.7245C176.301 70.7245 170.153 64.138 170.153 56.0145C170.153 47.8911 176.301 41.3045 183.875 41.3045C191.45 41.3045 197.597 47.8911 197.597 56.0145ZM206.489 56.0145C206.489 43.1707 196.39 32.6322 183.875 32.6322C171.361 32.6322 161.261 43.0609 161.261 56.0145C161.261 68.8583 171.361 79.3969 183.875 79.3969C196.39 79.3969 206.489 68.9681 206.489 56.0145ZM208.575 78.1893H217.247V2.4437H208.575V78.1893ZM255.669 56.0145C255.669 64.138 249.521 70.7245 241.947 70.7245C234.372 70.7245 228.225 64.138 228.225 56.0145C228.225 47.8911 234.372 41.3045 241.947 41.3045C249.521 41.3045 255.669 47.8911 255.669 56.0145ZM255.12 33.9495V37.133C251.388 34.3886 246.887 32.7419 241.947 32.7419C229.432 32.7419 219.333 43.1707 219.333 56.1243C219.333 68.9681 229.432 79.5066 241.947 79.5066C246.887 79.5066 251.388 77.86 255.12 75.1156V78.2991H263.792V33.9495H255.12ZM273.233 10.6769H271.038V7.60318H273.233C274.221 7.60318 274.88 8.15206 274.88 9.14005C274.88 10.128 274.111 10.6769 273.233 10.6769ZM276.636 16.056L274.441 11.7747C275.538 11.4454 276.417 10.5671 276.417 9.24982C276.417 7.60318 275.209 6.39564 273.453 6.39564H269.72V16.056H271.147V11.9942H273.014L275.099 16.056H276.636ZM280.039 11.2258C280.039 15.3973 276.636 18.6906 272.575 18.6906C268.403 18.6906 265.11 15.2875 265.11 11.2258C265.11 7.0543 268.513 3.76101 272.575 3.76101C276.746 3.76101 280.039 7.0543 280.039 11.2258ZM281.357 11.2258C281.357 6.39564 277.405 2.4437 272.575 2.4437C267.744 2.4437 263.792 6.39564 263.792 11.2258C263.792 16.056 267.744 20.0079 272.575 20.0079C277.405 20.0079 281.357 16.056 281.357 11.2258Z" fill="white"/>
</svg>
