<svg width="864" height="80" viewBox="0 0 864 80" fill="none" xmlns="http://www.w3.org/2000/svg">
<path d="M645.886 7.09912H644.09V25.7628H645.886V7.09912Z" fill="white"/>
<path d="M649.146 12.2802H650.817V14.602H650.864C651.476 12.9875 653.288 11.8833 655.216 11.8833C659.032 11.8833 660.202 13.8738 660.202 17.0879V25.7632H658.531V17.3475C658.531 15.0257 657.77 13.2799 655.078 13.2799C652.449 13.2799 650.864 15.2615 650.817 17.8966V25.7632H649.146V12.2802Z" fill="white"/>
<path d="M671.157 16.2263C671.077 14.194 669.489 13.2778 667.6 13.2778C666.117 13.2778 664.38 13.8508 664.38 15.6056C664.38 17.0649 666.069 17.5871 667.197 17.8766L669.414 18.372C671.315 18.6614 673.291 19.7507 673.291 22.1023C673.291 25.0359 670.366 26.1609 667.833 26.1609C664.672 26.1609 662.506 24.6986 662.24 21.404H663.899C664.037 23.6303 665.702 24.7732 667.91 24.7732C669.465 24.7732 671.629 24.0988 671.629 22.2127C671.629 20.652 670.158 20.1208 668.653 19.7537L666.514 19.2852C664.353 18.7122 662.721 17.978 662.721 15.6802C662.721 12.9376 665.439 11.8901 667.836 11.8901C670.551 11.8901 672.712 13.2987 672.816 16.2293L671.157 16.2263Z" fill="white"/>
<path d="M678.001 12.2806H680.77V13.6712H678.001V22.7584C678.001 23.8297 678.156 24.4564 679.343 24.537C679.818 24.537 680.289 24.5101 680.77 24.4594V25.865C680.272 25.865 679.794 25.9247 679.296 25.9247C677.075 25.9247 676.314 25.1935 676.341 22.8926V13.6742H673.966V12.2806H676.341V8.23389H678.004L678.001 12.2806Z" fill="white"/>
<path d="M682.871 25.7636H684.53V12.2807H682.871V25.7636ZM682.871 9.74405H684.53V7.10596H682.871V9.74405Z" fill="white"/>
<path d="M690.043 12.2801H692.806V13.6708H690.043V22.7579C690.043 23.8292 690.201 24.4559 691.386 24.5365C691.86 24.5365 692.332 24.5096 692.806 24.4589V25.8645C692.305 25.8645 691.83 25.9242 691.332 25.9242C689.115 25.9242 688.354 25.193 688.377 22.8922V13.6737H686.005V12.2801H688.377V8.2334H690.046V12.2801H690.043Z" fill="white"/>
<path d="M705.91 25.7627H704.373V23.3306H704.325C703.454 25.139 701.652 26.1567 699.631 26.1567C696.208 26.1567 694.862 24.1721 694.862 21.0357V12.2828H696.522V21.0595C696.608 23.4887 697.524 24.766 700.165 24.766C703.009 24.766 704.248 22.101 704.248 19.3645V12.2798H705.91V25.7627Z" fill="white"/>
<path d="M711.353 12.2801H714.116V13.6708H711.353V22.7579C711.353 23.8292 711.511 24.4559 712.693 24.5365C713.165 24.5365 713.648 24.5096 714.116 24.4589V25.8645C713.621 25.8645 713.147 25.9242 712.648 25.9242C710.434 25.9242 709.664 25.193 709.697 22.8922V13.6737H707.321V12.2801H709.697V8.2334H711.356L711.353 12.2801Z" fill="white"/>
<path d="M737.284 12.7514C736.654 9.87459 734.246 8.22728 731.503 8.22728C726.522 8.22728 724.422 12.3605 724.422 16.434C724.422 20.5106 726.522 24.6408 731.503 24.6408C734.989 24.6408 737.2 21.9728 737.543 18.6543H739.334C738.842 23.2322 735.908 26.1598 731.503 26.1598C725.576 26.1598 722.625 21.5342 722.625 16.437C722.625 11.3399 725.573 6.72021 731.503 6.72021C735.06 6.72021 738.597 8.83308 739.071 12.7514H737.284Z" fill="white"/>
<path d="M750.139 18.3915H750.077C749.868 18.7824 749.14 18.9197 748.683 18.9943C745.869 19.4927 742.359 19.4658 742.359 22.1069C742.359 23.7542 743.837 24.7659 745.391 24.7659C747.919 24.7659 750.163 23.1753 750.139 20.5342V18.3915ZM741.285 16.4039C741.443 13.2466 743.684 11.8857 746.785 11.8857C749.187 11.8857 751.799 12.6139 751.799 16.2249V23.3842C751.799 24.0109 752.118 24.3809 752.768 24.3809C752.959 24.3809 753.168 24.3242 753.309 24.2645V25.6582C752.933 25.7358 752.664 25.7626 752.213 25.7626C750.536 25.7626 750.271 24.8226 750.271 23.408H750.22C749.059 25.1628 747.868 26.1566 745.263 26.1566C742.759 26.1566 740.706 24.927 740.706 22.2084C740.706 18.4153 744.421 18.299 748.006 17.8662C749.378 17.714 750.142 17.535 750.142 16.0428C750.142 13.8196 748.534 13.2764 746.591 13.2764C744.532 13.2764 743.001 14.2165 742.941 16.4069H741.285V16.4039Z" fill="white"/>
<path d="M757.433 12.2801H760.2V13.6708H757.433V22.7579C757.433 23.8292 757.585 24.4559 758.773 24.5365C759.251 24.5365 759.722 24.5096 760.2 24.4589V25.8645C759.698 25.8645 759.224 25.9242 758.725 25.9242C756.511 25.9242 755.744 25.193 755.771 22.8922V13.6737H753.398V12.2801H755.771V8.2334H757.436V12.2801H757.433Z" fill="white"/>
<path d="M770.979 18.3915H770.928C770.713 18.7824 769.976 18.9197 769.526 18.9943C766.706 19.4927 763.205 19.4658 763.205 22.1069C763.205 23.7542 764.67 24.7659 766.237 24.7659C768.765 24.7659 771.003 23.1753 770.979 20.5342V18.3915ZM762.116 16.4039C762.283 13.2466 764.518 11.8857 767.631 11.8857C770.03 11.8857 772.638 12.6139 772.638 16.2249V23.3842C772.638 24.0109 772.958 24.3809 773.611 24.3809C773.796 24.3809 774.014 24.3242 774.148 24.2645V25.6582C773.775 25.7358 773.51 25.7626 773.068 25.7626C771.373 25.7626 771.113 24.8226 771.113 23.408H771.057C769.896 25.1628 768.711 26.1566 766.1 26.1566C763.602 26.1566 761.552 24.927 761.552 22.2084C761.552 18.4153 765.255 18.299 768.845 17.8662C770.221 17.714 770.982 17.535 770.982 16.0428C770.982 13.8196 769.379 13.2764 767.425 13.2764C765.372 13.2764 763.835 14.2165 763.787 16.4069H762.116V16.4039Z" fill="white"/>
<path d="M777.323 7.09912H775.658V25.7628H777.323V7.09912Z" fill="white"/>
<path d="M782.194 6.71484H784.253L787.019 10.4004H785.679L782.194 6.71484ZM788.89 18.3923H788.84C788.622 18.7832 787.893 18.9205 787.44 18.9951C784.623 19.4935 781.116 19.4667 781.116 22.1077C781.116 23.7551 782.581 24.7667 784.145 24.7667C786.676 24.7667 788.914 23.1761 788.89 20.535V18.3923ZM780.033 16.4108C780.197 13.2474 782.441 11.8866 785.545 11.8866C787.947 11.8866 790.555 12.6148 790.555 16.2257V23.385C790.555 24.0117 790.869 24.3817 791.534 24.3817C791.719 24.3817 791.928 24.3251 792.063 24.2713V25.659C791.69 25.7366 791.424 25.7635 790.982 25.7635C789.287 25.7635 789.028 24.8264 789.028 23.4119H788.983C787.816 25.1636 786.625 26.1544 784.023 26.1544C781.516 26.1544 779.463 24.9249 779.463 22.2062C779.463 18.4132 783.172 18.2908 786.762 17.8641C788.132 17.7119 788.896 17.5328 788.896 16.0407C788.896 13.8174 787.285 13.2743 785.339 13.2743C783.286 13.2743 781.758 14.2143 781.698 16.4078L780.033 16.4108Z" fill="white"/>
<path d="M806.092 24.7694C809.631 24.7694 810.869 21.818 810.869 19.0217C810.869 16.2255 809.631 13.277 806.092 13.277C802.925 13.277 801.636 16.2255 801.636 19.0217C801.636 21.818 802.928 24.7694 806.092 24.7694ZM812.526 25.7632H811.001V23.2027H810.944C810.225 24.9485 808.07 26.1571 806.089 26.1571C801.949 26.1571 799.968 22.8416 799.968 19.0188C799.968 15.2019 801.949 11.8863 806.089 11.8863C808.118 11.8863 810.099 12.907 810.807 14.8378H810.866V7.10254H812.526V25.7632Z" fill="white"/>
<path d="M825.14 18.0787C825.066 15.5958 823.517 13.274 820.819 13.274C818.107 13.274 816.605 15.6227 816.343 18.0787H825.14ZM816.343 19.4664C816.37 21.8658 817.635 24.7665 820.819 24.7665C823.242 24.7665 824.571 23.3549 825.096 21.3196H826.755C826.048 24.3726 824.254 26.1542 820.822 26.1542C816.504 26.1542 814.681 22.8565 814.681 19.0158C814.681 15.4615 816.501 11.8804 820.822 11.8804C825.2 11.8804 826.94 15.6674 826.809 19.4634L816.343 19.4664Z" fill="white"/>
<path d="M837.42 7.09912H835.758V25.7628H837.42V7.09912Z" fill="white"/>
<path d="M850.068 18.0787C849.984 15.5958 848.435 13.274 845.743 13.274C843.028 13.274 841.521 15.6227 841.267 18.0787H850.068ZM841.267 19.4664C841.288 21.8658 842.556 24.7665 845.743 24.7665C848.167 24.7665 849.492 23.3549 850.014 21.3196H851.679C850.966 24.3726 849.169 26.1542 845.746 26.1542C841.425 26.1542 839.599 22.8565 839.599 19.0158C839.599 15.4615 841.422 11.8804 845.746 11.8804C850.124 11.8804 851.861 15.6674 851.73 19.4634L841.267 19.4664Z" fill="white"/>
<path d="M861.787 16.2253C861.706 14.193 860.128 13.2768 858.239 13.2768C856.752 13.2768 855.019 13.8498 855.019 15.6046C855.019 17.0639 856.705 17.5861 857.836 17.8756L860.05 18.371C861.942 18.6605 863.927 19.7497 863.927 22.1013C863.927 25.0349 860.996 26.16 858.471 26.16C855.305 26.16 853.147 24.6977 852.879 21.403H854.538C854.675 23.6293 856.335 24.7723 858.549 24.7723C860.104 24.7723 862.27 24.0978 862.27 22.2118C862.27 20.651 860.787 20.1198 859.28 19.7527L857.152 19.2842C854.986 18.7112 853.356 17.9771 853.356 15.6792C853.356 12.9366 856.069 11.8892 858.474 11.8892C861.193 11.8892 863.348 13.2977 863.449 16.2283L861.787 16.2253Z" fill="white"/>
<path d="M643.888 32.6538H657.962V36.1036H648.021V40.0996H657.144V43.2928H648.021V47.8557H658.167V51.3055H643.888V32.6538Z" fill="white"/>
<path d="M660.244 37.7987H663.775V39.637H663.825C664.801 38.2463 666.231 37.4316 667.991 37.4316C669.701 37.4316 671.238 38.0643 671.975 39.6788C672.766 38.506 674.193 37.4316 676.085 37.4316C678.988 37.4316 681.065 38.7686 681.065 42.2662V51.3145H677.32V43.6509C677.32 41.8514 677.168 40.3592 675.034 40.3592C672.918 40.3592 672.524 42.0841 672.524 43.7792V51.3145H668.779V43.7314C668.779 42.1647 668.89 40.3592 666.517 40.3592C665.777 40.3592 663.98 40.8337 663.98 43.4688V51.3145H660.241L660.244 37.7987Z" fill="white"/>
<path d="M693.71 44.594C693.71 42.4542 692.832 40.2339 690.433 40.2339C687.989 40.2339 687.198 42.4005 687.198 44.594C687.198 46.7844 688.04 48.8794 690.463 48.8794C692.913 48.8794 693.71 46.7874 693.71 44.594ZM683.584 37.8047H687.138V39.5267H687.198C688.087 38.0852 689.57 37.4287 691.254 37.4287C695.53 37.4287 697.455 40.8487 697.455 44.6894C697.455 48.3064 695.449 51.6727 691.463 51.6727C689.827 51.6727 688.278 50.9743 687.38 49.6344H687.326V56.0685H683.581L683.584 37.8047Z" fill="white"/>
<path d="M699.26 37.7987H702.817V40.3055H702.871C703.557 38.6074 705.401 37.4316 707.219 37.4316C707.49 37.4316 707.798 37.4913 708.034 37.5629V41.0128C707.69 40.9382 707.135 40.8845 706.691 40.8845C703.948 40.8845 702.999 42.8421 702.999 45.2176V51.3145H699.26V37.7987Z" fill="white"/>
<path d="M718.258 43.1049C717.915 41.2218 717.091 40.234 715.286 40.234C712.907 40.234 712.221 42.0604 712.167 43.1049H718.258ZM712.167 45.4565C712.277 47.8081 713.441 48.8764 715.512 48.8764C717.02 48.8764 718.24 47.9633 718.464 47.1247H721.765C720.705 50.3149 718.464 51.6757 715.381 51.6757C711.09 51.6757 708.425 48.7511 708.425 44.5642C708.425 40.5145 711.239 37.4258 715.381 37.4258C720.019 37.4258 722.263 41.2964 721.997 45.4505H712.167V45.4565Z" fill="white"/>
<path d="M726.683 46.9216C726.716 48.545 728.089 49.1896 729.563 49.1896C730.646 49.1896 732.01 48.7748 732.01 47.4647C732.01 46.3516 730.461 45.9577 727.772 45.3877C725.606 44.9072 723.445 44.1552 723.445 41.7737C723.445 38.3239 726.45 37.4346 729.372 37.4346C732.353 37.4346 735.09 38.4283 735.379 41.7468H731.828C731.726 40.3114 730.622 39.9205 729.264 39.9205C728.429 39.9205 727.193 40.0786 727.193 41.1709C727.193 42.5078 729.3 42.6899 731.431 43.1883C733.624 43.6807 735.755 44.4685 735.755 46.9813C735.755 50.5296 732.652 51.6785 729.539 51.6785C726.37 51.6785 723.287 50.4967 723.135 46.9246L726.683 46.9216Z" fill="white"/>
<path d="M746.69 43.1049C746.344 41.2218 745.526 40.234 743.714 40.234C741.336 40.234 740.65 42.0604 740.599 43.1049H746.69ZM740.599 45.4565C740.709 47.8081 741.861 48.8764 743.95 48.8764C745.448 48.8764 746.663 47.9633 746.899 47.1247H750.193C749.128 50.3149 746.899 51.6757 743.807 51.6757C739.515 51.6757 736.854 48.7511 736.854 44.5642C736.854 40.5145 739.671 37.4258 743.807 37.4258C748.45 37.4258 750.692 41.2964 750.429 45.4505H740.599V45.4565Z" fill="white"/>
<path d="M755.117 46.9216C755.144 48.545 756.513 49.1896 757.991 49.1896C759.068 49.1896 760.432 48.7748 760.432 47.4647C760.432 46.3516 758.877 45.9577 756.194 45.3877C754.031 44.9072 751.873 44.1552 751.873 41.7737C751.873 38.3239 754.875 37.4346 757.803 37.4346C760.778 37.4346 763.518 38.4283 763.807 41.7468H760.25C760.151 40.3114 759.044 39.9205 757.695 39.9205C756.854 39.9205 755.618 40.0786 755.618 41.1709C755.618 42.5078 757.728 42.6899 759.859 43.1883C762.046 43.6807 764.18 44.4685 764.18 46.9813C764.18 50.5296 761.076 51.6785 757.961 51.6785C754.801 51.6785 751.715 50.4967 751.557 46.9246L755.117 46.9216Z" fill="white"/>
<path d="M656.433 64.4665C656.167 62.6103 654.38 61.1928 652.315 61.1928C648.602 61.1928 647.209 64.3322 647.209 67.6C647.209 70.7096 648.602 73.8401 652.315 73.8401C654.854 73.8401 656.272 72.1212 656.588 69.6711H660.599C660.169 74.3236 656.937 77.2989 652.318 77.2989C646.498 77.2989 643.066 72.9866 643.066 67.603C643.066 62.0642 646.495 57.7549 652.318 57.7549C656.463 57.7549 659.94 60.1542 660.441 64.4665H656.433Z" fill="white"/>
<path d="M675.482 76.854H671.922V74.9739H671.844C670.904 76.4869 669.26 77.227 667.678 77.227C663.697 77.227 662.7 74.9978 662.7 71.6494V63.3472H666.44V70.978C666.44 73.1953 667.105 74.2935 668.842 74.2935C670.877 74.2935 671.746 73.1744 671.746 70.4259V63.3472H675.488V76.854H675.482Z" fill="white"/>
<path d="M681.853 58.1992H678.102V76.8539H681.853V58.1992Z" fill="white"/>
<path d="M689.224 63.3441H691.97V65.821H689.224V72.5178C689.224 73.7712 689.538 74.0845 690.806 74.0845C691.203 74.0845 691.579 74.0577 691.97 73.9801V76.8718C691.331 76.9822 690.516 77.0121 689.782 77.0121C687.487 77.0121 685.488 76.4839 685.488 73.7921V65.821H683.214V63.3441H685.488V59.2944H689.227V63.3441H689.224Z" fill="white"/>
<path d="M706.223 76.8535H702.663V74.9734H702.594C701.642 76.4864 700.001 77.2265 698.428 77.2265C694.447 77.2265 693.444 74.9973 693.444 71.6489V63.3467H697.184V70.9775C697.184 73.1948 697.849 74.293 699.583 74.293C701.621 74.293 702.487 73.1739 702.487 70.4254V63.3467H706.229V76.8535H706.223Z" fill="white"/>
<path d="M708.741 63.3437H712.304V65.8505H712.358C713.042 64.1554 714.886 62.9736 716.709 62.9736C716.966 62.9736 717.282 63.0273 717.521 63.1109V66.5577C717.175 66.4801 716.62 66.4235 716.178 66.4235C713.433 66.4235 712.486 68.3901 712.486 70.7596V76.8505H708.741V63.3437Z" fill="white"/>
<path d="M727.166 70.2403C726.536 70.7954 725.214 70.8223 724.056 71.0252C722.892 71.258 721.842 71.6549 721.842 73.0097C721.842 74.3974 722.913 74.7436 724.134 74.7436C727.061 74.7436 727.169 72.4338 727.169 71.631V70.2403H727.166ZM718.523 67.5038C718.729 64.0271 721.86 62.9736 724.925 62.9736C727.643 62.9736 730.908 63.5735 730.908 66.8174V73.8424C730.908 75.0808 731.042 76.3104 731.386 76.8535H727.593C727.452 76.4417 727.351 75.991 727.327 75.5464C726.136 76.7699 724.402 77.2235 722.74 77.2235C720.153 77.2235 718.097 75.9343 718.097 73.1709C718.097 70.112 720.415 69.3779 722.74 69.0645C725.032 68.7333 727.166 68.8049 727.166 67.2829C727.166 65.6923 726.062 65.4595 724.743 65.4595C723.316 65.4595 722.4 66.0325 722.266 67.5038H718.523Z" fill="white"/>
<path d="M737.337 58.1992H733.592V76.8539H737.337V58.1992Z" fill="white"/>
<path d="M742.87 72.4641C742.888 74.0785 744.26 74.744 745.732 74.744C746.818 74.744 748.194 74.3233 748.194 73.0191C748.194 71.8911 746.633 71.4912 743.938 70.9212C741.783 70.4556 739.623 69.6946 739.623 67.3251C739.623 63.8693 742.631 62.9771 745.547 62.9771C748.531 62.9771 751.273 63.9708 751.56 67.2893H748.006C747.901 65.8569 746.794 65.463 745.448 65.463C744.61 65.463 743.371 65.6241 743.371 66.7193C743.371 68.0473 745.481 68.2324 747.618 68.7307C749.796 69.2231 751.936 70.014 751.936 72.5237C751.936 76.0691 748.826 77.224 745.717 77.224C742.547 77.224 739.465 76.0422 739.312 72.467H742.87V72.4641Z" fill="white"/>
<path d="M517.792 0.00585938C513.874 0.00585938 510.066 0.519152 506.455 1.48307V21.5583C509.254 18.4964 513.104 16.7029 517.792 16.7029C526.145 16.7029 532.144 23.6712 532.582 32.0898H506.455V45.8831H557.462C558.641 20.3347 545.021 0.00585938 517.792 0.00585938Z" fill="white"/>
<path d="M518.673 63.0102C513.441 63.0102 509.329 61.333 506.461 58.3666V78.421C510.17 79.2625 514.16 79.7102 518.377 79.7102C535.361 79.7102 551.616 72.157 556.149 54.7407H532.872C530.532 60.2467 524.677 63.0102 518.673 63.0102Z" fill="white"/>
<path d="M609.523 28.7147C608.449 21.0541 602.447 17.0163 594.073 17.0163C581.205 17.0163 576.275 28.2909 576.275 39.5685C576.275 50.8341 581.202 62.1117 594.073 62.1117C603.408 62.1117 608.777 56.7878 609.523 48.0707H629.461C628.404 67.6386 613.922 79.1251 594.506 79.1251C571.339 79.1251 556.322 61.5746 556.322 39.5685C556.322 17.5446 571.339 0 594.506 0C611.021 0 628.936 10.4211 629.461 28.7177H609.523V28.7147Z" fill="white"/>
<path d="M426.507 22.6533H433.263V77.5372H426.507V22.6533ZM426.507 1.59033H433.263V12.3337H426.507V1.59033Z" fill="white"/>
<path d="M485.277 39.8814C483.459 31.6925 478.41 26.6969 469.618 26.6969C456.643 26.6969 450.206 38.3893 450.206 50.0846C450.206 61.786 456.643 73.4843 469.618 73.4843C477.989 73.4843 484.85 67.0025 485.704 57.8527H492.466C490.646 71.0462 481.955 79.1306 469.621 79.1306C452.677 79.1306 443.449 65.8297 443.449 50.0876C443.449 34.3545 452.677 21.0596 469.621 21.0596C481.415 21.0596 490.538 27.3295 492.039 39.8814H485.277Z" fill="white"/>
<path d="M89.0871 70.4584C89.105 71.5954 88.8872 72.5922 88.4246 73.4248C87.9591 74.2663 87.1384 74.711 85.9477 74.7468C85.1986 74.7408 84.5868 74.523 84.1153 74.1052C83.6408 73.6874 83.2887 73.1681 83.0708 72.5175C82.844 71.867 82.7366 71.1985 82.7366 70.4823C82.7217 69.3482 82.9604 68.3664 83.4498 67.5457C83.9392 66.7251 84.7719 66.2894 85.9506 66.2446C87.1205 66.2894 87.9322 66.7221 88.4037 67.5457C88.8782 68.3664 89.105 69.3393 89.0871 70.4584ZM89.1378 77.1402H92.6026V58.7988H88.9558V65.4776H88.9051C88.4783 64.8181 87.9173 64.3257 87.2219 64.0004C86.5236 63.6722 85.7716 63.502 84.9748 63.502C83.6736 63.52 82.5903 63.8512 81.716 64.4928C80.8445 65.1344 80.191 65.973 79.7523 67.0086C79.3166 68.0531 79.0928 69.1722 79.0928 70.3868C79.0928 71.6312 79.3166 72.7861 79.7523 73.8605C80.188 74.9348 80.8445 75.8002 81.7309 76.4717C82.6172 77.1372 83.7214 77.4774 85.0583 77.5013C85.9089 77.5043 86.6878 77.3431 87.392 77.0089C88.0904 76.6806 88.6574 76.1584 89.0901 75.4541H89.1408V77.1402H89.1378Z" fill="white"/>
<path d="M98.3478 69.0736C98.3597 68.7125 98.4582 68.3186 98.6462 67.8888C98.8283 67.4472 99.1446 67.0711 99.5743 66.7548C100.013 66.4325 100.622 66.2594 101.383 66.2475C102.254 66.2475 102.92 66.4832 103.376 66.9667C103.821 67.4412 104.128 68.1485 104.284 69.0736H98.3478ZM107.93 71.3894C108.011 69.9957 107.838 68.7155 107.378 67.5277C106.925 66.34 106.205 65.3731 105.218 64.636C104.233 63.9018 102.988 63.5228 101.484 63.502C100.129 63.5139 98.9446 63.8243 97.933 64.433C96.9213 65.0418 96.1305 65.8715 95.5635 66.9309C95.0024 67.9754 94.7159 69.1721 94.71 70.512C94.7279 72.61 95.3337 74.2812 96.5244 75.5495C97.7211 76.8178 99.3714 77.4654 101.487 77.4952C102.997 77.5042 104.278 77.155 105.334 76.4388C106.393 75.7196 107.184 74.5915 107.701 73.0248H104.489C104.364 73.4605 104.033 73.8454 103.511 74.2006C102.988 74.5557 102.356 74.7288 101.616 74.7557C100.598 74.7646 99.8131 74.4871 99.261 73.935C98.7029 73.3918 98.3955 72.5383 98.3478 71.3894H107.93Z" fill="white"/>
<path d="M133.714 64.9585C133.541 63.535 133.081 62.3533 132.347 61.3744C131.607 60.3896 130.67 59.6495 129.539 59.1332C128.411 58.6259 127.166 58.3663 125.806 58.3633C123.905 58.3782 122.287 58.8079 120.944 59.6614C119.607 60.512 118.575 61.6579 117.867 63.1172C117.16 64.5646 116.796 66.2149 116.79 68.0443C116.793 69.8259 117.16 71.4344 117.867 72.8609C118.575 74.2934 119.607 75.4303 120.944 76.2779C122.287 77.1224 123.905 77.5552 125.806 77.5731C128.077 77.5492 129.933 76.8747 131.368 75.5378C132.798 74.2068 133.639 72.3834 133.872 70.0795H129.966C129.807 71.3061 129.39 72.2879 128.697 73.037C127.996 73.78 127.032 74.165 125.803 74.1829C124.594 74.165 123.627 73.8606 122.902 73.2697C122.171 72.6818 121.637 71.9268 121.305 70.9957C120.977 70.0646 120.813 69.0828 120.816 68.0443C120.813 66.958 120.974 65.9374 121.305 64.9854C121.637 64.0364 122.174 63.2635 122.902 62.6696C123.627 62.0817 124.594 61.7654 125.803 61.7504C126.832 61.7654 127.718 62.0787 128.462 62.6696C129.208 63.2664 129.661 64.0304 129.807 64.9615L133.714 64.9585Z" fill="white"/>
<path d="M148.695 63.8604H145.057V70.8227C145.06 72.1596 144.83 73.1295 144.385 73.7323C143.929 74.3382 143.207 74.6366 142.222 74.6217C141.386 74.6276 140.78 74.359 140.419 73.8129C140.055 73.2638 139.876 72.4521 139.888 71.3569V63.8604H136.244V72.0343C136.206 73.6935 136.528 75.0186 137.22 75.9974C137.907 76.9762 139.202 77.4746 141.1 77.4985C141.885 77.4985 142.637 77.3165 143.353 76.9524C144.084 76.5793 144.681 76.0332 145.155 75.2842H145.23V77.1374H148.695V63.8604Z" fill="white"/>
<path d="M155.198 58.8052H151.551V77.1436H155.198V58.8052Z" fill="white"/>
<path d="M162.718 59.873H159.072V63.86H156.86V66.2952H159.072V74.1379C159.11 75.4211 159.525 76.2776 160.325 76.7073C161.131 77.1281 162.107 77.3221 163.256 77.2833C163.626 77.2833 163.99 77.2773 164.363 77.2654C164.736 77.2475 165.079 77.2117 165.389 77.155V74.314C165.198 74.3557 165.007 74.3766 164.828 74.3915C164.646 74.4094 164.455 74.4124 164.264 74.4124C163.659 74.4274 163.247 74.3199 163.026 74.1021C162.808 73.8842 162.707 73.4694 162.716 72.8725V66.2922H165.389V63.8571H162.716L162.718 59.873Z" fill="white"/>
<path d="M179.594 63.8608H175.947V70.8232C175.956 72.1601 175.729 73.13 175.276 73.7328C174.825 74.3386 174.106 74.6371 173.124 74.6221C172.289 74.6281 171.683 74.3595 171.322 73.8134C170.955 73.2643 170.776 72.4526 170.784 71.3573V63.8608H167.147V72.0348C167.096 73.694 167.427 75.0191 168.111 75.9979C168.803 76.9767 170.095 77.4751 171.993 77.499C172.784 77.499 173.533 77.3169 174.252 76.9529C174.974 76.5798 175.58 76.0337 176.055 75.2847H176.126V77.1379H179.591L179.594 63.8608Z" fill="white"/>
<path d="M182.349 77.1376H185.995V71.1601C185.978 69.9545 186.243 68.9487 186.786 68.146C187.341 67.3402 188.269 66.9224 189.586 66.8926C189.809 66.8926 190.042 66.9045 190.275 66.9314C190.517 66.9493 190.725 66.9791 190.899 67.0149V63.6337C190.776 63.595 190.651 63.5651 190.508 63.5353C190.367 63.5084 190.23 63.5024 190.105 63.5024C189.189 63.5084 188.341 63.783 187.568 64.2843C186.786 64.8006 186.219 65.475 185.861 66.3256H185.813V63.8606H182.349V77.1376Z" fill="white"/>
<path d="M195.841 67.9369C195.906 67.2326 196.157 66.7074 196.575 66.4C197.002 66.0866 197.56 65.9255 198.252 65.9374C198.912 65.9106 199.47 66.018 199.917 66.2478C200.371 66.4776 200.601 66.967 200.622 67.728C200.58 68.4382 200.135 68.8709 199.3 69.044C198.464 69.2052 197.464 69.3604 196.3 69.4797C195.536 69.5663 194.814 69.7453 194.128 69.999C193.444 70.2497 192.886 70.6436 192.454 71.2017C192.018 71.7567 191.8 72.5267 191.785 73.5115C191.815 74.8723 192.251 75.875 193.101 76.5256C193.943 77.1762 195.017 77.4985 196.297 77.4955C197.127 77.4985 197.924 77.3731 198.709 77.1255C199.5 76.8688 200.18 76.4421 200.771 75.8542C200.789 76.069 200.819 76.2899 200.863 76.4988C200.908 76.7166 200.962 76.9315 201.033 77.1374H204.728C204.558 76.8479 204.444 76.4391 204.37 75.9079C204.301 75.3677 204.265 74.8007 204.265 74.1859V67.2714C204.245 66.2209 203.937 65.4271 203.34 64.878C202.743 64.3319 202.009 63.9588 201.126 63.7649C200.24 63.5739 199.338 63.4813 198.434 63.4993C197.425 63.4873 196.453 63.6276 195.533 63.8872C194.623 64.1618 193.85 64.6213 193.241 65.2689C192.633 65.9195 192.284 66.8118 192.197 67.9369H195.841ZM200.622 72.0015C200.637 72.2909 200.589 72.6729 200.49 73.1534C200.38 73.6249 200.117 74.0606 199.693 74.4396C199.282 74.8335 198.598 75.0365 197.67 75.0603C197.052 75.0782 196.533 74.9708 196.106 74.7231C195.671 74.4903 195.444 74.0367 195.423 73.3653C195.441 72.7207 195.665 72.2551 196.077 71.9776C196.506 71.6941 197.002 71.521 197.584 71.4165C198.172 71.33 198.733 71.2315 199.297 71.1539C199.852 71.0614 200.293 70.8973 200.619 70.6347V72.0015H200.622Z" fill="white"/>
<path d="M84.0708 36.498H86.9536C88.9262 36.5159 90.3049 37.068 91.1017 38.1423C91.8955 39.2167 92.2775 40.6909 92.2417 42.562C92.2328 43.9109 92.006 44.9853 91.5792 45.797C91.1465 46.5998 90.5884 47.1817 89.8961 47.5368C89.2067 47.8979 88.4606 48.068 87.6698 48.0621H84.0708V36.498ZM80.045 51.4462H87.9533C89.8155 51.4343 91.3703 51.0284 92.6028 50.2197C93.8353 49.4289 94.7515 48.3336 95.3633 46.9459C95.9721 45.5553 96.2735 43.9676 96.2735 42.18C96.2615 40.1478 95.8915 38.4616 95.1753 37.1247C94.4531 35.7758 93.4712 34.7671 92.2208 34.1046C90.9734 33.4451 89.5499 33.1108 87.9503 33.1108H80.042L80.045 51.4462Z" fill="white"/>
<path d="M101.698 43.3856C101.707 43.0275 101.812 42.6306 101.994 42.2009C102.179 41.7622 102.495 41.3832 102.931 41.0638C103.367 40.7415 103.966 40.5744 104.733 40.5595C105.605 40.5595 106.273 40.7982 106.721 41.2847C107.181 41.7532 107.479 42.4605 107.637 43.3856H101.698ZM111.278 45.7014C111.362 44.3137 111.185 43.0275 110.732 41.8368C110.275 40.652 109.556 39.6911 108.568 38.954C107.586 38.2139 106.336 37.8349 104.835 37.814C103.474 37.8259 102.298 38.1393 101.284 38.751C100.275 39.3539 99.4871 40.1835 98.9141 41.2399C98.3531 42.2934 98.0666 43.4811 98.0576 44.8211C98.0755 46.913 98.6813 48.5932 99.8721 49.8585C101.069 51.1238 102.719 51.7774 104.835 51.8072C106.342 51.8222 107.625 51.4641 108.688 50.7478C109.741 50.0376 110.532 48.9006 111.051 47.3308H107.84C107.715 47.7635 107.383 48.1604 106.861 48.5066C106.339 48.8558 105.712 49.0468 104.96 49.0677C103.949 49.0707 103.161 48.7961 102.609 48.247C102.054 47.6979 101.749 46.8533 101.695 45.7014H111.278Z" fill="white"/>
<path d="M120.132 49.0588C118.963 49.02 118.142 48.5932 117.653 47.7636C117.166 46.9429 116.927 45.9641 116.945 44.8509C116.939 44.1108 117.035 43.4215 117.232 42.7769C117.432 42.1233 117.76 41.6011 118.223 41.1952C118.688 40.7893 119.315 40.5715 120.112 40.5506C120.885 40.5715 121.502 40.7923 121.974 41.2012C122.442 41.6219 122.78 42.1502 122.988 42.8037C123.2 43.4513 123.299 44.1287 123.296 44.8539C123.317 45.967 123.09 46.9429 122.615 47.7666C122.138 48.5932 121.305 49.0229 120.132 49.0588ZM113.427 56.1255H117.071V49.8078H117.127C117.578 50.4673 118.151 50.9657 118.846 51.3029C119.551 51.6372 120.303 51.8013 121.111 51.8073C122.404 51.7894 123.481 51.4701 124.346 50.8195C125.206 50.1838 125.853 49.3423 126.292 48.3067C126.722 47.2682 126.931 46.1491 126.931 44.9554C126.937 43.6781 126.722 42.4963 126.301 41.422C125.865 40.3477 125.203 39.4822 124.313 38.8257C123.421 38.1721 122.281 37.8319 120.902 37.814C120.076 37.811 119.312 37.9781 118.637 38.3094C117.954 38.6466 117.39 39.1659 116.942 39.8672H116.895V38.1721H113.424L113.427 56.1255Z" fill="white"/>
<path d="M132.609 42.2542C132.678 41.5439 132.923 41.0276 133.346 40.7113C133.764 40.4009 134.328 40.2428 135.021 40.2487C135.683 40.2308 136.238 40.3263 136.689 40.5591C137.139 40.7919 137.372 41.2813 137.393 42.0453C137.348 42.7496 136.907 43.1882 136.071 43.3524C135.226 43.5225 134.23 43.6717 133.069 43.8C132.311 43.8866 131.577 44.0567 130.899 44.3073C130.216 44.561 129.658 44.9639 129.222 45.51C128.789 46.0681 128.572 46.835 128.56 47.8228C128.592 49.1836 129.022 50.1923 129.87 50.8369C130.717 51.4935 131.786 51.8158 133.069 51.8068C133.898 51.8158 134.698 51.6875 135.483 51.4398C136.271 51.1831 136.951 50.7564 137.545 50.1655C137.557 50.3803 137.587 50.6012 137.632 50.8131C137.683 51.0279 137.73 51.2458 137.802 51.4517H141.499C141.332 51.1652 141.213 50.7534 141.138 50.2162C141.07 49.688 141.031 49.115 141.037 48.4973V41.5857C141.016 40.5322 140.709 39.7384 140.112 39.1923C139.521 38.6462 138.778 38.2791 137.897 38.0851C137.008 37.8941 136.11 37.7986 135.203 37.8106C134.194 37.8046 133.227 37.9359 132.308 38.2015C131.389 38.4761 130.625 38.9327 130.007 39.5862C129.395 40.2368 129.052 41.1172 128.962 42.2512L132.609 42.2542ZM137.393 46.3128C137.405 46.6052 137.363 46.9872 137.262 47.4617C137.154 47.9392 136.889 48.3719 136.465 48.7629C136.044 49.1478 135.37 49.3508 134.436 49.3746C133.827 49.3896 133.305 49.2672 132.875 49.0374C132.442 48.7927 132.212 48.351 132.194 47.6826C132.212 47.026 132.433 46.5694 132.851 46.2889C133.266 46.0114 133.767 45.8293 134.352 45.7278C134.934 45.6383 135.501 45.5548 136.068 45.4652C136.623 45.3817 137.062 45.2116 137.39 44.949L137.393 46.3128Z" fill="white"/>
<path d="M143.849 51.4461H147.495V45.4686C147.478 44.2659 147.743 43.2572 148.292 42.4544C148.832 41.6517 149.769 41.2339 151.088 41.2011C151.318 41.2011 151.545 41.207 151.784 41.2399C152.023 41.2637 152.231 41.2906 152.399 41.3234V37.9452C152.282 37.9094 152.154 37.8676 152.014 37.8527C151.873 37.8229 151.736 37.8169 151.605 37.8169C150.698 37.8229 149.853 38.0914 149.074 38.5988C148.295 39.1121 147.731 39.7835 147.367 40.637H147.316V38.172H143.852L143.849 51.4461Z" fill="white"/>
<path d="M158.471 34.1938H154.825V38.1719H152.616V40.613H154.825V48.4468C154.86 49.7389 155.275 50.5895 156.075 51.0132C156.884 51.4459 157.857 51.6399 159.006 51.6011C159.376 51.6011 159.737 51.5892 160.107 51.5773C160.48 51.5564 160.826 51.5235 161.139 51.4758V48.6288C160.948 48.6735 160.76 48.6915 160.575 48.7153C160.39 48.7243 160.196 48.7332 160.005 48.7332C159.405 48.7482 158.994 48.6377 158.779 48.4199C158.552 48.205 158.45 47.7962 158.468 47.1963V40.616H161.139V38.1749H158.468L158.471 34.1938Z" fill="white"/>
<path d="M166.377 42.2542C166.454 41.5439 166.69 41.0276 167.12 40.7113C167.538 40.4009 168.102 40.2428 168.791 40.2487C169.457 40.2308 170.012 40.3263 170.459 40.5591C170.91 40.7919 171.146 41.2813 171.167 42.0453C171.119 42.7496 170.677 43.1882 169.836 43.3524C169 43.5225 168 43.6717 166.845 43.8C166.072 43.8866 165.347 44.0567 164.67 44.3073C163.983 44.561 163.428 44.9639 162.993 45.51C162.566 46.0681 162.342 46.835 162.324 47.8228C162.366 49.1836 162.793 50.1923 163.64 50.8369C164.491 51.4935 165.556 51.8158 166.848 51.8068C167.666 51.8158 168.469 51.6875 169.254 51.4398C170.039 51.1831 170.731 50.7564 171.313 50.1655C171.331 50.3803 171.361 50.6012 171.408 50.8131C171.453 51.0279 171.504 51.2458 171.575 51.4517H175.267C175.103 51.1652 174.987 50.7534 174.912 50.2162C174.84 49.688 174.801 49.115 174.813 48.4973V41.5857C174.787 40.5322 174.476 39.7384 173.885 39.1923C173.285 38.6462 172.554 38.2791 171.668 38.0851C170.776 37.8941 169.886 37.7986 168.976 37.8106C167.967 37.8046 166.998 37.9359 166.075 38.2015C165.168 38.4761 164.395 38.9327 163.784 39.5862C163.175 40.2368 162.823 41.1172 162.739 42.2512L166.377 42.2542ZM171.167 46.3128C171.179 46.6052 171.14 46.9872 171.035 47.4617C170.931 47.9392 170.662 48.3719 170.239 48.7629C169.821 49.1478 169.146 49.3508 168.209 49.3746C167.6 49.3896 167.072 49.2672 166.645 49.0374C166.216 48.7927 165.986 48.351 165.968 47.6826C165.986 47.026 166.204 46.5694 166.628 46.2889C167.036 46.0114 167.541 45.8293 168.129 45.7278C168.708 45.6383 169.278 45.5548 169.836 45.4652C170.397 45.3817 170.835 45.2116 171.167 44.949V46.3128Z" fill="white"/>
<path d="M177.723 51.4461H181.367V43.7437C181.384 42.8902 181.543 42.2426 181.85 41.801C182.151 41.3503 182.492 41.0638 182.877 40.9027C183.259 40.7475 183.575 40.6759 183.832 40.6908C184.587 40.6998 185.124 40.8758 185.437 41.2041C185.744 41.5324 185.933 41.9561 185.992 42.4605C186.04 42.9678 186.055 43.4751 186.043 44.0093V51.4491H189.69V44.0541C189.669 43.1857 189.818 42.4127 190.137 41.7413C190.466 41.0788 191.134 40.7266 192.134 40.6908C193.134 40.7147 193.766 41.034 194.032 41.6398C194.288 42.2546 194.402 43.0185 194.363 43.9258V51.4491H198.01V42.5649C197.989 40.8669 197.532 39.6433 196.643 38.9032C195.763 38.1661 194.596 37.7961 193.16 37.8199C192.232 37.8378 191.427 38.0587 190.752 38.4914C190.075 38.9181 189.538 39.4285 189.15 40.0283C188.777 39.2345 188.248 38.6734 187.568 38.3302C186.884 37.9811 186.121 37.811 185.27 37.8229C184.411 37.8259 183.638 38.0109 182.951 38.3869C182.265 38.76 181.683 39.2912 181.208 39.9746H181.158V38.178H177.717V51.4461H177.723Z" fill="white"/>
<path d="M203.919 43.3856C203.928 43.0275 204.024 42.6306 204.212 42.2009C204.394 41.7622 204.71 41.3832 205.146 41.0638C205.581 40.7415 206.184 40.5744 206.948 40.5595C207.82 40.5595 208.485 40.7982 208.939 41.2847C209.395 41.7532 209.694 42.4605 209.855 43.3856H203.919ZM213.496 45.7014C213.576 44.3137 213.403 43.0275 212.944 41.8368C212.484 40.652 211.771 39.6911 210.783 38.954C209.798 38.2139 208.554 37.8349 207.047 37.814C205.692 37.8259 204.507 38.1393 203.501 38.751C202.487 39.3539 201.699 40.1835 201.129 41.2399C200.565 42.2934 200.281 43.4811 200.272 44.8211C200.29 46.913 200.896 48.5932 202.084 49.8585C203.281 51.1238 204.937 51.7774 207.047 51.8072C208.566 51.8222 209.843 51.4641 210.902 50.7478C211.959 50.0376 212.744 48.9006 213.266 47.3308H210.052C209.93 47.7635 209.604 48.1604 209.079 48.5066C208.557 48.8558 207.924 49.0468 207.175 49.0677C206.16 49.0707 205.373 48.7961 204.818 48.247C204.271 47.6979 203.961 46.8533 203.916 45.7014H213.496Z" fill="white"/>
<path d="M215.642 51.4461H219.288V44.4898C219.279 43.1558 219.506 42.1829 219.96 41.5771C220.416 40.9713 221.133 40.6729 222.114 40.6878C222.953 40.6878 223.562 40.9534 223.926 41.4995C224.29 42.0397 224.463 42.8544 224.454 43.9467V51.4432H228.101V43.2722C228.143 41.613 227.817 40.2909 227.128 39.318C226.439 38.3362 225.147 37.8319 223.252 37.814C222.464 37.814 221.709 37.993 220.992 38.3571C220.264 38.7242 219.664 39.2792 219.187 40.0223H219.109V38.1721H215.645L215.642 51.4461Z" fill="white"/>
<path d="M235.474 34.1938H231.827V38.1719H229.619V40.613H231.827V48.4468C231.866 49.7389 232.281 50.5895 233.084 51.0132C233.89 51.4459 234.865 51.6399 236.014 51.6011C236.384 51.6011 236.749 51.5892 237.11 51.5773C237.492 51.5564 237.829 51.5235 238.148 51.4758V48.6288C237.957 48.6735 237.766 48.6915 237.581 48.7153C237.396 48.7243 237.208 48.7332 237.017 48.7332C236.411 48.7482 236.003 48.6377 235.785 48.4199C235.567 48.205 235.462 47.7962 235.474 47.1963V40.616H238.148V38.1749H235.474V34.1938Z" fill="white"/>
<path d="M95.7869 16.4434H88.0068V17.9296H94.2529C94.2768 19.9082 93.7366 21.5137 92.6295 22.7492C91.5253 23.9877 89.9526 24.6204 87.9084 24.6591C86.2909 24.6353 84.9748 24.2354 83.9572 23.4595C82.9336 22.6865 82.1875 21.6868 81.71 20.4692C81.2296 19.2457 80.9878 17.9594 80.9938 16.5956C80.9878 15.2348 81.2296 13.9456 81.71 12.728C82.1905 11.4985 82.9366 10.5047 83.9572 9.73179C84.9748 8.9529 86.2909 8.55301 87.9084 8.52615C89.0752 8.55002 90.0869 8.78578 90.9404 9.25431C91.7939 9.71687 92.4654 10.2988 92.9578 11.0001C93.4472 11.7044 93.7337 12.4117 93.8142 13.1279H95.5541C95.184 11.1255 94.3096 9.61243 92.9249 8.58285C91.5432 7.55924 89.8631 7.04894 87.9054 7.04297C85.9775 7.06684 84.372 7.52344 83.0888 8.40977C81.8055 9.29013 80.8446 10.454 80.2119 11.8984C79.5673 13.3308 79.251 14.9036 79.251 16.5956C79.251 18.2877 79.5673 19.8604 80.2119 21.3018C80.8446 22.7373 81.8055 23.9011 83.0888 24.7845C84.372 25.6768 85.9775 26.1274 87.9054 26.1483C89.2513 26.1602 90.4838 25.8737 91.6059 25.2679C92.728 24.677 93.6083 23.731 94.2499 22.4299H94.3007L94.5275 25.7633H95.7839V16.4434H95.7869Z" fill="white"/>
<path d="M99.8185 18.2133C99.9051 17.3956 100.123 16.6316 100.478 15.9124C100.827 15.2052 101.317 14.6173 101.937 14.1726C102.558 13.7309 103.304 13.5041 104.185 13.4832C105.062 13.5041 105.808 13.7309 106.429 14.1696C107.043 14.6143 107.524 15.1932 107.855 15.9065C108.192 16.6227 108.374 17.3956 108.404 18.2163L99.8185 18.2133ZM110.016 19.5711C110.061 18.3088 109.899 17.1121 109.514 15.99C109.123 14.862 108.5 13.9368 107.622 13.2325C106.751 12.5223 105.605 12.1522 104.188 12.1313C102.791 12.1522 101.651 12.4954 100.768 13.1699C99.8812 13.8443 99.2366 14.7157 98.8218 15.7692C98.407 16.8316 98.207 17.9567 98.21 19.1354C98.207 20.4157 98.407 21.5796 98.8218 22.633C99.2366 23.6924 99.8812 24.534 100.768 25.1756C101.651 25.8083 102.791 26.1336 104.188 26.1515C105.847 26.1395 107.139 25.7247 108.073 24.8981C109.004 24.0804 109.631 22.9165 109.965 21.4035H108.351C108.097 22.4211 107.637 23.2358 106.966 23.8476C106.291 24.4624 105.36 24.7757 104.188 24.7966C103.161 24.7757 102.322 24.4952 101.684 23.97C101.042 23.4417 100.571 22.7703 100.272 21.9765C99.9797 21.1856 99.8245 20.3799 99.8215 19.5741L110.016 19.5711Z" fill="white"/>
<path d="M112.161 25.7632H113.776V18.0309C113.814 16.7089 114.19 15.6196 114.913 14.784C115.635 13.9484 116.647 13.5098 117.942 13.4829C119.228 13.5038 120.114 13.8858 120.607 14.6229C121.096 15.369 121.329 16.3239 121.305 17.4908V25.7602H122.919V17.2371C122.952 15.6316 122.609 14.3901 121.899 13.4889C121.183 12.5936 119.905 12.137 118.07 12.1221C117.112 12.131 116.247 12.3817 115.474 12.8592C114.692 13.3396 114.146 13.9872 113.832 14.79H113.779V12.51H112.161V25.7632Z" fill="white"/>
<path d="M126.928 18.2133C127.012 17.3956 127.232 16.6316 127.588 15.9124C127.94 15.2052 128.426 14.6173 129.044 14.1726C129.665 13.7309 130.417 13.5041 131.294 13.4832C132.171 13.5041 132.917 13.7309 133.538 14.1696C134.153 14.6143 134.63 15.1932 134.962 15.9065C135.305 16.6227 135.484 17.3956 135.514 18.2163L126.928 18.2133ZM137.125 19.5711C137.17 18.3088 137.006 17.1121 136.624 15.99C136.233 14.862 135.609 13.9368 134.732 13.2325C133.86 12.5223 132.717 12.1522 131.297 12.1313C129.894 12.1522 128.757 12.4954 127.874 13.1699C126.991 13.8443 126.343 14.7157 125.928 15.7692C125.513 16.8316 125.313 17.9567 125.319 19.1354C125.316 20.4157 125.513 21.5796 125.928 22.633C126.343 23.6924 126.988 24.534 127.874 25.1756C128.757 25.8083 129.894 26.1336 131.297 26.1515C132.956 26.1395 134.248 25.7247 135.182 24.8981C136.114 24.0804 136.74 22.9165 137.078 21.4035H135.46C135.209 22.4211 134.75 23.2358 134.078 23.8476C133.398 24.4624 132.473 24.7757 131.297 24.7966C130.267 24.7757 129.429 24.4952 128.793 23.97C128.149 23.4417 127.68 22.7703 127.382 21.9765C127.089 21.1856 126.934 20.3799 126.931 19.5741L137.125 19.5711Z" fill="white"/>
<path d="M139.295 25.7636H140.912V18.6969C140.933 17.2883 141.393 16.1304 142.279 15.2321C143.166 14.3369 144.362 13.9071 145.848 13.9459V12.3255C144.64 12.2896 143.607 12.5552 142.751 13.1312C141.891 13.7131 141.253 14.5398 140.832 15.6141H140.781V12.5105H139.292L139.295 25.7636Z" fill="white"/>
<path d="M148.868 16.5719C148.913 15.4946 149.259 14.7128 149.904 14.2174C150.548 13.722 151.39 13.4802 152.413 13.4862C153.386 13.4623 154.204 13.6444 154.858 14.0264C155.517 14.4173 155.854 15.1425 155.884 16.2079C155.881 16.9181 155.699 17.3777 155.341 17.5985C154.986 17.8164 154.473 17.9537 153.804 18.0014C152.613 18.1208 151.476 18.27 150.402 18.467C149.331 18.6609 148.441 19.0429 147.755 19.604C147.066 20.162 146.704 21.0543 146.684 22.2689C146.716 23.6059 147.152 24.5817 147.994 25.2084C148.829 25.8411 149.877 26.1485 151.13 26.1455C152.372 26.1425 153.353 25.9098 154.07 25.4472C154.795 24.9876 155.422 24.3221 155.956 23.4507H156.006C155.983 24.155 156.093 24.7131 156.338 25.1279C156.585 25.5367 157.111 25.7546 157.899 25.7635C158.116 25.7635 158.301 25.7546 158.454 25.7397C158.618 25.7217 158.776 25.7009 158.955 25.6591V24.3042C158.892 24.3311 158.809 24.3549 158.722 24.3729C158.627 24.3908 158.537 24.3997 158.436 24.4027C158.116 24.3997 157.881 24.3161 157.728 24.149C157.573 23.9819 157.49 23.7402 157.49 23.4268V16.3899C157.472 15.2201 157.227 14.3218 156.744 13.707C156.266 13.0893 155.654 12.6685 154.917 12.4477C154.18 12.2149 153.407 12.1164 152.616 12.1313C151.07 12.1224 149.82 12.4716 148.85 13.1818C147.883 13.8951 147.346 15.0231 147.239 16.5749H148.868V16.5719ZM155.884 20.6306C155.854 21.9377 155.395 22.9553 154.499 23.6835C153.613 24.4057 152.527 24.7787 151.258 24.7936C150.468 24.7817 149.787 24.5519 149.214 24.0923C148.635 23.6298 148.331 22.9911 148.298 22.1734C148.328 21.3229 148.659 20.7111 149.286 20.3321C149.922 19.9502 150.703 19.6905 151.649 19.5503C152.586 19.3981 153.524 19.2548 154.467 19.1116C154.699 19.0787 154.959 19.0131 155.24 18.9295C155.508 18.849 155.714 18.7057 155.83 18.5147H155.884V20.6306Z" fill="white"/>
<path d="M162.365 7.4248H160.754V25.7662H162.365V7.4248Z" fill="white"/>
<path d="M165.484 25.7632H167.099V12.5131H165.484V25.7632ZM165.484 10.0182H167.099V7.42188H165.484V10.0182Z" fill="white"/>
<path d="M172.759 8.52881H171.145V12.5128H168.826V13.8647H171.145V22.9429C171.118 24.059 171.321 24.8349 171.766 25.2736C172.201 25.7182 172.956 25.9331 174.016 25.9212C174.258 25.9182 174.505 25.9092 174.738 25.8973C174.977 25.8794 175.213 25.8734 175.457 25.8734V24.4857C174.995 24.5394 174.535 24.5633 174.067 24.5633C173.511 24.5215 173.153 24.3544 172.983 24.059C172.816 23.7576 172.739 23.3487 172.759 22.8116V13.8677H175.454V12.5158H172.759V8.52881Z" fill="white"/>
<path d="M179.229 16.5715C179.274 15.4941 179.62 14.7123 180.268 14.2169C180.915 13.7215 181.757 13.4798 182.778 13.4857C183.751 13.4619 184.568 13.6439 185.222 14.0259C185.875 14.4168 186.222 15.142 186.248 16.2074C186.242 16.9176 186.057 17.3772 185.705 17.5981C185.35 17.8159 184.831 17.9532 184.168 18.0009C182.975 18.1203 181.844 18.2695 180.766 18.4665C179.692 18.6605 178.806 19.0424 178.11 19.6035C177.427 20.1616 177.066 21.0538 177.048 22.2684C177.078 23.6054 177.519 24.5813 178.358 25.208C179.191 25.8406 180.238 26.148 181.494 26.145C182.739 26.142 183.721 25.9093 184.44 25.4467C185.159 24.9871 185.786 24.3216 186.323 23.4502H186.374C186.353 24.1545 186.463 24.7126 186.711 25.1274C186.959 25.5362 187.478 25.7541 188.272 25.763C188.481 25.763 188.672 25.7541 188.827 25.7392C188.985 25.7213 189.149 25.7004 189.325 25.6586V24.3037C189.262 24.3306 189.179 24.3545 189.086 24.3724C188.997 24.3903 188.904 24.3992 188.806 24.4022C188.493 24.3992 188.254 24.3157 188.096 24.1485C187.937 23.9814 187.86 23.7397 187.86 23.4263V16.3894C187.842 15.2196 187.594 14.3213 187.117 13.7066C186.639 13.0888 186.022 12.668 185.284 12.4472C184.538 12.2144 183.78 12.1159 182.984 12.1309C181.438 12.1219 180.193 12.4711 179.22 13.1813C178.256 13.8946 177.719 15.0226 177.615 16.5745H179.229V16.5715ZM186.248 20.6301C186.222 21.9372 185.756 22.9548 184.867 23.683C183.977 24.4052 182.891 24.7782 181.623 24.7931C180.832 24.7812 180.149 24.5514 179.57 24.0918C178.997 23.6293 178.692 22.9906 178.665 22.173C178.692 21.3224 179.02 20.7107 179.65 20.3317C180.289 19.9497 181.071 19.69 182.014 19.5498C182.948 19.3976 183.885 19.2543 184.831 19.1111C185.07 19.0783 185.323 19.0126 185.604 18.929C185.875 18.8485 186.078 18.7052 186.195 18.5142H186.251L186.248 20.6301Z" fill="white"/>
<path d="M193.649 8.52881H192.04V12.5128H189.722V13.8647H192.04V22.9429C192.005 24.059 192.214 24.8349 192.655 25.2736C193.091 25.7182 193.846 25.9331 194.905 25.9212C195.15 25.9182 195.392 25.9092 195.631 25.8973C195.872 25.8794 196.108 25.8734 196.35 25.8734V24.4857C195.89 24.5394 195.425 24.5633 194.962 24.5633C194.401 24.5215 194.043 24.3544 193.876 24.059C193.706 23.7576 193.634 23.3487 193.652 22.8116V13.8677H196.35V12.5158H193.652L193.649 8.52881Z" fill="white"/>
<path d="M217.485 7.42725H215.867V15.0252H215.817C215.443 14.0732 214.838 13.351 214.002 12.8616C213.155 12.3722 212.229 12.1275 211.221 12.1275C209.875 12.1394 208.765 12.4677 207.878 13.1093C206.992 13.7509 206.344 14.6014 205.903 15.6519C205.47 16.7083 205.252 17.8722 205.264 19.1346C205.255 20.4059 205.473 21.5668 205.903 22.6232C206.341 23.6766 206.989 24.5271 207.878 25.1658C208.765 25.8074 209.872 26.1297 211.221 26.1476C212.212 26.1357 213.155 25.8731 214.044 25.3448C214.93 24.8196 215.566 24.1243 215.948 23.2529H215.999V25.7656H217.488L217.485 7.42725ZM206.876 19.1316C206.873 18.1975 207.022 17.3112 207.32 16.4487C207.616 15.5982 208.078 14.8879 208.72 14.3329C209.362 13.7867 210.191 13.5002 211.221 13.4823C212.358 13.5002 213.271 13.7867 213.957 14.3329C214.641 14.8879 215.13 15.5982 215.432 16.4487C215.733 17.3112 215.876 18.1975 215.867 19.1316C215.876 20.0686 215.733 20.9699 215.432 21.8264C215.13 22.6739 214.641 23.3842 213.957 23.9392C213.271 24.4854 212.358 24.7719 211.221 24.7838C210.191 24.7719 209.359 24.4824 208.72 23.9392C208.078 23.3842 207.616 22.6739 207.32 21.8264C207.019 20.9729 206.87 20.0716 206.876 19.1316Z" fill="white"/>
<path d="M221.508 18.2128C221.595 17.3951 221.812 16.6312 222.168 15.9119C222.52 15.2047 223.003 14.6168 223.627 14.1721C224.245 13.7304 224.994 13.5036 225.877 13.4827C226.748 13.5036 227.497 13.7304 228.118 14.1691C228.733 14.6138 229.216 15.1927 229.545 15.906C229.885 16.6222 230.064 17.3951 230.094 18.2158L221.508 18.2128ZM231.708 19.5707C231.756 18.3083 231.592 17.1116 231.204 15.9895C230.813 14.8615 230.189 13.9363 229.312 13.2321C228.443 12.5218 227.3 12.1517 225.88 12.1309C224.474 12.1517 223.343 12.4949 222.454 13.1694C221.571 13.8438 220.926 14.7152 220.508 15.7687C220.099 16.8311 219.896 17.9562 219.896 19.135C219.896 20.4152 220.096 21.5791 220.508 22.6325C220.929 23.6919 221.571 24.5335 222.454 25.1751C223.346 25.8078 224.477 26.1331 225.88 26.151C227.536 26.1391 228.834 25.7242 229.762 24.8976C230.691 24.0799 231.317 22.916 231.657 21.403H230.04C229.792 22.4206 229.33 23.2354 228.652 23.8471C227.975 24.4589 227.05 24.7752 225.877 24.7961C224.844 24.7752 224.003 24.4947 223.367 23.9695C222.729 23.4413 222.257 22.7698 221.959 21.976C221.669 21.1852 221.514 20.3794 221.508 19.5736L231.708 19.5707Z" fill="white"/>
<path d="M256.501 12.9693C256.331 11.6861 255.88 10.5968 255.158 9.72241C254.433 8.84205 253.541 8.17059 252.484 7.72295C251.422 7.26636 250.303 7.03955 249.13 7.03955C247.202 7.06044 245.597 7.51702 244.319 8.40634C243.036 9.27775 242.075 10.4476 241.428 11.892C240.801 13.3244 240.473 14.8942 240.473 16.5952C240.473 18.2903 240.801 19.851 241.428 21.2924C242.072 22.7368 243.036 23.9037 244.319 24.7781C245.597 25.6644 247.202 26.121 249.13 26.1419C251.294 26.121 253.042 25.4525 254.376 24.1484C255.698 22.8413 256.492 21.0507 256.758 18.7737H255.012C254.839 20.4509 254.239 21.8386 253.219 22.9428C252.201 24.0469 250.837 24.6169 249.127 24.6617C247.513 24.6289 246.199 24.229 245.182 23.4561C244.161 22.6831 243.406 21.6834 242.926 20.4658C242.448 19.2452 242.218 17.956 242.218 16.5952C242.218 15.2314 242.448 13.9392 242.926 12.7216C243.409 11.4981 244.161 10.5043 245.182 9.72539C246.197 8.95246 247.513 8.54661 249.127 8.51975C250.491 8.53168 251.691 8.91964 252.711 9.6866C253.738 10.4536 254.418 11.5518 254.752 12.9693H256.501Z" fill="white"/>
<path d="M260.613 16.5715C260.661 15.4941 261.004 14.7123 261.652 14.2169C262.305 13.7215 263.141 13.4798 264.162 13.4857C265.137 13.4619 265.952 13.6439 266.609 14.0259C267.262 14.4168 267.602 15.142 267.629 16.2074C267.626 16.9176 267.444 17.3772 267.089 17.5981C266.734 17.8159 266.221 17.9532 265.552 18.0009C264.361 18.1203 263.224 18.2695 262.15 18.4665C261.079 18.6605 260.192 19.0424 259.503 19.6035C258.814 20.1616 258.453 21.0538 258.429 22.2684C258.462 23.6054 258.9 24.5813 259.739 25.208C260.574 25.8406 261.622 26.148 262.878 26.145C264.12 26.142 265.102 25.9093 265.818 25.4467C266.543 24.9871 267.17 24.3216 267.704 23.4502H267.755C267.731 24.1545 267.841 24.7126 268.086 25.1274C268.337 25.5362 268.859 25.7541 269.65 25.763C269.867 25.763 270.049 25.7541 270.205 25.7392C270.369 25.7213 270.527 25.7004 270.703 25.6586V24.3037C270.64 24.3306 270.56 24.3545 270.473 24.3724C270.378 24.3903 270.288 24.3992 270.187 24.4022C269.873 24.3992 269.632 24.3157 269.482 24.1485C269.318 23.9814 269.241 23.7397 269.241 23.4263V16.3894C269.223 15.2196 268.978 14.3213 268.495 13.7066C268.017 13.0888 267.402 12.668 266.668 12.4472C265.931 12.2144 265.158 12.1159 264.367 12.1309C262.822 12.1219 261.571 12.4711 260.601 13.1813C259.631 13.8946 259.097 15.0226 258.993 16.5745H260.613V16.5715ZM267.629 20.6301C267.605 21.9372 267.146 22.9548 266.251 23.683C265.364 24.4052 264.275 24.7782 263.01 24.7931C262.219 24.7812 261.535 24.5514 260.959 24.0918C260.386 23.6293 260.082 22.9906 260.052 22.173C260.082 21.3224 260.41 20.7107 261.037 20.3317C261.673 19.9497 262.457 19.69 263.401 19.5498C264.338 19.3976 265.272 19.2543 266.221 19.1111C266.45 19.0783 266.71 19.0126 266.988 18.929C267.265 18.8485 267.465 18.7052 267.584 18.5142H267.632L267.629 20.6301Z" fill="white"/>
<path d="M275.037 8.52881H273.425V12.5128H271.106V13.8647H273.425V22.9429C273.389 24.059 273.598 24.8349 274.034 25.2736C274.482 25.7182 275.231 25.9331 276.287 25.9212C276.535 25.9182 276.777 25.9092 277.012 25.8973C277.251 25.8794 277.493 25.8734 277.726 25.8734V24.4857C277.272 24.5394 276.809 24.5633 276.344 24.5633C275.78 24.5215 275.425 24.3544 275.258 24.059C275.09 23.7576 275.016 23.3487 275.034 22.8116V13.8677H277.726V12.5158H275.034L275.037 8.52881Z" fill="white"/>
<path d="M281.51 16.5715C281.557 15.4941 281.903 14.7123 282.551 14.2169C283.199 13.7215 284.031 13.4798 285.052 13.4857C286.034 13.4619 286.842 13.6439 287.502 14.0259C288.158 14.4168 288.499 15.142 288.526 16.2074C288.526 16.9176 288.346 17.3772 287.988 17.5981C287.63 17.8159 287.12 17.9532 286.443 18.0009C285.261 18.1203 284.124 18.2695 283.046 18.4665C281.969 18.6605 281.086 19.0424 280.396 19.6035C279.713 20.1616 279.349 21.0538 279.334 22.2684C279.361 23.6054 279.8 24.5813 280.644 25.208C281.477 25.8406 282.527 26.148 283.778 26.145C285.019 26.142 286.001 25.9093 286.723 25.4467C287.439 24.9871 288.072 24.3216 288.603 23.4502H288.657C288.633 24.1545 288.743 24.7126 288.991 25.1274C289.236 25.5362 289.752 25.7541 290.552 25.763C290.767 25.763 290.949 25.7541 291.107 25.7392C291.262 25.7213 291.432 25.7004 291.608 25.6586V24.3037C291.543 24.3306 291.465 24.3545 291.37 24.3724C291.268 24.3903 291.185 24.3992 291.089 24.4022C290.77 24.3992 290.54 24.3157 290.376 24.1485C290.221 23.9814 290.146 23.7397 290.146 23.4263V16.3894C290.125 15.2196 289.883 14.3213 289.4 13.7066C288.916 13.0888 288.308 12.668 287.571 12.4472C286.824 12.2144 286.061 12.1159 285.261 12.1309C283.727 12.1219 282.47 12.4711 281.501 13.1813C280.534 13.8946 279.996 15.0226 279.895 16.5745H281.51V16.5715ZM288.523 20.6301C288.496 21.9372 288.036 22.9548 287.144 23.683C286.252 24.4052 285.168 24.7782 283.906 24.7931C283.115 24.7812 282.435 24.5514 281.85 24.0918C281.277 23.6293 280.978 22.9906 280.951 22.173C280.969 21.3224 281.301 20.7107 281.936 20.3317C282.572 19.9497 283.354 19.69 284.291 19.5498C285.24 19.3976 286.168 19.2543 287.12 19.1111C287.35 19.0783 287.603 19.0126 287.89 18.929C288.164 18.8485 288.367 18.7052 288.481 18.5142H288.532V20.6301H288.523Z" fill="white"/>
<path d="M294.998 7.4248H293.387V25.7662H294.998V7.4248Z" fill="white"/>
<path d="M308.834 12.5127H307.225V19.475C307.225 20.3852 307.085 21.2447 306.798 22.0504C306.527 22.8562 306.091 23.5068 305.5 24.0141C304.912 24.5125 304.157 24.7691 303.238 24.793C301.97 24.787 301.069 24.4796 300.528 23.8649C299.988 23.2441 299.711 22.3369 299.69 21.1462V12.5127H298.072V21.1223C298.066 22.6771 298.419 23.9007 299.147 24.787C299.878 25.6793 301.072 26.1389 302.719 26.1508C303.725 26.1478 304.626 25.9031 305.438 25.4286C306.246 24.9482 306.864 24.2678 307.303 23.3784H307.35V25.7629H308.837L308.834 12.5127Z" fill="white"/>
<path d="M311.869 25.7632H313.481V18.0309C313.519 16.7089 313.895 15.6196 314.618 14.784C315.346 13.9484 316.352 13.5098 317.644 13.4829C318.933 13.5038 319.816 13.8858 320.315 14.6229C320.804 15.369 321.037 16.3239 321.013 17.4908V25.7602H322.627V17.2371C322.663 15.6316 322.317 14.3901 321.598 13.4889C320.885 12.5936 319.607 12.137 317.775 12.1221C316.817 12.131 315.955 12.3817 315.179 12.8592C314.397 13.3396 313.851 13.9872 313.534 14.79H313.484V12.51H311.872L311.869 25.7632Z" fill="white"/>
<path d="M329.485 25.7151L328.921 27.2311C328.679 27.8518 328.407 28.3591 328.097 28.7352C327.793 29.1112 327.297 29.3022 326.605 29.3141C326.247 29.3111 325.88 29.2664 325.504 29.1858V30.5466C325.623 30.5914 325.781 30.6242 325.969 30.6421C326.163 30.654 326.417 30.663 326.733 30.6749C327.706 30.6928 328.428 30.4929 328.894 30.0781C329.356 29.6603 329.804 28.8993 330.222 27.7951L335.975 12.5156H334.352L330.273 23.8171L325.907 12.5156H324.182L329.485 25.7151Z" fill="white"/>
<path d="M339.041 16.5715C339.095 15.4941 339.435 14.7123 340.085 14.2169C340.736 13.7215 341.566 13.4798 342.586 13.4857C343.565 13.4619 344.377 13.6439 345.036 14.0259C345.687 14.4168 346.033 15.142 346.06 16.2074C346.054 16.9176 345.875 17.3772 345.52 17.5981C345.156 17.8159 344.645 17.9532 343.971 18.0009C342.783 18.1203 341.655 18.2695 340.575 18.4665C339.5 18.6605 338.617 19.0424 337.925 19.6035C337.235 20.1616 336.88 21.0538 336.862 22.2684C336.889 23.6054 337.325 24.5813 338.163 25.208C338.999 25.8406 340.052 26.148 341.3 26.145C342.544 26.142 343.526 25.9093 344.242 25.4467C344.959 24.9871 345.594 24.3216 346.128 23.4502H346.182C346.158 24.1545 346.272 24.7126 346.519 25.1274C346.764 25.5362 347.283 25.7541 348.08 25.763C348.292 25.763 348.483 25.7541 348.638 25.7392C348.793 25.7213 348.961 25.7004 349.134 25.6586V24.3037C349.071 24.3306 348.99 24.3545 348.898 24.3724C348.802 24.3903 348.713 24.3992 348.617 24.4022C348.301 24.3992 348.062 24.3157 347.904 24.1485C347.749 23.9814 347.665 23.7397 347.665 23.4263V16.3894C347.653 15.2196 347.4 14.3213 346.919 13.7066C346.445 13.0888 345.833 12.668 345.102 12.4472C344.356 12.2144 343.592 12.1159 342.789 12.1309C341.243 12.1219 339.996 12.4711 339.029 13.1813C338.065 13.8946 337.528 15.0226 337.426 16.5745H339.041V16.5715ZM346.06 20.6301C346.033 21.9372 345.57 22.9548 344.675 23.683C343.786 24.4052 342.703 24.7782 341.425 24.7931C340.646 24.7812 339.963 24.5514 339.387 24.0918C338.805 23.6293 338.501 22.9906 338.471 22.173C338.498 21.3224 338.826 20.7107 339.462 20.3317C340.1 19.9497 340.882 19.69 341.819 19.5498C342.75 19.3976 343.696 19.2543 344.639 19.1111C344.872 19.0783 345.126 19.0126 345.409 18.929C345.684 18.8485 345.881 18.7052 346.003 18.5142H346.057L346.06 20.6301Z" fill="white"/>
<path d="M32.9136 1.88888C15.1064 1.88888 0.662509 18.7321 0.662509 39.4997C0.662509 60.2613 15.1064 77.1076 32.9136 77.1076C50.7297 77.1076 65.1676 60.2613 65.1676 39.4997C65.1676 18.7321 50.7297 1.88888 32.9136 1.88888ZM10.43 57.4979C7.53828 52.344 5.85515 46.1636 5.85515 39.4997C5.85515 32.8388 7.53828 26.6464 10.43 21.4986V57.4979ZM17.2879 13.1008C19.0904 11.5669 21.0541 10.3075 23.1401 9.34062V69.6558C21.0541 68.6859 19.0904 67.4176 17.2879 65.8926V13.1008ZM29.9979 7.35608C30.9619 7.23074 31.9347 7.17105 32.9136 7.17105C33.9073 7.17105 34.8922 7.23074 35.8561 7.35608V71.6433C34.8922 71.7717 33.9073 71.8314 32.9136 71.8314C31.9347 71.8314 30.9619 71.7687 29.9979 71.6433V7.35608ZM42.7139 9.34957C44.7999 10.3195 46.7576 11.5878 48.5601 13.1098V65.8837C46.7576 67.4087 44.797 68.68 42.7139 69.6528V9.34957ZM55.424 21.5403C58.2978 26.6793 59.978 32.8567 59.978 39.5027C59.978 46.1457 58.3008 52.3261 55.424 57.4591V21.5403ZM48.5601 9.86883V11.6713C46.7457 10.2299 44.788 9.03025 42.7139 8.11109V6.55032C44.7761 7.40979 46.7338 8.5289 48.5601 9.86883ZM32.9136 4.58368C33.9073 4.58368 34.8922 4.64636 35.8561 4.76274V6.21907C34.8922 6.0997 33.9073 6.03702 32.9136 6.03702C31.9347 6.03702 30.9619 6.09671 29.9979 6.21907V4.75976C30.9619 4.64934 31.9347 4.58368 32.9136 4.58368ZM23.1401 6.54136V8.10513C21.063 9.02429 19.1024 10.218 17.2879 11.6654V9.85391C19.1113 8.51695 21.0779 7.39487 23.1401 6.54136ZM3.33045 39.4997C3.33045 30.8423 6.00436 22.9221 10.43 16.8162V19.3529C6.86682 24.9544 4.75395 31.9316 4.75395 39.4997C4.75395 47.0559 6.86682 54.0361 10.43 59.6436V62.1832C6.00138 56.0833 3.33045 48.1631 3.33045 39.4997ZM17.2879 69.1365V67.334C19.1024 68.7755 21.063 69.9722 23.1401 70.8913V72.4461C21.0779 71.5956 19.1113 70.4884 17.2879 69.1365ZM32.9136 74.4068C31.9347 74.4068 30.9619 74.3441 29.9979 74.2367V72.7833C30.9619 72.8967 31.9347 72.9594 32.9136 72.9594C33.9073 72.9594 34.8922 72.8967 35.8561 72.7833V74.2337C34.8922 74.3471 33.9073 74.4068 32.9136 74.4068ZM42.7139 72.4461V70.8794C44.791 69.9662 46.7487 68.7635 48.5601 67.3251V69.1276C46.7338 70.4645 44.7761 71.5896 42.7139 72.4461ZM55.424 59.6107C58.9663 54.0093 61.0732 47.044 61.0732 39.4997C61.0732 31.9465 58.9663 24.9842 55.424 19.3887V16.8431C59.8317 22.943 62.4997 30.8572 62.4997 39.4997C62.4997 48.1422 59.8317 56.0565 55.424 62.1504V59.6107ZM64.3231 73.2549C64.5439 72.3238 65.3198 71.4165 65.8331 70.6555C65.1706 70.3332 64.329 69.8946 63.7501 69.3842C65.0244 67.4683 65.475 66.5164 65.6779 64.2125L65.5108 52.2873C64.2992 55.8774 62.9085 59.8316 60.915 62.7562C60.351 63.5828 60.2406 63.8096 59.9213 64.296C59.5303 64.8929 58.6888 66.1344 58.7126 68.2413C58.0024 68.3905 57.1369 68.1995 56.3043 68.1488C56.4118 69.0381 56.5222 69.2112 56.2805 70.7003C52.8396 70.8256 52.1771 72.9296 48.4617 74.8544C46.7636 75.7437 46.0474 76.1018 43.7942 76.9345C50.7775 76.9076 53.8602 78.0565 57.7428 75.4364C58.1964 76.0422 58.4381 76.8688 58.7335 77.5761C59.2886 77.1434 60.4704 76.3645 61.3687 76.1317C62.3952 77.1493 63.9202 77.7163 65.6779 77.5552C65.9406 76.1287 65.4422 74.2128 64.3231 73.2549ZM64.9319 70.8973C64.4753 71.0853 62.0938 71.8821 62.0938 71.8821L61.9148 71.3181C62.7474 70.8256 63.1682 70.1602 63.1801 70.0527C63.3472 70.0587 64.2813 70.763 64.9319 70.8973ZM63.2726 60.0733C65.1079 55.3194 64.7886 55.1612 65.3109 53.1886C64.7767 59.8316 62.7921 65.3107 60.8703 70.3422C60.8703 70.3422 60.4286 70.2049 60.1928 70.2527C59.7989 69.7931 59.7064 69.1336 59.7064 69.1336C58.7156 65.8897 61.8252 63.8126 63.2726 60.0733ZM57.0206 68.862L59.1334 70.6197C57.6711 70.6555 57.0027 70.6645 57.0027 70.6645C57.2593 69.5484 57.0206 68.862 57.0206 68.862ZM44.8268 76.836L47.5395 75.9825C51.819 74.4515 53.3559 71.2554 56.5789 71.4344C57.2623 71.512 57.8442 71.6433 58.4112 71.9746C58.3874 72.1805 58.453 72.4222 58.5217 72.6311C55.7821 74.2546 49.8941 76.1108 44.8268 76.836ZM59.017 76.6868C58.8887 76.3525 58.8231 75.5677 58.3366 75.0335C58.9872 74.4844 59.1215 74.177 59.3393 73.6458C59.5572 73.7741 59.787 73.8398 60.0168 73.8577L59.017 76.6868ZM59.5124 72.8191C59.0946 72.4043 59.1036 71.7418 59.5154 71.33C59.9243 70.9152 60.5957 70.9182 61.0076 71.333C61.4134 71.7418 61.4134 72.4073 61.0046 72.8311C60.5927 73.2369 59.9183 73.231 59.5124 72.8191ZM61.5537 75.2096C61.0732 74.6694 61.109 74.4874 60.93 73.7353C61.1687 73.6697 61.5208 73.419 61.685 73.1802L64.9916 76.7405C63.768 76.8539 62.3147 76.1436 61.5537 75.2096ZM64.3231 5.89079C64.5439 6.82487 65.3198 7.72613 65.8331 8.49607C65.1706 8.81837 64.329 9.26004 63.7501 9.7614C65.0244 11.6743 65.475 12.6323 65.6779 14.9391L65.5108 26.8613C64.2992 23.2742 62.9085 19.3141 60.915 16.3925C60.351 15.5658 60.2406 15.345 59.9213 14.8496C59.5303 14.2468 58.6888 13.0232 58.7126 10.9044C58.0024 10.7641 57.1369 10.9491 56.3043 11.0088C56.4118 10.1076 56.5222 9.94046 56.2805 8.45429C52.8396 8.33194 52.1771 6.22205 48.4617 4.29719C46.7636 3.41086 46.0474 3.04679 43.7942 2.21417C50.7775 2.24103 53.8602 1.09805 57.7428 3.71228C58.1964 3.10647 58.4381 2.27684 58.7335 1.56957C59.2886 2.00229 60.4704 2.78416 61.3687 3.01693C62.3952 1.9993 63.9202 1.43826 65.6779 1.59941C65.9406 3.01694 65.4422 4.92687 64.3231 5.89079ZM64.9319 8.25136C64.4753 8.06633 62.0938 7.26954 62.0938 7.26954L61.9148 7.83356C62.7474 8.32895 63.1682 8.99146 63.1801 9.10188C63.3472 9.078 64.2813 8.38565 64.9319 8.25136ZM63.2726 19.0753C65.1079 23.8263 64.7886 23.9874 65.3109 25.96C64.7767 19.3111 62.7921 13.8379 60.8703 8.80644C60.8703 8.80644 60.4286 8.93774 60.1928 8.89298C59.7989 9.35554 59.7064 10.0151 59.7064 10.0151C58.7156 13.256 61.8252 15.339 63.2726 19.0753ZM57.0206 10.2866L59.1334 8.52889C57.6711 8.49606 57.0027 8.48115 57.0027 8.48115C57.2593 9.60025 57.0206 10.2866 57.0206 10.2866ZM44.8268 2.31862L47.5395 3.1572C51.819 4.70007 53.3559 7.88429 56.5789 7.70822C57.2623 7.6366 57.8442 7.49932 58.4112 7.18C58.3874 6.9711 58.453 6.72042 58.5217 6.51451C55.7821 4.89106 49.8941 3.03485 44.8268 2.31862ZM59.017 2.45887C58.8887 2.79311 58.8231 3.58096 58.3366 4.11515C58.9872 4.66425 59.1215 4.96268 59.3393 5.50284C59.5572 5.37153 59.787 5.30588 60.0168 5.28499L59.017 2.45887ZM59.5124 6.3265C59.0946 6.74131 59.1036 7.40382 59.5154 7.81864C59.9243 8.23047 60.5957 8.23047 61.0076 7.81565C61.4134 7.39786 61.4134 6.73535 61.0046 6.32352C60.5927 5.9087 59.9183 5.9087 59.5124 6.3265ZM61.5537 3.93012C61.0732 4.47923 61.109 4.66127 60.93 5.41928C61.1687 5.48493 61.5208 5.72964 61.685 5.95943L64.9916 2.40815C63.768 2.29176 62.3147 2.99903 61.5537 3.93012ZM1.51004 73.1862C1.29219 72.2551 0.513295 71.3509 0 70.5899C0.662509 70.2646 1.51004 69.8259 2.08302 69.3216C0.817692 67.4057 0.364082 66.4477 0.152198 64.1409L0.325286 52.2247C1.5369 55.8028 2.92459 59.7689 4.9151 62.6935C5.47913 63.5201 5.59253 63.741 5.91483 64.2334C6.29682 64.8332 7.14436 66.0747 7.1175 68.1756C7.82776 68.3248 8.6932 68.1368 9.52282 68.0742C9.42434 68.9814 9.30796 69.1545 9.54371 70.6287C12.9935 70.763 13.6531 72.8639 17.3685 74.7918C19.0755 75.6811 19.7917 76.0392 22.0389 76.8688C15.0557 76.8449 11.9729 77.9909 8.08739 75.3707C7.63079 75.9735 7.39504 76.8091 7.09661 77.5134C6.54452 77.0807 5.35976 76.2988 4.46746 76.075C3.43789 77.0837 1.90994 77.6507 0.14623 77.4925C-0.101465 76.066 0.39094 74.1471 1.51004 73.1862ZM0.904235 70.8346C1.36381 71.0166 3.74527 71.8134 3.74527 71.8134L3.92432 71.2494C3.08873 70.751 2.66496 70.0915 2.65601 69.9901C2.4859 69.993 1.54884 70.6973 0.904235 70.8346ZM2.56349 60.0136C0.722195 55.2567 1.04151 55.1015 0.522248 53.117C1.05047 59.7689 3.04098 65.2421 4.96584 70.2795C4.96584 70.2795 5.40751 70.1393 5.63133 70.184C6.02824 69.7244 6.12075 69.0679 6.12075 69.0679C7.1175 65.827 4.01087 63.744 2.56349 60.0136ZM8.80958 68.7993L6.69671 70.5571C8.16199 70.5929 8.83047 70.6018 8.83047 70.6018C8.57681 69.4827 8.80958 68.7993 8.80958 68.7993ZM21.0033 76.7644L18.2966 75.9198C14.0112 74.3829 12.4773 71.1927 9.25424 71.3777C8.57084 71.4434 7.98891 71.5866 7.41891 71.9089C7.44278 72.1119 7.37713 72.3596 7.31148 72.5685C10.057 74.183 15.942 76.0511 21.0033 76.7644ZM6.81609 76.6271C6.94739 76.2928 7.01305 75.508 7.4965 74.9738C6.84593 74.4157 6.71462 74.1233 6.49677 73.5801C6.27593 73.7144 6.05211 73.7771 5.81635 73.801L6.81609 76.6271ZM6.32368 72.7565C6.73253 72.3476 6.73253 71.6762 6.31174 71.2703C5.90887 70.8555 5.2374 70.8555 4.82259 71.2703C4.41673 71.6881 4.41673 72.3536 4.82557 72.7684C5.24337 73.1713 5.91185 73.1713 6.32368 72.7565ZM4.27647 75.1528C4.75694 74.5948 4.72112 74.4157 4.90317 73.6726C4.66144 73.601 4.30631 73.3563 4.14217 73.1235L0.835597 76.6748C2.0681 76.7882 3.51846 76.078 4.27647 75.1528ZM1.51004 5.82813C1.29219 6.7622 0.513295 7.66942 0 8.42742C0.662509 8.75569 1.51004 9.20036 2.08302 9.69873C0.817692 11.6087 0.364082 12.5666 0.152198 14.8675L0.325286 26.7986C1.5369 23.2115 2.92459 19.2574 4.9151 16.3328C5.47913 15.5061 5.59253 15.2793 5.91483 14.7899C6.29682 14.1901 7.14436 12.9546 7.1175 10.8387C7.82776 10.7015 8.6932 10.8805 9.52282 10.9491C9.42434 10.0449 9.30796 9.86586 9.54371 8.38864C12.9935 8.2633 13.6531 6.15043 17.3685 4.22856C19.0755 3.34819 19.7917 2.98412 22.0389 2.1515C15.0557 2.17538 11.9729 1.0324 8.08739 3.64662C7.63079 3.04678 7.39504 2.21118 7.09661 1.50391C6.54452 1.94558 5.35976 2.72448 4.46746 2.95726C3.43789 1.9426 1.90994 1.3726 0.14623 1.53674C-0.101465 2.95427 0.39094 4.86719 1.51004 5.82813ZM0.904235 8.18869C1.36381 8.00068 3.74527 7.20687 3.74527 7.20687L3.92432 7.76791C3.08873 8.2633 2.66496 8.91984 2.65601 9.03026C2.4859 9.01832 1.54884 8.32895 0.904235 8.18869ZM2.56349 19.0127C0.722195 23.7636 1.04151 23.9248 0.522248 25.9004C1.05047 19.2544 3.04098 13.7723 4.96584 8.74078C4.96584 8.74078 5.40751 8.87507 5.63133 8.83031C6.02824 9.29586 6.12075 9.95239 6.12075 9.95239C7.1175 13.1963 4.01087 15.2734 2.56349 19.0127ZM8.80958 10.224L6.69373 8.46026C8.15901 8.42743 8.82749 8.41848 8.82749 8.41848C8.57681 9.53758 8.80958 10.224 8.80958 10.224ZM21.0033 2.24699L18.2966 3.10049C14.0112 4.63143 12.4773 7.8276 9.25424 7.64257C8.57084 7.5799 7.98891 7.43068 7.41891 7.11435C7.44278 6.89948 7.37713 6.65775 7.31148 6.45482C10.057 4.82839 15.942 2.96919 21.0033 2.24699ZM6.81609 2.3962C6.94739 2.73044 7.01305 3.51829 7.4965 4.0495C6.84593 4.59263 6.71462 4.89405 6.49677 5.43718C6.27593 5.31184 6.05211 5.24321 5.81635 5.22232L6.81609 2.3962ZM6.32368 6.26383C6.73253 6.67864 6.73253 7.34115 6.31174 7.75895C5.90887 8.1678 5.2374 8.1678 4.82259 7.75597C4.41673 7.3322 4.41673 6.67566 4.82557 6.26085C5.24337 5.84305 5.91185 5.84305 6.32368 6.26383ZM4.27647 3.86745C4.75694 4.41954 4.72112 4.60159 4.90317 5.34468C4.66144 5.42824 4.30631 5.66996 4.14217 5.89676L0.835597 2.34846C2.0681 2.22909 3.51846 2.93934 4.27647 3.86745Z" fill="white"/>
</svg>
