<svg width="240" height="80" viewBox="0 0 240 80" fill="none" xmlns="http://www.w3.org/2000/svg">
<path d="M11.3889 34.779C9.95147 32.5675 9.8409 30.909 10.3938 29.1398L10.1726 28.8081C10.1726 28.8081 7.40831 30.5773 4.97573 32.1253C2.65372 33.6733 0 35.4424 0 35.4424L0.221145 35.7741C1.99029 35.9953 3.5383 36.7693 4.97573 38.9807L22.8884 66.6237C25.0998 70.0514 24.8787 73.0369 22.0038 75.0271C19.3501 76.7963 15.7012 75.2483 13.9321 72.5946C12.1629 69.8303 12.2735 67.5083 14.1532 66.292C14.4849 66.0708 14.8166 65.9603 15.0378 65.8497C14.9272 65.518 14.8166 65.2968 14.5955 64.9651C13.1581 62.7537 10.7255 62.422 8.84575 63.6382C6.3026 65.2968 5.63917 69.7197 8.40346 74.2531C12.1629 80.1135 18.9078 80.998 23.9941 77.6809C30.8495 73.1474 31.513 66.292 27.8641 60.5422L11.3889 34.779Z" fill="white"/>
<path d="M34.3874 56.3398C35.8248 55.5658 38.0363 54.4601 39.4737 53.6861L29.8539 40.9704L34.3874 56.3398ZM33.6134 70.2719L33.3922 69.9402C33.724 67.9499 33.5028 67.1759 32.8394 64.6327L25.2099 37.4321C24.5465 35.3312 24.2148 34.336 22.9985 33.3409L22.7773 33.0092C24.3253 32.1246 29.0799 29.692 30.4068 29.1392L30.6279 29.4709C30.7385 31.0189 31.2914 31.9035 32.6182 33.6726L49.978 56.1187C51.1943 57.7773 52.0789 58.7724 53.6269 59.5464L53.7375 59.8781C51.0837 60.9839 47.7666 62.5319 44.8917 63.9693L44.6706 63.6376C45.1129 61.8684 44.6706 60.8733 43.5649 59.4359L41.2428 56.4504C40.0266 57.0033 36.1565 58.9936 34.9402 59.657L36.046 63.4164C36.4883 64.9644 37.0411 66.1807 38.8103 66.7336L39.0314 67.0653C37.4834 68.0605 35.272 69.2768 33.6134 70.2719Z" fill="white"/>
<path d="M56.0595 18.4131L59.8189 28.5857L59.4872 28.6963C54.622 23.8311 51.7471 22.3937 49.978 23.1677C48.43 23.8311 47.9877 25.932 49.5357 30.2443L56.17 48.2675C58.0497 53.4644 60.2612 55.8969 62.6938 55.0124C65.4581 54.0172 65.2369 50.2578 63.4678 45.7243C62.9149 44.1763 62.6938 43.734 62.3621 43.0706C62.5832 42.96 62.8043 42.8495 63.0255 42.7389C64.6841 42.186 66.1215 42.4072 67.1166 45.0609C69.2175 50.3684 68.2224 55.5652 63.5783 57.3344C56.944 59.767 50.5309 55.1229 45.7763 42.0755C41.6851 30.7971 42.9014 23.0571 48.8723 20.8457C51.526 19.8505 52.9634 20.6245 54.2903 20.1822C55.1749 19.8505 55.5066 19.2977 55.9489 18.5237L56.0595 18.4131Z" fill="white"/>
<path d="M93.101 48.4885C91.9953 47.9357 91.2213 47.1617 90.4473 45.7242L81.6016 28.6962H81.3804C81.1593 28.9173 80.8276 29.0279 80.4959 29.0279C79.5007 29.249 78.5056 29.0279 77.3998 28.6962L80.2747 19.2976C81.7121 14.8747 82.265 13.9901 83.039 12.6633L82.9284 12.3315C81.0487 12.6633 78.395 13.2161 76.4047 13.5478L76.5153 13.8795C76.847 14.3218 77.0681 14.9853 77.1787 15.8698C77.3998 17.0861 77.1787 18.6341 76.7364 20.2927L73.3087 31.6816L70.4338 19.7399C69.881 17.4178 70.2127 16.5333 70.7655 15.2064L70.655 14.7641C67.8907 15.4276 64.0206 16.4227 61.2563 17.3073L61.3669 17.639C62.5832 18.6341 63.2466 19.187 63.7995 21.6196L70.8761 49.3731C71.3184 51.1423 71.2078 52.0268 70.4338 53.5749L70.5444 53.9066C73.6404 53.022 76.6258 52.1374 79.8324 51.3634L79.7219 51.0317C78.1738 50.1471 77.7316 49.4837 77.2893 47.604L74.8567 37.6525L76.1836 33.2296L83.3707 47.1617C84.0342 48.4885 84.9187 49.7048 85.6927 50.1471C88.3465 49.5943 90.4473 49.2625 93.101 48.8203V48.4885Z" fill="white"/>
<path d="M112.673 22.8368C112.01 11.7796 110.019 2.71271 105.044 2.93385C104.491 2.93385 104.27 3.26557 104.27 4.03957L106.481 43.5137C106.481 44.1772 106.702 44.3983 107.255 44.2877C112.01 44.0666 113.337 35.6631 112.673 22.8368ZM102.279 0.0589813C105.486 -0.0515906 109.135 -0.272734 112.673 2.27042C117.759 5.91929 120.081 14.3228 120.524 21.6205C121.187 33.0094 118.644 46.7203 106.702 47.3837C106.702 47.3837 103.496 47.6049 102.501 47.7155C101.174 47.826 97.4142 48.1577 97.4142 48.1577V47.7155C98.1882 47.052 99.4045 45.6146 99.1833 42.7397L96.9719 5.91929C96.7508 2.82328 95.645 1.60699 94.6499 0.832984V0.390697C95.7556 0.501269 99.4045 0.169553 102.279 0.0589813Z" fill="white"/>
<path d="M127.158 35.4424C128.816 35.553 131.249 35.6635 132.907 35.8847L131.359 20.0729L127.158 35.4424ZM119.307 46.9419V46.4996C120.413 45.1727 120.855 44.067 121.629 41.6344L129.369 14.4337C129.922 12.2223 130.143 11.2272 129.59 9.78972V9.45801C131.47 9.45801 132.797 9.56858 134.345 9.78972C135.561 9.9003 136.777 10.0109 138.215 10.232V10.5637C137.441 11.8906 137.441 12.9963 137.662 15.2077L140.758 43.5141C141.09 46.1679 141.311 47.2736 142.085 48.3793L141.974 48.8216C138.768 48.3793 135.34 47.937 132.244 47.7159V47.2736C133.571 45.9467 133.681 44.841 133.46 43.1824L133.018 39.423C131.691 39.2018 127.379 38.8701 125.941 38.8701L124.946 42.6296C124.504 44.067 124.283 45.615 125.499 46.8313V47.2736C123.509 47.0524 121.297 47.0524 119.307 46.9419Z" fill="white"/>
<path d="M158.228 13.1056L158.118 13.4373C157.344 14.1007 157.344 15.0959 157.675 17.0862L160.661 37.6525L165.305 19.187C165.747 17.4179 165.968 16.6439 165.084 14.9853L165.194 14.6536C166.853 15.0959 169.396 15.6487 170.944 16.091L170.833 16.4227C169.396 17.4179 169.175 18.1919 168.732 19.961L161.656 47.9357C161.214 50.1471 161.103 51.0317 161.545 52.3586L161.435 52.6903C159.223 52.1374 157.344 51.5846 155.022 51.0317L155.132 50.7C155.353 49.926 155.353 48.9309 155.243 47.604L152.036 25.0473L148.277 45.0608C148.056 46.3877 147.945 47.7146 148.83 49.152L148.719 49.4837C146.839 49.152 144.96 48.8203 142.969 48.4886L143.08 48.1569C144.186 47.0511 144.407 46.1666 144.738 44.508L149.935 16.3122C150.378 13.8796 150.156 13.1056 149.493 11.6681L149.604 11.3364C152.036 11.8893 155.685 12.5527 158.228 13.1056Z" fill="white"/>
<path d="M163.536 53.4654L163.647 53.1337C165.084 52.1385 165.637 51.6962 166.19 49.7059L174.704 22.3947C175.478 20.0727 175.257 19.1881 174.814 17.7507L174.925 17.4189C177.358 18.0824 182.112 19.6304 184.324 20.4044L184.213 20.7361C182.997 21.6207 182.223 22.2841 181.449 24.6061L172.603 51.8068C171.94 53.6865 172.161 54.4605 172.824 56.1191L172.714 56.4508C170.06 55.4557 166.3 54.2394 163.536 53.4654Z" fill="white"/>
<path d="M201.462 34.6679C200.356 31.5719 199.361 29.5816 197.26 28.697L195.822 28.0336C194.827 27.5913 194.717 27.8124 194.385 28.697L190.183 38.8696C190.183 38.8696 190.957 39.2013 191.621 39.4225C193.832 40.307 195.601 38.6485 196.486 37.8745L196.707 37.985L192.837 47.3836L192.616 47.2731C192.505 45.7251 192.616 43.2925 190.294 42.1868C189.741 41.9656 188.967 41.6339 188.967 41.6339L183.107 55.8977C182.775 56.7822 183.107 57.0034 185.208 57.888C186.756 58.5514 187.972 58.4408 192.726 56.0082L193.058 56.1188L188.856 62.9743C184.434 60.7628 179.347 58.662 174.15 56.7822L174.261 56.4505C175.809 55.6765 176.362 55.2342 177.025 53.3545L187.53 26.5961C188.414 24.3847 188.304 23.5001 187.972 22.0627L188.082 21.731C193.279 23.6107 199.029 26.0433 203.452 28.1441L203.12 29.0287L201.572 34.889L201.462 34.6679Z" fill="white"/>
<path d="M210.308 62.9742L203.894 71.3777C200.135 69.0557 194.828 66.0702 190.184 63.7482L190.405 63.4165C192.063 62.7531 192.616 62.4214 193.611 60.6522L207.322 35.4418C208.539 33.341 208.428 32.4564 208.317 30.9084L208.539 30.5767C210.75 31.6824 215.615 34.2255 217.274 35.2207L217.053 35.5524C215.726 36.2158 214.841 36.5475 213.625 38.759L199.693 63.7482C199.14 64.7434 199.361 64.9645 200.467 65.6279C202.457 66.7337 204.005 66.0702 210.087 62.6425L210.308 62.9742Z" fill="white"/>
<path d="M224.903 30.1343C225.566 30.1343 226.009 30.3554 226.451 30.5766C227.999 31.4611 228.441 32.788 228.441 34.0043C228.331 37.432 224.682 40.0857 219.927 40.0857C219.153 40.0857 218.269 39.9752 218.269 39.9752V39.4223C219.817 39.0906 221.807 38.3166 223.023 36.7686C221.917 36.1052 221.143 34.8889 221.254 33.4514C221.475 31.5717 223.023 30.1343 224.903 30.1343Z" fill="white"/>
<path d="M233.417 58.9937C233.527 51.3643 233.417 48.0471 231.316 46.4991C229.878 45.504 227.888 45.6145 226.672 47.2731C224.903 49.8163 225.677 53.4651 226.561 58.8832C227.556 64.6329 228.33 70.9355 225.234 75.2478C222.47 79.0072 217.052 81.1081 211.855 77.4592C209.312 75.5795 208.98 73.6998 207.322 72.4835C206.658 72.0412 205.995 72.1518 205.331 72.8152L204.668 72.2624L211.302 63.5272L211.634 63.7483C210.418 68.6135 210.639 73.3681 213.293 75.2478C215.393 76.6852 217.826 76.3535 219.042 74.6949C220.922 72.0412 220.59 67.5078 219.816 62.0897C218.489 54.4603 218.268 50.0374 221.033 46.1674C224.018 42.0762 228.883 41.4128 232.974 44.2877C235.075 45.8357 236.07 48.1577 237.397 49.1528C237.95 49.5951 238.724 49.4846 239.166 49.2634L239.498 49.4846L233.417 58.9937Z" fill="white"/>
</svg>
