<svg width="378" height="80" viewBox="0 0 378 80" fill="none" xmlns="http://www.w3.org/2000/svg">
<path d="M275.03 19.2022L276.579 15.1759L265.739 10.8398L260.474 19.512L265.119 21.3703C265.119 21.3703 265.119 42.7409 265.119 52.3421L263.571 63.8017L275.03 66.5892L279.986 58.2268C279.986 58.2268 275.34 56.6782 275.03 56.6782V19.2022Z" fill="white"/>
<path d="M314.055 2.47998L306.931 11.7715L300.117 18.8951H303.834V55.4419L302.285 64.114L313.745 67.2112L318.7 58.8488L314.055 57.3002L313.745 18.8951H319.629L323.656 11.1521H314.055V2.47998Z" fill="white"/>
<path d="M225.785 21.992L227.643 15.7976L214.635 11.1519L205.963 27.2572C205.963 27.2572 205.963 27.2572 205.963 21.3726L207.201 15.7976L194.193 11.1519L185.211 26.3281C185.211 26.3281 185.211 22.3017 185.211 20.1337C185.211 17.9657 186.45 15.1782 186.45 15.1782L176.539 11.4616L170.964 19.5143L175.3 21.6823V58.2291L174.062 65.0429L184.282 67.8304L188.618 59.7777L185.521 58.8485V31.903L191.715 21.6823L196.361 23.5406V57.6096L195.122 65.6623L205.343 68.4498L209.989 60.0874L206.582 58.8485V32.5224L213.086 21.6823L216.493 22.9212C216.493 22.9212 216.493 51.4153 216.493 56.9902L215.254 65.0429L226.404 68.1401L230.74 59.7777L226.404 58.5388V21.992H225.785Z" fill="white"/>
<path d="M126.055 23.2312L133.179 31.5936L126.055 44.9115V23.2312ZM136.586 58.2294L126.365 55.442V49.5573L139.373 26.3284L140.922 24.4701L128.224 11.4619L122.029 18.5855L115.215 20.4438L116.144 27.877V57.61L115.215 62.5655L134.418 67.2113L140.922 55.7517L137.825 54.8225L136.586 58.2294Z" fill="white"/>
<path d="M2.78747 1.24135V21.0634H3.09719L6.50409 11.1523C6.50409 11.1523 6.50409 11.1523 16.1054 11.1523C18.8928 11.1523 25.7067 9.60375 25.7067 9.60375L26.0164 9.91346L20.1317 13.6301L20.7512 16.1078V24.78H12.6985V22.9217H8.98185V40.2659H9.29156L12.3887 31.2841H20.7512V67.5211L5.57494 48.3186C4.33606 46.77 5.57494 44.602 5.57494 44.602H3.71663C3.09719 44.9117 0 49.8672 0 55.4421C0 59.4685 1.23888 60.7073 2.16803 61.9462C5.88466 66.9017 15.4859 78.9807 15.4859 78.9807L25.0872 71.8572L33.1399 68.76L32.5205 61.3268V11.1523C32.5205 5.88712 36.8565 4.95797 36.8565 4.95797V2.78995H7.12353L5.88466 0.931641H2.78747V1.24135Z" fill="white"/>
<path d="M55.7493 24.4698C52.6521 23.2309 52.3424 21.3726 52.0327 20.4434L63.802 23.8503C62.8728 24.16 58.8465 25.7086 55.7493 24.4698ZM56.3687 57.9194L52.0327 56.6805V31.2836L60.3951 27.2572V50.7958L56.3687 57.9194ZM70.6158 57.6097V21.3726L72.4741 17.6559L54.8201 11.1519L49.8647 17.0365L41.1925 21.3726C41.812 23.5406 45.5286 26.9475 48.3161 28.1864L40.8828 30.9739L41.812 35.0002V61.636L41.1925 64.7332L53.5813 67.2109L60.7048 55.7513L60.0854 64.7332L69.6866 67.2109L74.9519 58.8485L70.6158 57.6097Z" fill="white"/>
<path d="M99.4197 30.6641V48.0084L93.8448 58.2291L90.1282 57.2999V20.7531L100.659 24.4698L98.1808 26.9475C98.4906 26.9475 99.4197 29.1155 99.4197 30.6641ZM99.4197 69.0692L91.367 67.2109L99.4197 53.5833V69.0692ZM87.031 17.0365L78.9783 20.4434L80.2172 24.1601V58.2291L78.9783 63.804L89.8184 66.5915L90.1282 67.2109C86.1018 67.5206 83.9338 69.9984 81.7658 72.1664C79.5977 74.3345 77.4297 78.6705 77.4297 78.6705L79.9074 79.5997C79.9074 79.5997 81.1463 77.1219 82.3852 76.1928C86.7213 73.4053 97.2517 78.6705 97.2517 78.6705L103.136 72.7859L109.64 70.9276V20.7531L111.189 17.6559L92.2962 11.1519L87.031 17.0365Z" fill="white"/>
<path d="M164.461 11.1519H161.983L154.55 24.4698V17.6559L155.479 14.5588L146.497 11.4616L140.612 19.824L144.948 21.3726V55.1319L143.709 63.804L158.576 67.8304L165.39 56.6805L161.673 55.4416L160.744 58.8485L154.24 56.9902V29.4253L158.266 22.6115C158.266 22.6115 161.983 33.1419 161.673 35.0002C161.673 36.5488 159.505 38.7168 159.505 38.7168L161.673 40.8848C161.673 40.8848 162.602 39.9557 164.151 38.4071C166.009 36.5488 169.726 31.5933 168.177 25.0892L164.461 11.1519Z" fill="white"/>
<path d="M335.115 23.2312L342.239 31.5936L335.115 45.2212V23.2312ZM345.645 58.2294L335.425 55.442V49.5573L348.433 26.3284L349.982 24.4701L337.283 11.4619L331.089 18.5855L324.275 20.4438L325.204 27.877V57.61L324.275 62.5655L343.477 67.2113L349.982 55.7517L346.884 54.8225L345.645 58.2294Z" fill="white"/>
<path d="M373.521 11.1519H371.043L363.61 24.4698V17.6559L364.539 14.5588L355.557 11.4616L349.672 19.824L354.008 21.3726V55.1319L352.77 63.804L367.636 67.8304L374.76 56.6805L371.043 55.4416L370.114 58.8485L363.61 56.9902V29.4253L367.636 22.6115C367.636 22.6115 371.353 33.1419 371.043 35.0002C371.043 36.5488 368.875 38.7168 368.875 38.7168L371.043 40.8848C371.043 40.8848 371.972 39.9557 373.521 38.4071C375.379 36.5488 379.096 31.5933 377.547 25.0892L373.521 11.1519Z" fill="white"/>
<path d="M244.677 23.2312L251.801 31.5936L244.677 45.2212V23.2312ZM254.898 58.2294L244.677 55.442V49.5573L257.685 26.3284L259.234 24.4701L246.536 11.4619L240.341 18.5855L233.527 20.4438L234.457 27.877V57.61L233.527 62.5655L252.73 67.2113L259.234 55.7517L256.137 54.8225L254.898 58.2294Z" fill="white"/>
<path d="M307.24 1.85831C304.143 6.19437 300.427 3.4069 300.427 3.4069L295.781 0L290.206 5.88466L282.463 8.05268L283.702 12.3887V78.6685H287.728C287.728 75.5713 290.516 73.0936 293.613 73.0936H293.922V10.2207C296.71 11.7693 300.736 12.3887 303.833 10.5304L309.408 3.09719L307.24 1.85831Z" fill="white"/>
</svg>
