<svg width="169" height="66" viewBox="0 0 169 66" fill="none" xmlns="http://www.w3.org/2000/svg">
<path d="M8.78293 13.7419V14.3492C16.0779 14.3492 23.1435 14.3492 29.3295 14.2333C29.2125 15.9348 29.2125 19.2681 29.2125 20.9696C23.1388 21.0067 16.0357 20.9325 8.82036 20.9325C8.89523 23.844 8.97478 26.723 9.08708 29.0689H0C0.0748678 25.1699 0.112302 20.8954 0.112302 14.8777C0.112302 8.86002 0.112302 4.54842 0.0374339 0.686523H29.6336C29.5962 1.5952 29.5587 2.99532 29.5587 4.13117C29.5587 5.49419 29.5962 6.96848 29.6336 7.98843C22.1468 7.95134 14.777 7.91425 8.78293 7.91425V13.7419Z" fill="white"/>
<path d="M43.5777 20.0234C43.5777 22.2951 45.3745 23.1621 51.7476 23.1621C58.1208 23.1621 59.6134 22.3276 59.6134 20.9275C59.6134 19.4532 58.6963 18.4286 50.3719 17.8259C38.3416 16.8801 35.0568 14.0428 35.0568 8.78083C35.0568 3.51882 39.7173 0 51.1347 0C63.3943 0 67.5167 2.64723 67.5167 8.21058C67.5167 8.7391 67.4792 9.27226 67.4418 9.87495C66.5247 9.80078 64.9618 9.76369 63.3568 9.76369C61.7518 9.76369 60.1469 9.80078 59.1923 9.87495V9.11927C59.1923 7.33899 58.0084 6.43495 50.9428 6.43495C44.8692 6.43495 43.6479 7.19064 43.6479 8.47948C43.6479 9.68951 44.3732 10.6353 53.2731 11.391C64.3114 12.4109 68.0922 14.8727 68.0922 20.5844C68.0922 26.2961 63.6984 29.7408 51.8225 29.7408C39.3336 29.7408 34.8275 26.8664 34.8275 21.4931C34.8275 20.8858 34.8275 20.2089 34.9445 19.5645C35.9739 19.6804 37.6163 19.7916 39.1839 19.7916C40.8263 19.7916 42.3564 19.7545 43.5777 19.6804V20.0188V20.0234Z" fill="white"/>
<path d="M101.287 0.686523C101.212 1.5952 101.212 3.03241 101.212 4.32125C101.212 5.53128 101.212 7.08438 101.287 8.10433C97.4685 7.98843 93.6877 7.98843 90.3654 7.98843C90.3654 17.7521 90.4029 26.8714 90.5198 29.1014C89.336 28.9901 87.3894 28.9901 86.0512 28.9901C84.7129 28.9901 82.8786 28.9901 81.6199 29.1014C81.7743 26.9085 81.8118 17.7892 81.8118 7.98843C78.4895 7.98843 74.7087 7.98843 70.8904 8.10433C70.9279 7.08438 70.9279 5.53128 70.9279 4.32125C70.9279 3.03241 70.9279 1.63693 70.8904 0.686523H101.291H101.287Z" fill="white"/>
<path d="M140.625 0.686523C136.882 7.91425 129.624 24.2612 127.832 29.0643C125.96 28.9901 123.859 28.9901 121.646 28.9901C118.937 28.9901 116.911 29.0272 115.193 29.0643C113.359 24.2983 105.877 7.68708 102.017 0.686523H112.826C113.514 3.41257 117.22 12.4901 119.929 18.7721C120.617 20.3623 121.188 21.6836 121.609 22.8194C122.105 21.6836 122.638 20.3205 123.326 18.735C125.923 12.4901 129.629 3.48675 130.541 0.686523H140.625Z" fill="white"/>
<path d="M153.343 0.686276C153.231 2.84208 153.151 8.44252 153.151 14.8357V21.6462C157.503 21.6462 163.844 21.6833 169 21.535C168.963 22.745 168.925 24.0338 168.925 25.2809C168.925 26.5281 168.963 27.8169 169 29.064H144.369C144.369 26.4539 144.486 20.9276 144.486 14.8728C144.486 8.32662 144.486 3.40768 144.369 0.681641H153.343V0.686276Z" fill="white"/>
<path d="M8.31495 51.7296C6.97669 51.5395 5.87239 51.3494 5.03013 50.9739C2.55013 49.838 1.55346 48.2107 1.55346 45.035C1.55346 39.7359 5.14243 37.6172 11.9414 37.6172H34.6263C34.397 41.4003 34.397 45.7907 34.397 51.8084C34.397 57.8261 34.397 62.0264 34.6263 65.9996H11.4454C4.45458 65.9996 1.13232 63.6537 1.13232 58.5076C1.13232 55.1788 2.39104 53.3986 5.60099 52.3786C6.32628 52.1144 7.24341 51.9985 8.31495 51.8872V51.7342V51.7296ZM10.1866 46.0179C10.1866 48.0624 11.6372 49.0082 14.6553 49.0452C17.9776 49.0452 21.6835 49.1194 25.8808 48.9711V43.5607C21.6414 43.5236 17.9355 43.4865 14.426 43.4865C11.4454 43.4865 10.1866 44.168 10.1866 46.0225V46.0179ZM14.3512 59.6017C17.636 59.6017 21.225 59.6017 25.8481 59.5275C25.8855 57.9002 25.8855 56.0829 25.8855 54.2284C21.8005 54.1172 17.9027 54.1172 14.6179 54.1172C11.2956 54.1172 9.95736 54.7987 9.95736 56.7273C9.95736 58.9202 11.2161 59.6017 14.3512 59.6017Z" fill="white"/>
<path d="M47.6439 60.0652C52.2491 60.0652 55.9823 56.3663 55.9823 51.8036C55.9823 47.2408 52.2491 43.542 47.6439 43.542C43.0388 43.542 39.3055 47.2408 39.3055 51.8036C39.3055 56.3663 43.0388 60.0652 47.6439 60.0652Z" fill="white"/>
</svg>
