<svg width="368" height="86" viewBox="0 0 368 86" fill="none" xmlns="http://www.w3.org/2000/svg">
<g clip-path="url(#clip0_202_196)">
<path d="M21.2701 44.1801C17.3701 43.6201 14.1301 43.0701 11.6801 41.9501C4.43006 38.6101 1.53006 33.8101 1.53006 24.4501C1.53006 8.8401 12.0101 2.6001 31.8601 2.6001H98.0901C97.4201 13.7501 97.4201 26.6801 97.4201 44.4101C97.4201 62.1401 97.4201 74.5101 98.0901 86.2201H30.4101C10.0101 86.2201 0.310059 79.3101 0.310059 64.1401C0.310059 54.3301 3.99006 49.0901 13.3501 46.0801C15.4701 45.3001 18.1501 44.9701 21.2701 44.6301V44.1801ZM26.7301 27.3401C26.7301 33.3601 30.9701 36.1501 39.7801 36.2601C49.4801 36.2601 60.3001 36.4801 72.5601 36.0401C72.5601 30.3501 72.5601 24.7801 72.5601 20.1001C60.1801 19.9901 49.3701 19.8801 39.1101 19.8801C30.4101 19.8801 26.7301 21.8901 26.7301 27.3501V27.3401ZM38.8801 67.3701C48.4701 67.3701 58.9501 67.3701 72.4401 67.1501C72.5501 62.3601 72.5501 57.0001 72.5501 51.5401C60.6201 51.2101 49.2501 51.2101 39.6601 51.2101C29.9601 51.2101 26.0601 53.2201 26.0601 58.9001C26.0601 65.3701 29.7401 67.3701 38.8801 67.3701Z" fill="black"/>
<path d="M136.09 68.75C149.538 68.75 160.44 57.8482 160.44 44.4C160.44 30.9519 149.538 20.05 136.09 20.05C122.642 20.05 111.74 30.9519 111.74 44.4C111.74 57.8482 122.642 68.75 136.09 68.75Z" fill="black"/>
<path d="M174.2 72.0701C174.2 53.0301 189.12 47.5701 212.17 42.4501C233.33 37.6601 239.45 35.5501 239.45 28.2001C239.45 22.6301 233.66 19.1801 220.07 19.1801C204.48 19.1801 199.25 23.3001 199.25 30.7601C199.25 32.4301 199.25 33.7701 199.36 35.6601C196.91 35.4401 191.79 35.3301 187.22 35.3301C182.65 35.3301 177.87 35.4401 174.97 35.6601C174.86 33.5401 174.75 31.4301 174.75 29.5401C174.75 10.2801 191.34 0.370117 220.07 0.370117C250.25 0.370117 263.83 11.5101 263.83 27.0901C263.83 44.2401 253.14 49.9201 225.19 55.0401C205.48 58.7101 199.58 60.5001 198.47 64.9501C209.72 64.9501 223.08 64.7301 230.87 64.7301C242.67 64.7301 253.36 64.6201 262.61 64.4001C262.5 67.6301 262.39 72.3101 262.39 76.8701C262.39 80.4301 262.39 83.5501 262.61 85.3301H174.09C174.2 83.8801 174.2 81.2101 174.2 78.5401V72.0801V72.0701Z" fill="black"/>
<path d="M302.37 58.6001C302.37 64.7201 307.27 67.9501 323.97 67.9501C340.67 67.9501 345.13 64.8301 345.13 57.1501C345.13 49.4701 339.23 46.1301 323.75 46.1301C312.28 46.1301 304.71 47.8001 302.15 50.8101C295.02 49.3601 285.56 48.4701 279.43 48.6901C279.76 43.4601 279.65 34.3301 279.65 27.5301C279.65 17.8401 279.65 8.04006 279.09 1.81006C294.01 2.03006 305.03 2.03006 324.63 2.03006C341.78 2.03006 352.02 2.03006 365.94 1.81006C365.61 4.48006 365.61 7.15006 365.61 12.1701C365.61 16.4001 365.72 18.6301 365.94 22.0801C358.92 21.6401 342.67 21.6401 337.32 21.6401C328.52 21.6401 314.71 21.5301 301.91 21.8601V29.7701C301.91 32.1101 301.91 34.4501 302.02 36.6701C308.81 33.7701 317.94 31.9901 330.19 31.9901C356.36 31.9901 368.49 40.5601 368.49 57.7101C368.49 77.3101 352.79 86.8801 323.84 86.8801C289.66 86.8801 278.85 77.3001 278.85 60.8201C278.85 59.5901 278.85 58.3701 278.96 57.0301C282.19 57.4801 285.75 57.5901 290.43 57.5901C295.11 57.5901 299.34 57.4801 302.34 57.0301V58.5901L302.37 58.6001Z" fill="black"/>
</g>
<defs>
<clipPath id="clip0_202_196">
<rect width="368" height="86" fill="white"/>
</clipPath>
</defs>
</svg>
