<svg width="182" height="81" viewBox="0 0 182 81" fill="none" xmlns="http://www.w3.org/2000/svg">
<path d="M55.6823 32.1652C54.4763 29.8534 51.3605 29.5517 48.7469 29.4514C46.4352 29.3512 47.2392 30.7577 47.4407 30.9592C50.5565 35.4825 50.8582 41.2118 49.954 46.3376C49.0497 51.4635 46.0342 54.3788 44.8281 55.3843C42.7169 57.0926 40.5063 57.0926 39.5008 56.7918C39.4006 56.7918 39.0988 56.6916 38.8973 56.4901C38.797 56.4901 38.797 56.3898 38.8973 56.1883C39.0988 55.8865 40.2036 54.5803 40.8071 53.8765C42.8171 51.4645 45.3304 47.7452 42.8171 44.0259C40.4051 40.4078 39.9018 40.3066 39.3995 40.5081C39.0978 40.7096 38.9975 40.9101 38.394 42.1161C37.8918 43.3221 37.4898 44.3276 35.178 48.6494C34.9765 49.1517 33.8717 50.9612 33.57 50.9612C33.2682 50.9612 32.2637 48.2474 31.8617 46.0359C30.5554 39.0003 32.6657 34.2755 35.2792 30.5562C40.3048 23.6208 48.2457 26.3346 48.7479 25.2288C49.15 24.4248 48.7479 23.4193 46.9384 22.515C42.0131 19.9015 36.1835 21.1075 32.2637 23.9226C29.8517 25.6308 26.5344 28.7476 24.8261 34.075C20.403 47.7452 26.8361 55.7863 27.7414 57.2941C27.8416 57.4956 27.8416 57.5958 27.7414 57.7963C26.7359 59.3041 18.6948 66.5412 15.579 66.4409C12.7649 66.3407 11.2572 51.0625 12.9654 33.8745C13.3674 29.5527 15.0767 20.8078 12.5634 14.8769C11.6592 12.8669 8.74387 9.34912 4.02005 9.34912C2.91429 9.34912 1.80852 9.44937 1.30626 9.55063C0.70275 9.65088 0 9.95263 0 10.4549C0 11.1586 1.60802 12.5662 2.51329 13.9727C4.42307 16.888 5.42859 22.1141 4.52332 33.4725C3.61906 43.5236 4.62357 72.2715 9.44864 77.1959C9.9509 77.6981 10.5544 77.9999 11.1569 77.8996C16.6847 77.6981 26.2336 70.3608 32.5665 63.7272C32.768 63.5257 33.3705 62.8229 33.7725 62.5211C33.8727 62.4209 34.0742 62.4209 34.1745 62.4209C34.9785 62.7227 37.0898 64.0289 40.3058 64.0289C54.0743 63.9277 62.8191 45.7341 55.6823 32.1652Z" fill="white"/>
<path d="M148.759 41.1106C141.422 38.7988 141.422 31.6619 141.924 28.1441C143.23 19.0975 147.05 15.4794 144.537 10.0519C144.035 9.04634 142.728 7.84032 141.723 7.43832C138.004 6.33255 133.682 9.04634 130.466 12.8659C128.456 15.1777 128.255 15.3792 124.737 20.2032C124.535 20.505 123.129 22.4148 122.827 22.3145C122.525 22.2143 122.827 21.309 122.927 20.907C123.028 20.3035 123.229 19.8012 123.531 18.9972C125.742 12.5641 130.064 2.01074 118.907 1.40723C118.706 1.40723 118.103 1.50747 118.003 1.80923C117.802 2.11099 118.003 2.41275 118.205 3.01525C120.215 7.94057 115.793 22.7165 111.973 28.9481C109.963 32.1642 110.968 38.7988 113.079 40.105C113.883 40.6073 115.29 40.2053 116.697 38.6975C121.622 33.1697 132.779 19.8012 136.297 17.5897C136.297 17.5897 137.603 16.5842 137.704 17.8915C137.704 18.1932 137.704 18.897 137.503 19.9015C133.985 33.7722 133.683 38.9993 137.403 41.7131C138.609 42.6173 142.126 45.0304 148.962 42.5171C149.263 42.4168 149.565 42.0148 149.565 41.8133C149.261 41.6128 149.161 41.2108 148.759 41.1106Z" fill="white"/>
<path d="M181.829 36.9895C181.125 32.0642 179.015 29.0487 177.004 28.6467C171.978 27.8427 167.757 27.9429 162.932 28.8482C161.524 29.1499 160.118 29.4517 158.61 29.8537C158.108 29.9539 158.208 29.6522 158.308 29.4517C158.61 29.0497 159.212 28.4462 159.414 28.2457C162.228 25.6321 175.396 17.2893 177.205 15.3795C178.009 14.4752 179.417 13.4697 178.713 10.0522C177.909 6.2326 167.053 1.60903 161.023 1.80952C157.405 1.90977 150.268 3.51779 149.464 12.7659C149.464 13.2682 149.866 13.6702 150.067 13.6702C150.369 13.6702 150.671 13.5699 150.871 13.3684C152.983 11.1569 153.686 9.95089 157.103 9.54888C162.933 8.74487 168.059 10.8551 169.064 11.8607C169.566 12.3629 169.366 12.9664 168.058 13.7704C166.852 14.5745 166.048 15.0767 163.435 16.6857C151.272 24.2246 149.765 27.3404 148.257 29.8527C147.151 31.6622 146.649 33.974 147.553 35.582C147.955 36.1855 149.765 38.5976 151.574 39.2001C152.076 39.4016 152.78 39.0998 152.88 39.0998C163.334 34.9785 171.677 35.582 178.11 37.19C179.215 37.4918 180.019 37.7936 180.421 37.8938C180.924 38.0953 181.326 38.0953 181.627 37.8938C181.829 37.6933 181.829 37.2913 181.829 36.9895Z" fill="white"/>
<path d="M60.5075 28.9484C61.513 30.8582 62.8193 34.5775 63.121 37.1911C63.7246 42.1164 63.523 44.3279 63.0208 48.1475C62.9205 48.6497 63.0208 49.2532 63.925 49.8557C65.2313 50.5595 67.5431 51.4638 70.1566 51.2633C71.2624 51.163 71.7647 50.9615 71.7647 49.4537C71.3626 39.8046 72.3682 32.6677 74.68 24.5264C76.9917 16.0832 81.2133 10.5544 84.4304 7.64013C85.5361 6.53436 87.8479 5.6301 89.9582 6.2326C90.8624 6.43411 91.0639 5.93085 91.1642 5.62909C91.3657 4.52332 87.6464 0 85.0329 0C83.2233 0 81.9171 0.603515 80.6098 1.40753C75.3827 4.72483 69.6534 13.6702 67.8449 23.2191C67.5431 24.2246 67.4428 24.2246 67.3426 25.5309C67.3426 25.8326 67.1411 26.5364 66.9406 26.6366C66.6388 26.6366 66.8403 26.3349 65.8348 25.3304C65.6333 25.1289 65.2313 24.8281 64.8293 24.7269C63.7235 24.3249 61.512 24.0231 59.502 24.3249C58.5977 24.4251 58.0945 24.9284 58.698 25.6311C58.8995 26.1344 59.502 26.9384 60.5075 28.9484Z" fill="white"/>
<path d="M123.328 39.4028C122.625 39.4028 122.524 40.3071 119.71 44.4284C115.991 49.7557 108.05 59.7066 89.8577 68.1498C89.8577 68.1498 67.3424 79.6084 37.992 75.1853C37.4897 75.0851 35.7804 74.7833 35.3784 74.7833C34.3729 74.5818 34.1724 75.4871 35.6802 76.0896C36.5844 76.4916 38.6957 77.0951 39.198 77.2956C71.7644 86.4425 107.85 73.9783 123.73 51.2625C126.144 47.846 124.937 39.4028 123.328 39.4028Z" fill="white"/>
<path d="M88.5505 27.5421C88.8523 26.7381 88.9525 26.5365 89.3545 25.6323C89.3545 25.6323 89.7565 24.8283 90.2588 23.7225C94.4803 15.5811 100.511 12.1636 102.521 11.8618C103.024 11.7616 103.225 11.9621 103.426 12.0633C103.526 12.1636 103.727 12.3651 103.627 12.8673C103.426 13.5711 102.321 16.4854 98.9034 20.4062C94.5816 25.532 89.8568 28.2468 89.8568 28.2468C89.3545 28.5486 88.6507 28.9506 88.4492 28.8503C88.1485 28.7481 88.35 27.9441 88.5505 27.5421ZM103.226 24.9285C109.056 19.4007 115.791 7.33851 108.352 5.83074C87.3445 1.60918 64.9294 42.719 90.0583 45.6343C99.2052 46.6398 105.035 39.6032 106.141 36.7892C106.844 35.1812 107.347 31.1601 107.045 28.1446C107.045 27.9431 106.843 27.139 106.341 27.139C105.839 27.139 105.537 27.8428 105.437 27.9431C105.035 28.6468 104.532 29.6513 103.728 30.8583C101.115 34.8794 97.4969 38.9997 92.5716 39.2012C91.0638 39.3015 88.5505 38.8995 87.948 36.3872C87.7465 35.5832 87.7465 35.4829 88.35 35.1812C89.6563 34.6789 90.8633 34.0754 92.3711 33.1711C96.2909 31.2604 101.215 26.737 103.226 24.9285Z" fill="white"/>
</svg>
