<svg width="324" height="81" viewBox="0 0 324 81" fill="none" xmlns="http://www.w3.org/2000/svg">
<path d="M5.93671 34.2634L1.18734 32.5672C0.848101 32.3976 0.50886 32.228 0.33924 32.0584C-3.2858e-07 31.8888 0 31.5495 0 31.0407V26.8001C0 26.2913 6.44522e-07 25.952 0.169621 25.7824C0.339241 25.6128 0.508861 25.4432 1.01772 25.2736L15.6051 22.0508C15.7747 22.0508 15.7747 22.0508 15.7747 22.0508H15.9443C16.7924 22.0508 17.4709 22.5596 17.6405 23.4077L19.3367 29.1748C19.8456 28.4964 20.3544 27.8179 20.8633 27.309C21.3722 26.6305 22.0506 26.1217 22.7291 25.6128C24.0861 24.5951 25.443 23.9166 27.1392 23.4077C28.6658 22.8989 30.362 22.7293 31.8886 22.7293H33.9241C34.4329 22.7293 34.9418 22.8989 35.1114 23.0685C35.281 23.2381 35.4506 23.747 35.4506 24.2558V33.7546C35.4506 34.2634 35.281 34.7723 35.1114 34.9419C34.9418 35.1115 34.4329 35.2812 33.9241 35.2812H33.5848C32.5671 35.2812 31.3797 35.2812 30.1924 35.4508C29.0051 35.6204 27.8177 35.79 26.8 36.1293C25.7823 36.4685 24.5949 36.9774 23.7468 37.4862C22.7291 38.1647 22.0506 38.8432 21.3722 40.0305C21.2025 40.3698 21.0329 40.5394 20.8633 40.8786C20.6937 41.2179 20.6937 41.5571 20.5241 41.7267C20.3544 42.4052 20.1848 43.0837 20.1848 43.7622C20.1848 44.4407 20.0152 45.1191 20.0152 45.7976V69.7141L24.7646 71.4103C25.1038 71.5799 25.443 71.7495 25.6127 71.9191C25.7823 72.0888 25.7823 72.428 25.7823 72.9369V77.0077C25.7823 77.5166 25.6127 78.0255 25.443 78.1951C25.443 78.3647 24.9342 78.5343 24.2557 78.5343H1.6962C1.18734 78.5343 0.678481 78.3647 0.508861 78.1951C0.339241 78.0255 0.169621 77.6862 0.169621 77.0077V72.9369C0.169621 72.428 0.16962 72.0888 0.33924 71.9191C0.50886 71.7495 0.848101 71.5799 1.18734 71.4103L5.93671 69.7141V34.2634Z" fill="white"/>
<path d="M70.7316 53.5998H68.0177C67 53.5998 65.9823 53.5998 64.7949 53.7694C63.6076 53.939 62.5899 54.1087 61.5721 54.2783C60.5544 54.6175 59.5367 54.9568 58.6886 55.4656C57.8405 55.9745 56.9924 56.8226 56.3139 57.6707C55.9747 58.1795 55.6354 58.858 55.4658 59.5365C55.1266 60.3846 54.9569 61.4023 54.9569 62.4201C54.9569 63.4378 55.1266 64.4555 55.4658 65.3036C55.805 66.3213 56.3139 66.9998 56.9924 67.6783C57.6709 68.3568 58.3493 69.0352 59.1974 69.3745C60.0456 69.7137 61.0633 70.053 62.081 70.053C62.9291 70.053 63.7772 69.8833 64.6253 69.7137C65.4734 69.5441 66.1519 69.2049 66.8304 68.696C67.5088 68.3568 68.1873 67.8479 68.8658 67.339C69.5443 66.8302 70.0531 66.3213 70.7316 65.6428V53.5998ZM89.0506 71.4099C89.3899 71.5796 89.7291 71.7492 89.8987 71.9188C90.0683 72.0884 90.0683 72.4277 90.0683 72.9365V77.0074C90.0683 77.3466 90.0683 77.8555 89.8987 78.0251C89.7291 78.3644 89.5595 78.534 89.0506 78.534L75.6506 79.8909C75.481 79.8909 75.3114 79.8909 74.9721 79.8909C74.8025 79.8909 74.6329 79.8909 74.2937 79.8909C73.7848 79.8909 73.4456 79.7213 73.2759 79.5517C73.1063 79.2125 72.9367 78.8732 72.7671 78.534L71.5797 74.8023C70.9012 75.4808 70.0531 75.9897 69.3747 76.6682C68.6962 77.3466 67.8481 77.6859 67 78.1947C65.643 78.8732 64.2861 79.3821 62.9291 79.5517C61.5721 79.8909 60.0455 79.8909 58.6886 79.8909C57.3316 79.8909 55.9747 79.7213 54.6177 79.5517C53.2607 79.3821 52.0734 78.8732 50.7164 78.3644C49.6987 77.8555 48.681 77.3466 47.6633 76.4985C46.6455 75.6504 45.6278 74.8023 44.9493 73.7846C44.2709 72.7669 43.5924 71.5796 43.0835 70.3922C42.5747 69.2049 42.2354 68.0175 42.0658 66.6606C41.8962 65.3036 41.7266 64.1163 41.7266 62.7593C41.7266 61.7416 41.7266 60.7238 41.8962 59.8757C42.0658 58.858 42.2354 57.8403 42.405 56.9922C42.7443 55.8049 43.2531 54.6175 43.9316 53.4302C44.2709 52.9213 44.6101 52.4125 44.9493 52.0732C45.2886 51.5644 45.6278 51.2251 45.9671 50.7163C46.6455 50.0378 47.4937 49.3593 48.1721 48.6808C49.0202 48.172 49.8683 47.6631 50.7164 47.1542C51.5645 46.6454 52.4126 46.3061 53.4304 45.9669C54.2785 45.6277 55.2962 45.458 56.3139 45.1188C57.5012 44.7796 58.6886 44.6099 59.8759 44.4403C61.0633 44.2707 62.2506 44.1011 63.438 44.1011C64.6253 43.9314 65.8126 43.9314 67.1696 43.9314C68.3569 43.9314 69.5443 43.9314 70.7316 43.7618V40.3694C70.7316 39.6909 70.7316 38.8428 70.562 37.9947C70.562 37.1466 70.3924 36.4682 70.0531 35.7897C69.8835 35.1112 69.3747 34.4327 68.8658 33.9239C68.3569 33.415 67.5088 32.9061 66.6607 32.5669C65.9823 32.3973 65.3038 32.2277 64.6253 32.058C63.9468 32.058 63.2683 31.8884 62.5899 31.8884C61.0633 31.8884 59.3671 32.058 57.8405 32.3973C56.3139 32.7365 54.7873 33.0757 53.2607 33.5846C52.7519 33.7542 52.243 33.9239 51.9038 34.0935C51.3949 34.2631 51.0557 34.4327 50.5468 34.6023C50.2076 34.772 50.038 34.772 49.6987 34.9416C49.3595 35.1112 49.0202 35.1112 48.8506 35.1112C48.5114 35.1112 48.1721 34.9416 48.0025 34.772C47.8329 34.6023 47.6633 34.2631 47.6633 33.9239L45.2886 26.9694C45.2886 26.7998 45.119 26.6302 45.119 26.6302C45.119 26.4606 45.119 26.2909 45.119 26.2909C45.119 25.9517 45.119 25.7821 45.2886 25.6125C45.4582 25.4428 45.6278 25.2732 45.7974 25.1036C45.9671 24.934 46.3063 24.7644 46.4759 24.5947C46.8152 24.4251 46.9848 24.4251 47.1544 24.2555L47.8329 23.9163C48.0025 23.9163 48.1721 23.7466 48.1721 23.7466C48.3418 23.7466 48.5114 23.577 48.681 23.577C48.8506 23.577 49.0202 23.4074 49.0202 23.4074C49.1899 23.4074 49.3595 23.2378 49.5291 23.2378C51.9038 22.3897 54.2785 21.8808 56.6531 21.5416C59.0278 21.2023 61.5721 21.0327 64.1164 21.0327C65.4734 21.0327 67 21.0327 68.3569 21.2023C69.7139 21.372 71.2405 21.5416 72.5975 21.8808C73.9544 22.2201 75.3114 22.7289 76.4987 23.4074C77.6861 24.0859 78.8734 24.934 79.8911 26.1213C80.5696 26.7998 81.2481 27.6479 81.7569 28.496C82.0962 29.0049 82.2658 29.5137 82.605 30.0226C82.7747 30.5314 82.9443 31.0403 83.1139 31.5492C83.4531 32.7365 83.6228 33.9239 83.7924 35.1112C83.7924 36.2985 83.962 37.4859 83.962 38.6732V69.0352L89.0506 71.4099Z" fill="white"/>
<path d="M130.947 34.7719C130.269 34.4327 129.59 34.0934 128.912 33.9238C128.233 33.7542 127.555 33.4149 127.046 33.2453C126.368 33.0757 125.689 32.9061 125.011 32.9061C124.332 32.9061 123.654 32.7364 122.806 32.7364C121.957 32.7364 121.279 32.7365 120.431 32.9061C119.583 32.9061 118.904 33.2453 118.056 33.4149C117.378 33.7542 116.699 34.0934 116.021 34.6023C115.512 35.1111 115.003 35.62 114.664 36.2985C114.325 36.977 113.985 37.6554 113.646 38.3339C113.307 39.0124 113.137 39.6909 112.968 40.539C112.798 41.3871 112.628 42.0656 112.628 42.744C112.628 43.4225 112.459 44.2706 112.459 44.9491C112.459 45.458 112.459 45.9668 112.289 46.4757C112.289 46.9846 112.289 47.4934 112.289 48.0023C112.289 48.6808 112.289 49.3592 112.289 49.8681C112.289 50.5466 112.289 51.2251 112.289 51.7339C112.289 52.9213 112.289 54.1086 112.289 55.1263C112.289 55.4656 112.289 55.9744 112.459 56.4833C112.459 56.8225 112.459 57.3314 112.628 57.8402C112.798 58.858 112.798 59.8757 112.968 61.063C113.137 62.2504 113.476 63.2681 113.816 64.2858C114.155 65.3035 114.664 66.3213 115.342 66.9997C116.021 67.8478 116.869 68.5263 117.887 68.8656C118.565 69.0352 119.244 69.2048 119.752 69.3744C120.431 69.3744 121.109 69.544 121.788 69.544C122.806 69.544 123.654 69.544 124.671 69.3744C125.689 69.2048 126.537 68.8656 127.385 68.5263C128.064 68.1871 128.742 67.8478 129.251 67.339C129.76 66.8301 130.438 66.3213 130.947 65.8124V34.7719ZM150.114 71.4099C150.623 71.5795 150.793 71.7491 150.963 71.9187C151.132 72.0883 151.132 72.4276 151.132 72.9365V77.0073C151.132 77.5162 151.132 77.8554 150.963 78.0251C150.793 78.3643 150.454 78.5339 150.114 78.5339L136.714 79.8909C136.545 79.8909 136.375 79.8909 136.036 79.8909C135.866 79.8909 135.697 79.8909 135.357 79.8909C134.849 79.8909 134.509 79.7213 134.34 79.5516C134.17 79.2124 134.001 78.8732 133.831 78.5339L132.644 74.6327C131.117 75.6504 129.76 76.6681 128.064 77.6858C126.537 78.5339 124.841 79.2124 122.975 79.7213C121.957 79.8909 120.94 80.2301 120.092 80.2301C119.074 80.3997 118.056 80.3997 117.038 80.3997C115.851 80.3997 114.664 80.3997 113.646 80.2301C112.459 80.0605 111.441 79.8909 110.254 79.382C108.897 78.8732 107.54 78.0251 106.522 77.0073C105.335 75.9896 104.487 74.9719 103.469 73.6149C102.621 72.4276 101.942 71.2402 101.264 69.8833C100.585 68.5263 100.076 67.1694 99.7372 65.8124C99.398 64.4554 99.0587 63.0985 98.7195 61.5719C98.5499 60.2149 98.3803 58.6883 98.2106 57.3314C98.2106 56.3137 98.041 55.4656 98.041 54.4478C98.041 53.4301 98.041 52.582 98.041 51.5643C98.041 50.5466 98.041 49.6985 98.041 48.6808C98.041 47.663 98.2106 46.8149 98.2106 45.7972C98.2106 44.9491 98.3803 44.101 98.3803 43.2529C98.5499 42.4048 98.5499 41.5567 98.7195 40.7086C98.8891 39.3516 99.2284 38.1643 99.7372 36.8073C100.076 35.4504 100.585 34.263 101.264 33.0757C101.773 31.8883 102.451 30.701 103.299 29.5137C103.978 28.3263 104.826 27.3086 105.844 26.4605C106.861 25.4428 107.879 24.5947 108.897 23.9162C110.084 23.2377 111.271 22.5592 112.628 22.22C113.816 21.8808 114.833 21.5415 116.021 21.5415C117.208 21.3719 118.395 21.3719 119.413 21.3719C120.431 21.3719 121.449 21.3719 122.466 21.5415C123.484 21.7111 124.502 21.8808 125.519 22.0504C126.537 22.3896 127.385 22.7289 128.233 23.0681C129.082 23.4073 129.93 23.9162 130.947 24.4251V13.3997L126.198 11.7035C125.689 11.5339 125.519 11.3643 125.35 11.1947C125.18 11.0251 125.18 10.6858 125.18 10.177V5.93645C125.18 5.42759 125.18 5.08835 125.35 4.91873C125.519 4.74911 125.689 4.57949 126.198 4.40987L142.99 0.84784C143.16 0.84784 143.33 0.847843 143.499 0.678223C143.669 0.678223 143.838 0.678223 144.008 0.678223C144.517 0.678223 144.687 0.847841 145.026 1.01746C145.195 1.3567 145.365 1.69594 145.365 2.03518V69.7137L150.114 71.4099Z" fill="white"/>
<path d="M182.681 8.98988C182.681 10.3468 182.342 11.5342 182.003 12.5519C181.494 13.7392 180.815 14.5873 179.967 15.4354C179.119 16.2835 178.101 16.962 177.084 17.4709C175.896 17.9797 174.709 18.1494 173.522 18.1494C172.165 18.1494 171.147 17.9797 169.96 17.4709C168.772 16.962 167.924 16.2835 167.076 15.4354C166.228 14.5873 165.549 13.5696 165.041 12.5519C164.532 11.3646 164.362 10.1772 164.362 8.98988C164.362 7.63291 164.532 6.44557 165.041 5.42785C165.549 4.24051 166.228 3.39241 167.076 2.5443C167.924 1.6962 168.942 1.01772 170.129 0.678484C171.317 0.169623 172.504 0 173.691 0C174.879 0 176.066 0.169623 177.253 0.678484C178.441 1.18734 179.289 1.86582 180.137 2.71392C180.985 3.56203 181.663 4.57975 182.172 5.59747C182.681 6.61519 182.681 7.80253 182.681 8.98988ZM166.737 34.9418L161.987 33.2456C161.648 33.076 161.309 32.9063 161.139 32.7367C160.97 32.5671 160.97 32.2279 160.97 31.719V27.4785C160.97 26.9696 160.97 26.6304 161.139 26.4608C161.309 26.1215 161.648 26.1215 161.987 25.9519L178.78 22.3899C178.949 22.3899 179.119 22.3899 179.289 22.2203C179.458 22.2203 179.628 22.2203 179.798 22.2203C180.306 22.2203 180.476 22.3899 180.646 22.5595C180.815 22.8987 180.985 23.238 180.985 23.5772V69.7139L185.734 71.4101C186.243 71.5798 186.413 71.7494 186.582 71.919C186.752 72.0886 186.752 72.4279 186.752 72.9367V77.0076C186.752 77.5165 186.582 78.0253 186.413 78.1949C186.243 78.3646 185.734 78.5342 185.225 78.5342H162.496C161.987 78.5342 161.479 78.3646 161.309 78.1949C161.139 78.0253 160.97 77.5165 160.97 77.0076V72.9367C160.97 72.4279 160.97 72.0886 161.139 71.919C161.309 71.7494 161.648 71.5798 161.987 71.4101L166.737 69.7139V34.9418Z" fill="white"/>
<path d="M230.345 51.2252C230.345 50.0379 230.345 49.0202 230.345 47.8328C230.345 47.324 230.345 46.9847 230.345 46.4759C230.345 45.967 230.345 45.6278 230.175 45.1189C230.006 44.4404 230.006 43.5923 229.836 42.9138C229.666 42.0657 229.497 41.3873 229.327 40.5392C229.158 39.6911 228.818 39.0126 228.649 38.1645C228.309 37.3164 227.97 36.6379 227.631 36.129C227.122 35.4505 226.613 34.9417 226.104 34.4328C225.426 33.924 224.747 33.5847 224.069 33.4151C223.56 33.2455 223.051 33.0759 222.712 33.0759C222.203 33.0759 221.694 32.9062 221.355 32.9062C220.846 32.9062 220.337 32.9062 219.998 33.0759C219.489 33.0759 219.15 33.2455 218.641 33.4151C217.793 33.7543 216.945 34.0936 216.266 34.7721C215.588 35.4505 215.079 36.129 214.57 36.9771C214.061 37.8252 213.722 38.6733 213.552 39.5214C213.383 40.3695 213.044 41.3873 212.874 42.2354C212.874 42.5746 212.704 42.9138 212.704 43.2531C212.704 43.5923 212.535 43.9316 212.535 44.2708C212.535 44.7797 212.365 45.4581 212.365 45.967C212.365 46.4759 212.365 47.1543 212.196 47.6632C212.196 48.1721 212.196 48.6809 212.196 49.3594C212.196 49.8683 212.196 50.3771 212.196 51.0556C212.196 52.243 212.196 53.4303 212.196 54.6176C212.196 55.1265 212.196 55.4657 212.365 55.9746C212.365 56.4835 212.365 56.8227 212.535 57.3316C212.535 57.6708 212.535 58.01 212.704 58.3493C212.704 58.6885 212.874 59.0278 212.874 59.367C213.044 60.3847 213.213 61.2328 213.383 62.2505C213.552 63.2683 213.892 64.286 214.401 65.1341C214.909 65.9822 215.418 66.8303 216.097 67.5088C216.775 68.1873 217.623 68.6961 218.641 69.0354C219.15 69.205 219.489 69.205 219.998 69.3746C220.507 69.3746 221.016 69.3746 221.355 69.3746C221.864 69.3746 222.373 69.3746 222.712 69.3746C223.221 69.3746 223.73 69.205 224.069 69.0354C224.917 68.8657 225.426 68.5265 226.104 68.0176C226.613 67.5088 227.122 66.9999 227.631 66.4911C228.14 65.8126 228.479 65.3037 228.649 64.4556C228.988 63.7771 229.158 62.929 229.327 62.2505C229.497 61.5721 229.666 60.724 229.836 60.0455C230.006 59.367 230.006 58.5189 230.175 57.8404C230.175 57.3316 230.345 56.8227 230.345 56.3138C230.345 55.805 230.345 55.2961 230.345 54.6176C230.345 53.2607 230.345 52.243 230.345 51.2252ZM245.441 50.886C245.441 52.243 245.441 53.5999 245.271 54.9569C245.102 56.3138 244.932 57.6708 244.763 59.0278C244.593 60.3847 244.254 61.7417 243.914 63.0986C243.575 64.4556 243.066 65.643 242.558 66.9999C241.709 68.6961 240.692 70.3923 239.504 71.9189C238.995 72.767 238.317 73.4455 237.639 74.124C236.96 74.8024 236.282 75.4809 235.433 75.9898C234.416 76.8379 233.398 77.5164 232.211 78.0252C231.023 78.5341 229.836 79.043 228.649 79.3822C227.461 79.7214 226.274 80.0607 224.917 80.2303C223.73 80.3999 222.373 80.3999 221.016 80.3999C219.659 80.3999 218.471 80.3999 217.114 80.2303C215.927 80.0607 214.57 79.7214 213.383 79.3822C212.535 79.2126 211.856 78.8733 211.008 78.5341C210.33 78.1948 209.482 77.8556 208.803 77.3468C207.955 76.8379 207.277 76.329 206.598 75.8202C205.92 75.3113 205.241 74.6328 204.563 74.124C203.036 72.5974 201.849 70.9012 200.831 69.0354C199.813 67.1695 198.965 65.3037 198.456 63.2683C197.947 61.2328 197.439 59.1974 197.269 57.1619C196.93 55.1265 196.93 52.9214 196.93 50.886C196.93 48.8505 197.099 46.6455 197.269 44.61C197.608 42.5746 197.947 40.5392 198.626 38.5037C199.304 36.4683 199.983 34.6024 201.001 32.9062C202.018 31.0404 203.206 29.5138 204.732 27.8176C205.241 27.3088 205.92 26.7999 206.428 26.2911C207.107 25.7822 207.616 25.2733 208.294 24.9341C209.142 24.4252 209.821 24.086 210.669 23.5771C211.517 23.2379 212.365 22.8986 213.213 22.5594C214.57 22.0505 215.927 21.8809 217.284 21.7113C218.641 21.5417 219.998 21.3721 221.355 21.3721C223.899 21.3721 226.444 21.7113 228.818 22.3898C231.193 23.0683 233.568 24.2556 235.603 25.7822C236.282 26.2911 237.13 26.9695 237.639 27.648C238.317 28.3265 238.995 29.005 239.504 29.8531C240.183 30.7012 240.692 31.3797 241.201 32.3974C241.709 33.2455 242.218 34.0936 242.558 35.1113C243.066 36.2986 243.575 37.486 243.914 38.843C244.254 40.1999 244.593 41.3873 244.763 42.7442C244.932 44.1012 245.102 45.4581 245.271 46.8151C245.441 48.1721 245.441 49.6986 245.441 50.886Z" fill="white"/>
<path d="M311.253 38.6734C312.61 39.3519 313.798 40.0304 314.985 40.7089C316.172 41.3874 317.19 42.2355 318.208 43.2532C319.225 44.1013 320.074 45.2886 320.752 46.3063C321.431 47.4937 322.109 48.681 322.448 50.2076C322.787 51.0557 322.957 52.0734 322.957 52.9215C323.127 53.7696 323.127 54.7874 323.127 55.8051C323.127 57.3317 322.957 58.8582 322.787 60.5544C322.618 62.081 322.109 63.6076 321.6 65.1342C321.261 65.8127 321.091 66.4912 320.752 67.1696C320.413 67.8481 320.074 68.5266 319.565 69.2051C318.377 71.0709 316.851 72.5975 315.324 73.9544C313.628 75.3114 311.932 76.3291 310.066 77.1772C308.2 78.0253 306.165 78.7038 304.129 79.0431C302.094 79.3823 299.889 79.7215 297.684 79.7215C294.8 79.7215 291.917 79.3823 289.033 78.7038C286.149 78.0253 283.436 77.0076 280.891 75.8203C280.382 75.481 279.704 75.3114 279.195 74.9722C278.686 74.6329 278.008 74.2937 277.499 73.9544C277.16 73.7848 276.99 73.6152 276.651 73.276C276.312 73.1063 276.312 72.7671 276.312 72.4279C276.312 72.2582 276.312 71.919 276.481 71.7494C276.481 71.5798 276.651 71.4101 276.82 71.0709L280.722 63.6076C280.891 63.2684 281.061 63.0988 281.231 62.9291C281.4 62.7595 281.739 62.5899 282.079 62.5899C282.418 62.5899 282.757 62.7595 283.266 62.9291C283.605 63.0988 283.944 63.2684 284.284 63.438C284.793 63.7772 285.301 63.9468 285.81 64.1165C286.319 64.2861 286.828 64.6253 287.337 64.795C289.033 65.4734 290.56 65.9823 292.256 66.4912C293.952 66.8304 295.648 67.1696 297.344 67.1696C298.532 67.1696 299.719 67 300.906 66.8304C302.094 66.6608 303.112 66.3215 304.129 65.8127C305.147 65.3038 305.995 64.6253 306.843 63.7772C307.691 62.9291 308.2 61.9114 308.709 60.7241C308.879 60.0456 309.048 59.3671 309.218 58.6886C309.387 58.0101 309.387 57.3317 309.387 56.4836C309.387 55.9747 309.387 55.2962 309.218 54.7874C309.218 54.2785 309.048 53.6 308.879 53.0912C308.709 52.243 308.37 51.5646 307.861 50.8861C307.182 49.8684 306.504 49.0203 305.486 48.3418C304.638 47.6633 303.62 47.1544 302.603 46.8152C301.585 46.476 300.398 46.1367 299.21 46.1367C298.023 45.9671 296.836 45.9671 295.818 45.9671H291.917C291.238 45.9671 290.899 45.7975 290.56 45.4582C290.22 45.119 290.22 44.7798 290.22 44.1013V35.6203C290.22 35.281 290.22 34.9418 290.39 34.6025C290.56 34.2633 290.729 34.0937 291.238 33.9241C291.408 33.9241 291.577 33.9241 291.577 33.9241C291.747 33.9241 291.917 33.9241 291.917 33.9241H295.987C297.005 33.9241 298.193 33.9241 299.38 33.7544C300.567 33.5848 301.585 33.2456 302.603 32.9063C303.62 32.5671 304.468 31.8886 305.317 31.2101C306.165 30.5317 306.843 29.5139 307.182 28.4962C307.522 27.8177 307.691 26.9696 307.861 26.1215C308.03 25.2734 308.031 24.4253 308.031 23.5772C308.031 22.8987 308.03 22.2203 307.861 21.7114C307.691 21.0329 307.691 20.5241 307.352 19.8456C307.013 18.9975 306.504 18.1494 305.995 17.4709C305.486 16.7924 304.808 16.2836 303.96 15.7747C303.281 15.4355 302.433 15.0962 301.585 14.757C300.737 14.5874 299.889 14.4177 298.871 14.4177C297.514 14.4177 295.987 14.757 294.8 15.2658C293.613 15.9443 292.425 16.6228 291.408 17.6405C291.238 17.8101 291.238 17.8101 291.068 17.9798C290.899 18.1494 290.899 18.319 290.729 18.319L289.712 19.3367C289.542 19.5063 289.372 19.676 289.372 19.8456C289.203 20.0152 289.033 20.1848 288.863 20.3544C288.694 20.5241 288.524 20.6937 288.355 20.6937C288.185 20.8633 288.015 20.8633 287.676 20.8633C287.337 20.8633 287.167 20.8633 286.998 20.6937C286.828 20.5241 286.658 20.3544 286.489 20.1848L280.213 14.5874C280.043 14.4177 279.874 14.2481 279.704 13.9089C279.534 13.7393 279.534 13.4 279.534 13.2304C279.534 12.8912 279.704 12.5519 279.874 12.3823C280.043 12.043 280.213 11.8734 280.382 11.7038C280.722 11.195 281.231 10.6861 281.739 10.1772C282.248 9.66837 282.757 9.15951 283.096 8.65065C284.284 7.63292 285.471 6.61521 286.828 5.7671C288.185 4.919 289.542 4.24052 290.899 3.73166C292.256 3.2228 293.782 2.71394 295.309 2.54432C296.836 2.20508 298.362 2.20508 299.889 2.20508C301.585 2.20508 303.281 2.3747 304.977 2.71394C306.674 3.05318 308.2 3.56204 309.727 4.24052C311.253 4.919 312.61 5.7671 313.967 6.95444C315.324 8.14179 316.512 9.32913 317.36 10.6861C317.699 11.195 318.038 11.8734 318.547 12.3823C318.886 13.0608 319.225 13.5696 319.395 14.2481C319.904 15.6051 320.243 16.962 320.582 18.319C320.752 19.676 320.922 21.2025 320.922 22.5595C320.922 23.7468 320.922 24.7646 320.752 25.9519C320.582 27.1393 320.243 28.157 319.904 29.1747C319.565 30.1924 318.886 31.2101 318.377 32.0582C317.699 32.9063 317.02 33.7544 316.172 34.6025C315.324 35.4506 314.476 36.1291 313.628 36.8076C312.949 37.4861 312.101 38.1646 311.253 38.6734Z" fill="white"/>
</svg>
