<svg width="260" height="80" viewBox="0 0 260 80" fill="none" xmlns="http://www.w3.org/2000/svg">
<g clip-path="url(#clip0_204_217)">
<path d="M225.532 72.7375L227.82 68.7727L230.107 72.7375H225.532ZM229.04 64.198H226.447L218.06 79.142H221.72L223.855 75.4823H231.632L233.767 79.142H237.427L229.04 64.198ZM218.823 64.198H202.201V67.0953H208.759V79.2945H212.113V67.0953H218.67V64.198H218.823ZM192.442 64.198H189.087V79.2945H202.659V76.3972H192.442V64.198ZM172.466 72.7375L174.753 68.6202L177.041 72.585H172.466V72.7375ZM173.381 64.198L164.994 79.142H168.654L170.789 75.4823H178.566L180.7 79.142H184.36L175.973 64.198H173.381ZM151.727 72.1275L145.78 64.198H142.883V79.2945H146.238V69.9927L151.727 77.1597L157.217 69.9927V79.2945H160.572V64.3505H157.675L151.727 72.1275ZM114.367 72.7375H120.62V69.8402H114.367V67.0953H124.737V64.198H111.013V79.2945H125.347V76.3972H114.367V72.7375ZM96.0687 64.198H92.7139V79.2945H106.285V76.3972H96.0687V64.198ZM80.8197 76.3972H73.3477V72.585H80.8197C82.1921 72.585 82.9546 73.3474 82.9546 74.5673C82.9546 75.6348 82.1921 76.3972 80.8197 76.3972ZM73.3477 67.0953H80.0573C81.4297 67.0953 81.8871 67.5528 81.8871 68.4678C81.8871 69.2302 81.4297 69.6877 80.0573 69.6877H73.3477V67.0953ZM84.327 70.7551C84.9369 70.1451 85.2419 69.2302 85.2419 68.3153C85.2419 65.5704 83.2596 64.198 79.9048 64.198H69.9929V79.2945H80.5147C84.1745 79.2945 86.4618 77.4646 86.4618 74.5673C86.4618 73.0424 85.6994 71.67 84.327 70.7551ZM55.2015 76.7022C52.1517 76.7022 49.8643 74.7198 49.8643 71.8225C49.8643 68.9252 52.1517 66.7904 55.2015 66.7904C58.2512 66.7904 60.5386 68.7727 60.5386 71.8225C60.6911 74.7198 58.4037 76.7022 55.2015 76.7022ZM55.2015 63.8931C50.1693 63.8931 46.3571 67.2478 46.3571 71.67C46.3571 76.2447 50.1693 79.447 55.2015 79.447C60.2336 79.447 64.0459 76.0922 64.0459 71.67C64.0459 67.2478 60.3861 63.8931 55.2015 63.8931ZM32.7855 76.3972H28.8207V67.0953H32.7855C36.2927 67.0953 38.2751 69.0777 38.2751 71.8225C38.2751 74.5673 36.4452 76.3972 32.7855 76.3972ZM32.7855 64.198H25.3135V79.2945H32.7855C38.4276 79.2945 41.7824 76.0922 41.7824 71.8225C41.7824 67.4003 38.2751 64.198 32.7855 64.198Z" fill="white"/>
<path d="M53.5239 42.3921C51.5415 42.3921 48.4917 39.6473 48.4917 36.9025V21.9585C48.4917 20.5861 49.5591 19.2137 50.6266 19.2137C52.4564 19.2137 55.2013 21.501 55.2013 24.5508V40.4098C55.3537 41.7822 54.5913 42.3921 53.5239 42.3921ZM63.4357 29.278C63.4357 24.8558 63.2832 22.721 63.1307 21.6535C62.9782 20.1286 60.0809 17.8413 56.4212 15.7064C55.0488 14.944 53.5239 14.4865 51.2365 15.7064C46.5093 18.2988 40.8672 22.2635 40.5623 24.5508C40.4098 25.7708 40.4098 28.0581 40.4098 32.0228V32.7853C40.4098 33.3952 40.4098 34.0052 40.4098 34.6152V35.0726C40.4098 38.4274 40.5623 39.6473 40.7147 40.8672C40.8672 42.6971 44.6795 46.0519 47.2718 47.2718C48.1867 47.7293 49.1017 48.0342 50.0166 48.0342C50.6266 48.0342 51.2365 47.8818 51.999 47.5768C56.7262 45.4419 62.9782 41.0197 63.1307 38.2749C63.2832 37.055 63.2832 35.3776 63.2832 31.4129V30.8029C63.4357 30.193 63.4357 29.7355 63.4357 29.278ZM76.5498 38.7324C76.3973 35.0726 76.2448 30.4979 76.2448 25.6183V23.9409C76.2448 23.6359 76.2448 23.3309 76.2448 23.1784C76.2448 22.8735 76.2448 22.5685 76.2448 22.416V20.7386C76.0923 10.0643 76.3973 0 76.3973 0L67.8579 6.86204L68.0104 38.2749C68.0104 43.917 72.4326 47.8818 73.805 47.8818C75.6349 47.8818 79.5996 43.612 81.1245 41.4772C80.667 41.4772 80.2096 41.6297 79.5996 41.6297C78.2272 41.4772 76.7023 41.0197 76.5498 38.7324ZM91.9513 38.5799C91.7988 34.9201 91.6463 30.3454 91.6463 25.4658V23.7884C91.6463 23.4834 91.6463 23.1784 91.6463 23.0259C91.6463 22.721 91.6463 22.416 91.6463 22.2635V20.5861C91.4938 9.91183 91.6463 0 91.6463 0L83.2594 6.86204L83.4118 38.1224C83.4118 43.7645 87.6816 47.7293 89.2065 47.7293C91.0363 47.7293 95.0011 43.4596 96.526 41.3247C96.0685 41.3247 95.611 41.4772 95.0011 41.4772C93.6287 41.4772 91.9513 40.8672 91.9513 38.5799ZM32.7853 1.67739L25.7708 6.70955C25.7708 6.70955 28.6681 7.3195 28.6681 9.91183L28.8205 29.888C28.8205 33.8527 27.7531 37.055 25.6183 39.6473C24.0934 41.4772 23.0259 42.3921 22.111 42.3921C21.9585 42.3921 21.6535 42.2396 21.501 42.2396C20.2811 41.3247 18.1463 39.6473 16.7739 38.5799C14.0291 36.5975 11.4367 37.8174 11.4367 37.8174C11.4367 37.8174 14.7915 34.3102 15.7064 33.2427C16.0114 32.9378 16.1639 32.4803 16.1639 31.7179L16.0114 2.28735H7.47199C3.50726 2.28735 0 0.609959 0 0.609959C0 0.609959 2.13486 4.57469 4.57469 7.47199C5.18465 8.38693 7.01453 9.60685 8.99689 9.60685C9.60685 9.60685 10.2168 9.60685 10.6743 9.60685H11.2842C11.8942 9.60685 12.3517 9.60685 12.9616 9.60685C13.5716 9.60685 13.7241 9.91183 13.1141 10.3693C12.5042 10.9793 7.3195 15.5539 7.3195 15.5539L7.47199 38.1224C7.47199 39.6473 7.3195 40.4098 6.55706 40.8672C2.43984 43.3071 1.37241 46.0519 1.37241 46.0519C1.37241 46.0519 3.81224 44.0695 7.01452 44.0695C8.8444 44.0695 10.8268 44.832 12.3517 45.8994C15.5539 48.1867 20.5861 51.8465 20.5861 51.8465C20.5861 51.8465 25.7708 48.0342 30.4979 41.9347C34.6152 36.5975 37.8174 28.8205 37.8174 20.5861L37.5125 7.62448C37.5125 2.8973 32.7853 1.67739 32.7853 1.67739ZM102.778 32.6328L106.133 25.4658C103.998 25.7708 101.558 25.9232 99.7282 25.9232H99.1183C97.8984 25.9232 97.1359 25.9232 97.1359 25.9232L93.7811 33.3952C96.3735 32.9378 101.253 32.7853 102.473 32.7853C102.778 32.6328 102.778 32.6328 102.778 32.6328ZM156.759 35.0726C156.302 35.3776 152.337 38.2749 150.66 39.4948C150.66 39.4948 148.372 37.9699 148.372 34.1577C148.372 29.583 150.66 25.1608 157.064 24.7033V33.2427C157.064 33.3952 157.064 33.7002 157.064 33.8527V34.1577C157.064 34.6152 156.912 34.9201 156.759 35.0726ZM165.146 37.8174L164.994 18.4513C164.994 16.3164 163.316 15.7064 161.639 15.7064H152.032C149.745 15.7064 148.677 14.334 148.677 14.334L142.273 16.9264C142.273 16.9264 144.865 19.8237 147.915 19.8237C150.355 19.8237 151.117 19.5187 154.472 19.5187C156.454 19.5187 156.912 20.5861 156.912 22.2635C147.458 22.5685 140.595 25.7708 140.748 34.9201C140.748 41.0197 144.56 45.5944 145.78 46.9668C145.933 47.2718 146.238 47.2718 146.39 47.2718C146.695 47.2718 146.848 47.1193 147.153 46.9668C149.44 45.2894 157.064 38.8849 157.064 38.8849C157.064 43.4596 161.182 47.1193 163.469 47.1193C165.146 47.1193 168.196 43.1546 169.873 40.2573C169.264 40.4098 168.806 40.4098 168.349 40.4098C166.519 40.5623 165.146 39.7998 165.146 37.8174ZM127.329 44.3745C127.024 44.3745 126.566 44.3745 126.261 44.222C123.517 43.1546 112.842 38.7324 112.842 38.7324C112.842 38.7324 115.282 36.75 116.35 35.5301C116.655 35.2251 116.807 34.7676 116.807 34.0052V11.2842H125.804C127.481 11.2842 129.311 12.5042 129.311 14.944L129.464 42.0872C129.616 43.1546 128.701 44.3745 127.329 44.3745ZM129.006 4.11722L108.268 4.26971C104.303 4.26971 100.796 2.28735 100.796 2.28735C100.796 2.28735 102.778 6.09959 105.218 9.14938C105.98 10.0643 107.658 11.4367 109.64 11.4367H113.605C113.91 11.4367 114.062 11.5892 114.062 11.7417C114.062 11.8942 114.062 12.0467 113.757 12.3517C112.995 12.9616 107.963 17.3838 107.963 17.3838L108.115 40.2573C108.115 41.7822 107.963 42.2396 107.2 42.6971C103.083 45.2894 101.558 48.3392 101.558 48.3392C101.558 48.3392 103.845 46.3569 107.048 46.3569C108.268 46.3569 109.488 46.3569 111.622 47.2718C115.282 48.7967 118.789 50.4741 120.467 51.084C121.229 51.389 121.992 51.5415 122.754 51.5415C123.364 51.5415 124.127 51.389 124.889 51.2365C126.414 50.7791 136.936 44.3745 137.698 43.612C138.461 42.8496 138.461 41.9347 138.461 40.4098L138.308 12.9616C138.308 8.23444 134.496 4.11722 129.006 4.11722ZM210.436 38.5799L210.283 22.8735C210.283 20.5861 209.673 19.6712 208.911 18.7562C207.386 17.2313 205.404 15.5539 203.726 14.944C202.964 14.639 202.354 14.7915 201.286 15.249C198.847 16.1639 194.729 19.2137 194.729 19.2137C193.204 17.5363 190.765 15.7064 188.935 15.0965C188.172 14.7915 187.562 14.944 186.647 15.249C184.208 16.1639 180.09 19.0612 180.09 19.0612C180.09 19.0612 178.718 16.3164 176.278 15.7064C175.363 15.5539 174.601 15.249 173.838 15.8589C173.076 16.4689 168.349 21.3486 168.349 21.3486H168.501C169.416 21.3486 171.856 21.6535 171.856 25.1608V39.0374C171.856 44.0695 177.041 47.4243 177.955 47.4243C178.718 47.4243 182.378 44.222 184.36 41.1722C183.903 41.3247 183.445 41.3247 182.835 41.3247C181.31 41.3247 179.938 40.7147 179.938 38.8849L179.785 23.4834C179.785 21.9585 181.92 20.4336 182.988 20.4336C184.513 20.4336 186.8 23.1784 186.8 25.3133L186.952 39.0374C186.952 44.0695 192.137 47.4243 193.052 47.4243C193.814 47.4243 197.474 44.222 199.456 41.1722C198.999 41.3247 198.542 41.3247 197.932 41.3247C196.407 41.3247 195.034 40.7147 195.034 38.8849L194.882 23.6359C194.882 21.806 197.169 20.5861 198.084 20.5861C199.609 20.5861 201.896 23.1784 201.896 25.3133V39.0374C201.896 44.0695 207.081 47.4243 207.996 47.4243C208.758 47.4243 212.418 44.222 214.4 41.1722C213.943 41.3247 213.486 41.3247 212.876 41.3247C211.808 41.0197 210.436 40.4098 210.436 38.5799ZM258.318 40.8672C256.793 40.8672 255.42 40.2573 255.42 38.4274L255.268 22.721C255.268 20.4336 254.658 19.5187 253.895 18.6037C252.37 17.0788 250.388 15.4015 248.711 14.7915C247.948 14.4865 247.338 14.639 246.271 15.0965C243.831 16.0114 239.714 19.0612 239.714 19.0612C238.189 17.3838 235.749 15.5539 233.919 14.944C233.157 14.639 232.547 14.7915 231.632 15.0965C229.192 16.0114 225.075 18.9087 225.075 18.9087C225.075 18.9087 223.702 16.1639 221.263 15.5539C220.348 15.4015 219.585 15.0965 218.823 15.7064C218.06 16.3164 213.333 21.1961 213.333 21.1961H213.486C214.248 21.1961 216.84 21.501 216.84 25.0083V38.8849C216.84 43.917 222.025 47.2718 222.94 47.2718C223.702 47.2718 227.362 44.0695 229.344 41.0197C228.887 41.1722 228.43 41.1722 227.82 41.1722C226.295 41.1722 224.922 40.5623 224.922 38.5799L224.77 23.1784C224.77 21.6535 226.905 20.1286 227.972 20.1286C229.497 20.1286 231.784 22.8735 231.784 25.0083L231.937 38.7324C231.937 43.7645 237.121 47.1193 238.036 47.1193C238.799 47.1193 242.459 43.917 244.441 40.8672C243.983 41.0197 243.526 41.0197 243.069 41.0197C241.544 41.0197 240.171 40.4098 240.171 38.4274L240.019 23.1784C240.019 21.3486 242.306 20.1286 243.221 20.1286C244.746 20.1286 247.033 22.721 247.033 24.8558V38.5799C247.033 43.612 252.218 46.9668 253.133 46.9668C253.895 46.9668 257.555 43.7645 259.537 40.7147C259.232 40.7147 258.775 40.8672 258.318 40.8672Z" fill="white"/>
<path d="M225.532 72.7375L227.82 68.7727L230.107 72.7375H225.532ZM229.04 64.198H226.447L218.06 79.142H221.72L223.855 75.4823H231.632L233.767 79.142H237.427L229.04 64.198ZM218.823 64.198H202.201V67.0953H208.759V79.2945H212.113V67.0953H218.67V64.198H218.823ZM192.442 64.198H189.087V79.2945H202.659V76.3972H192.442V64.198ZM172.466 72.7375L174.753 68.6202L177.041 72.585H172.466V72.7375ZM173.381 64.198L164.994 79.142H168.654L170.789 75.4823H178.566L180.7 79.142H184.36L175.973 64.198H173.381ZM151.727 72.1275L145.78 64.198H142.883V79.2945H146.238V69.9927L151.727 77.1597L157.217 69.9927V79.2945H160.572V64.3505H157.675L151.727 72.1275ZM114.367 72.7375H120.62V69.8402H114.367V67.0953H124.737V64.198H111.013V79.2945H125.347V76.3972H114.367V72.7375ZM96.0687 64.198H92.7139V79.2945H106.285V76.3972H96.0687V64.198ZM80.8197 76.3972H73.3477V72.585H80.8197C82.1921 72.585 82.9546 73.3474 82.9546 74.5673C82.9546 75.6348 82.1921 76.3972 80.8197 76.3972ZM73.3477 67.0953H80.0573C81.4297 67.0953 81.8871 67.5528 81.8871 68.4678C81.8871 69.2302 81.4297 69.6877 80.0573 69.6877H73.3477V67.0953ZM84.327 70.7551C84.9369 70.1451 85.2419 69.2302 85.2419 68.3153C85.2419 65.5704 83.2596 64.198 79.9048 64.198H69.9929V79.2945H80.5147C84.1745 79.2945 86.4618 77.4646 86.4618 74.5673C86.4618 73.0424 85.6994 71.67 84.327 70.7551ZM55.2015 76.7022C52.1517 76.7022 49.8643 74.7198 49.8643 71.8225C49.8643 68.9252 52.1517 66.7904 55.2015 66.7904C58.2512 66.7904 60.5386 68.7727 60.5386 71.8225C60.6911 74.7198 58.4037 76.7022 55.2015 76.7022ZM55.2015 63.8931C50.1693 63.8931 46.3571 67.2478 46.3571 71.67C46.3571 76.2447 50.1693 79.447 55.2015 79.447C60.2336 79.447 64.0459 76.0922 64.0459 71.67C64.0459 67.2478 60.3861 63.8931 55.2015 63.8931ZM32.7855 76.3972H28.8207V67.0953H32.7855C36.2927 67.0953 38.2751 69.0777 38.2751 71.8225C38.2751 74.5673 36.4452 76.3972 32.7855 76.3972ZM32.7855 64.198H25.3135V79.2945H32.7855C38.4276 79.2945 41.7824 76.0922 41.7824 71.8225C41.7824 67.4003 38.2751 64.198 32.7855 64.198Z" fill="white"/>
<path d="M53.5239 42.3921C51.5415 42.3921 48.4917 39.6473 48.4917 36.9025V21.9585C48.4917 20.5861 49.5591 19.2137 50.6266 19.2137C52.4564 19.2137 55.2013 21.501 55.2013 24.5508V40.4098C55.3537 41.7822 54.5913 42.3921 53.5239 42.3921ZM63.4357 29.278C63.4357 24.8558 63.2832 22.721 63.1307 21.6535C62.9782 20.1286 60.0809 17.8413 56.4212 15.7064C55.0488 14.944 53.5239 14.4865 51.2365 15.7064C46.5093 18.2988 40.8672 22.2635 40.5623 24.5508C40.4098 25.7708 40.4098 28.0581 40.4098 32.0228V32.7853C40.4098 33.3952 40.4098 34.0052 40.4098 34.6152V35.0726C40.4098 38.4274 40.5623 39.6473 40.7147 40.8672C40.8672 42.6971 44.6795 46.0519 47.2718 47.2718C48.1867 47.7293 49.1017 48.0342 50.0166 48.0342C50.6266 48.0342 51.2365 47.8818 51.999 47.5768C56.7262 45.4419 62.9782 41.0197 63.1307 38.2749C63.2832 37.055 63.2832 35.3776 63.2832 31.4129V30.8029C63.4357 30.193 63.4357 29.7355 63.4357 29.278ZM76.5498 38.7324C76.3973 35.0726 76.2448 30.4979 76.2448 25.6183V23.9409C76.2448 23.6359 76.2448 23.3309 76.2448 23.1784C76.2448 22.8735 76.2448 22.5685 76.2448 22.416V20.7386C76.0923 10.0643 76.3973 0 76.3973 0L67.8579 6.86204L68.0104 38.2749C68.0104 43.917 72.4326 47.8818 73.805 47.8818C75.6349 47.8818 79.5996 43.612 81.1245 41.4772C80.667 41.4772 80.2096 41.6297 79.5996 41.6297C78.2272 41.4772 76.7023 41.0197 76.5498 38.7324ZM91.9513 38.5799C91.7988 34.9201 91.6463 30.3454 91.6463 25.4658V23.7884C91.6463 23.4834 91.6463 23.1784 91.6463 23.0259C91.6463 22.721 91.6463 22.416 91.6463 22.2635V20.5861C91.4938 9.91183 91.6463 0 91.6463 0L83.2594 6.86204L83.4118 38.1224C83.4118 43.7645 87.6816 47.7293 89.2065 47.7293C91.0363 47.7293 95.0011 43.4596 96.526 41.3247C96.0685 41.3247 95.611 41.4772 95.0011 41.4772C93.6287 41.4772 91.9513 40.8672 91.9513 38.5799ZM32.7853 1.67739L25.7708 6.70955C25.7708 6.70955 28.6681 7.3195 28.6681 9.91183L28.8205 29.888C28.8205 33.8527 27.7531 37.055 25.6183 39.6473C24.0934 41.4772 23.0259 42.3921 22.111 42.3921C21.9585 42.3921 21.6535 42.2396 21.501 42.2396C20.2811 41.3247 18.1463 39.6473 16.7739 38.5799C14.0291 36.5975 11.4367 37.8174 11.4367 37.8174C11.4367 37.8174 14.7915 34.3102 15.7064 33.2427C16.0114 32.9378 16.1639 32.4803 16.1639 31.7179L16.0114 2.28735H7.47199C3.50726 2.28735 0 0.609959 0 0.609959C0 0.609959 2.13486 4.57469 4.57469 7.47199C5.18465 8.38693 7.01453 9.60685 8.99689 9.60685C9.60685 9.60685 10.2168 9.60685 10.6743 9.60685H11.2842C11.8942 9.60685 12.3517 9.60685 12.9616 9.60685C13.5716 9.60685 13.7241 9.91183 13.1141 10.3693C12.5042 10.9793 7.3195 15.5539 7.3195 15.5539L7.47199 38.1224C7.47199 39.6473 7.3195 40.4098 6.55706 40.8672C2.43984 43.3071 1.37241 46.0519 1.37241 46.0519C1.37241 46.0519 3.81224 44.0695 7.01452 44.0695C8.8444 44.0695 10.8268 44.832 12.3517 45.8994C15.5539 48.1867 20.5861 51.8465 20.5861 51.8465C20.5861 51.8465 25.7708 48.0342 30.4979 41.9347C34.6152 36.5975 37.8174 28.8205 37.8174 20.5861L37.5125 7.62448C37.5125 2.8973 32.7853 1.67739 32.7853 1.67739ZM102.778 32.6328L106.133 25.4658C103.998 25.7708 101.558 25.9232 99.7282 25.9232H99.1183C97.8984 25.9232 97.1359 25.9232 97.1359 25.9232L93.7811 33.3952C96.3735 32.9378 101.253 32.7853 102.473 32.7853C102.778 32.6328 102.778 32.6328 102.778 32.6328ZM156.759 35.0726C156.302 35.3776 152.337 38.2749 150.66 39.4948C150.66 39.4948 148.372 37.9699 148.372 34.1577C148.372 29.583 150.66 25.1608 157.064 24.7033V33.2427C157.064 33.3952 157.064 33.7002 157.064 33.8527V34.1577C157.064 34.6152 156.912 34.9201 156.759 35.0726ZM165.146 37.8174L164.994 18.4513C164.994 16.3164 163.316 15.7064 161.639 15.7064H152.032C149.745 15.7064 148.677 14.334 148.677 14.334L142.273 16.9264C142.273 16.9264 144.865 19.8237 147.915 19.8237C150.355 19.8237 151.117 19.5187 154.472 19.5187C156.454 19.5187 156.912 20.5861 156.912 22.2635C147.458 22.5685 140.595 25.7708 140.748 34.9201C140.748 41.0197 144.56 45.5944 145.78 46.9668C145.933 47.2718 146.238 47.2718 146.39 47.2718C146.695 47.2718 146.848 47.1193 147.153 46.9668C149.44 45.2894 157.064 38.8849 157.064 38.8849C157.064 43.4596 161.182 47.1193 163.469 47.1193C165.146 47.1193 168.196 43.1546 169.873 40.2573C169.264 40.4098 168.806 40.4098 168.349 40.4098C166.519 40.5623 165.146 39.7998 165.146 37.8174ZM127.329 44.3745C127.024 44.3745 126.566 44.3745 126.261 44.222C123.517 43.1546 112.842 38.7324 112.842 38.7324C112.842 38.7324 115.282 36.75 116.35 35.5301C116.655 35.2251 116.807 34.7676 116.807 34.0052V11.2842H125.804C127.481 11.2842 129.311 12.5042 129.311 14.944L129.464 42.0872C129.616 43.1546 128.701 44.3745 127.329 44.3745ZM129.006 4.11722L108.268 4.26971C104.303 4.26971 100.796 2.28735 100.796 2.28735C100.796 2.28735 102.778 6.09959 105.218 9.14938C105.98 10.0643 107.658 11.4367 109.64 11.4367H113.605C113.91 11.4367 114.062 11.5892 114.062 11.7417C114.062 11.8942 114.062 12.0467 113.757 12.3517C112.995 12.9616 107.963 17.3838 107.963 17.3838L108.115 40.2573C108.115 41.7822 107.963 42.2396 107.2 42.6971C103.083 45.2894 101.558 48.3392 101.558 48.3392C101.558 48.3392 103.845 46.3569 107.048 46.3569C108.268 46.3569 109.488 46.3569 111.622 47.2718C115.282 48.7967 118.789 50.4741 120.467 51.084C121.229 51.389 121.992 51.5415 122.754 51.5415C123.364 51.5415 124.127 51.389 124.889 51.2365C126.414 50.7791 136.936 44.3745 137.698 43.612C138.461 42.8496 138.461 41.9347 138.461 40.4098L138.308 12.9616C138.308 8.23444 134.496 4.11722 129.006 4.11722ZM210.436 38.5799L210.283 22.8735C210.283 20.5861 209.673 19.6712 208.911 18.7562C207.386 17.2313 205.404 15.5539 203.726 14.944C202.964 14.639 202.354 14.7915 201.286 15.249C198.847 16.1639 194.729 19.2137 194.729 19.2137C193.204 17.5363 190.765 15.7064 188.935 15.0965C188.172 14.7915 187.562 14.944 186.647 15.249C184.208 16.1639 180.09 19.0612 180.09 19.0612C180.09 19.0612 178.718 16.3164 176.278 15.7064C175.363 15.5539 174.601 15.249 173.838 15.8589C173.076 16.4689 168.349 21.3486 168.349 21.3486H168.501C169.416 21.3486 171.856 21.6535 171.856 25.1608V39.0374C171.856 44.0695 177.041 47.4243 177.955 47.4243C178.718 47.4243 182.378 44.222 184.36 41.1722C183.903 41.3247 183.445 41.3247 182.835 41.3247C181.31 41.3247 179.938 40.7147 179.938 38.8849L179.785 23.4834C179.785 21.9585 181.92 20.4336 182.988 20.4336C184.513 20.4336 186.8 23.1784 186.8 25.3133L186.952 39.0374C186.952 44.0695 192.137 47.4243 193.052 47.4243C193.814 47.4243 197.474 44.222 199.456 41.1722C198.999 41.3247 198.542 41.3247 197.932 41.3247C196.407 41.3247 195.034 40.7147 195.034 38.8849L194.882 23.6359C194.882 21.806 197.169 20.5861 198.084 20.5861C199.609 20.5861 201.896 23.1784 201.896 25.3133V39.0374C201.896 44.0695 207.081 47.4243 207.996 47.4243C208.758 47.4243 212.418 44.222 214.4 41.1722C213.943 41.3247 213.486 41.3247 212.876 41.3247C211.808 41.0197 210.436 40.4098 210.436 38.5799ZM258.318 40.8672C256.793 40.8672 255.42 40.2573 255.42 38.4274L255.268 22.721C255.268 20.4336 254.658 19.5187 253.895 18.6037C252.37 17.0788 250.388 15.4015 248.711 14.7915C247.948 14.4865 247.338 14.639 246.271 15.0965C243.831 16.0114 239.714 19.0612 239.714 19.0612C238.189 17.3838 235.749 15.5539 233.919 14.944C233.157 14.639 232.547 14.7915 231.632 15.0965C229.192 16.0114 225.075 18.9087 225.075 18.9087C225.075 18.9087 223.702 16.1639 221.263 15.5539C220.348 15.4015 219.585 15.0965 218.823 15.7064C218.06 16.3164 213.333 21.1961 213.333 21.1961H213.486C214.248 21.1961 216.84 21.501 216.84 25.0083V38.8849C216.84 43.917 222.025 47.2718 222.94 47.2718C223.702 47.2718 227.362 44.0695 229.344 41.0197C228.887 41.1722 228.43 41.1722 227.82 41.1722C226.295 41.1722 224.922 40.5623 224.922 38.5799L224.77 23.1784C224.77 21.6535 226.905 20.1286 227.972 20.1286C229.497 20.1286 231.784 22.8735 231.784 25.0083L231.937 38.7324C231.937 43.7645 237.121 47.1193 238.036 47.1193C238.799 47.1193 242.459 43.917 244.441 40.8672C243.983 41.0197 243.526 41.0197 243.069 41.0197C241.544 41.0197 240.171 40.4098 240.171 38.4274L240.019 23.1784C240.019 21.3486 242.306 20.1286 243.221 20.1286C244.746 20.1286 247.033 22.721 247.033 24.8558V38.5799C247.033 43.612 252.218 46.9668 253.133 46.9668C253.895 46.9668 257.555 43.7645 259.537 40.7147C259.232 40.7147 258.775 40.8672 258.318 40.8672Z" fill="white"/>
</g>
<defs>
<clipPath id="clip0_204_217">
<rect width="259.69" height="79.5996" fill="white"/>
</clipPath>
</defs>
</svg>
